<svg xmlns="http://www.w3.org/2000/svg" viewBox="0 0 771.56 270.78" preserveAspectRatio="xMinYMid"><defs><style type="text/css">.cls-1{fill:#3179c9;}.cls-2{fill:#375591;}.cls-3{fill:#ffb061;}.cls-4{fill:#06bfb5;}.cls-5{fill:#dda8da;}.cls-6{fill:#ce80ce;}.cls-7{fill:#53d5db;}.cls-8{fill:#259ed9;}.cls-9{fill:#ffd18f;}.cls-10{fill:#ff8f2f;}.cls-11{fill:#fff;}.cls-12{fill:#91d8e8;}.cls-13{fill:#4ebee5;}.cls-14{fill:#90d8e8;}.cls-15{fill:#d7f2f9;}.cls-16{opacity:0.25;}</style></defs><title>Asset 1</title><g id="Layer_2" data-name="Layer 2"><g id="BG"><path class="cls-1" d="M771.56,158.59H771a88.34,88.34,0,0,0-69.91,34.23,47.67,47.67,0,0,1-55.32,15A77.4,77.4,0,0,0,540.35,270.5H771.56Z"/><path class="cls-2" d="M771.56,212.45c-100.51,19.15-195.17,34.46-270,41.6l62.46,5.5H703.94l67.62-1.88Z"/><polygon class="cls-3" points="533.36 73.21 533.36 79.89 533.36 109.29 544.24 109.29 544.24 79.89 544.24 73.21 533.36 73.21"/><polygon class="cls-3" points="522.47 79.89 522.47 109.29 543.35 109.29 543.35 79.89 543.35 73.21 522.47 73.21 522.47 79.89"/><path class="cls-4" d="M72,239.19A18.21,18.21,0,0,0,65.39,264l3.91,6.78H208.49A10.34,10.34,0,0,0,208,261l-24.12-17.56c6-.23-3.45-5.25-.24-10.84l25.84-44.8a18.16,18.16,0,1,0-31.19-18.61l-.26.45-.75,1.29-16-27.65a21.58,21.58,0,0,0-29.4-7.88h0a21.58,21.58,0,0,0-7.88,29.4l2.53,4.38A34.06,34.06,0,0,0,82,159.5h0a34,34,0,0,0-12.39,46.43l18.61,32.31A18.14,18.14,0,0,0,72,239.19Z"/><rect class="cls-5" x="648.95" y="219.56" width="19.25" height="43.76" rx="9.63" ry="9.63" transform="translate(201.97 -291.03) rotate(29.25)"/><rect class="cls-5" x="665.75" y="218.16" width="23.41" height="53.21" rx="11.7" ry="11.7" transform="translate(206 -299.83) rotate(29.25)"/><path class="cls-6" d="M674.79,250a.5.5,0,0,1-.44-.74l9.24-16.49a.5.5,0,0,1,.87.49l-9.24,16.49A.5.5,0,0,1,674.79,250Z"/><path class="cls-6" d="M661.14,245.7H661a.5.5,0,0,1-.37-.6l2.5-10.77a.5.5,0,0,1,1,.23l-2.5,10.77A.5.5,0,0,1,661.14,245.7Z"/><circle class="cls-1" cx="626.83" cy="166.38" r="26.88"/><rect class="cls-1" x="612.93" y="142.24" width="64.5" height="30.74" rx="15" ry="15" transform="translate(186.09 637.55) rotate(-60)"/><rect class="cls-1" x="629.13" y="118.63" width="30.64" height="14.61" rx="7.13" ry="7.13" transform="translate(213.17 621.08) rotate(-60)"/><path class="cls-7" d="M771.56,46a31.84,31.84,0,0,0-16.1-4.37h0a32.22,32.22,0,0,0-32.13,32.13h0a31.89,31.89,0,0,0,.33,4.57,13.44,13.44,0,0,1-5.3,12.74,43.52,43.52,0,0,0-17.89,35.1h0a43.46,43.46,0,0,0,71.09,33.62Z"/><rect class="cls-1" x="606.22" y="109.98" width="49.01" height="23.36" rx="11.4" ry="11.4" transform="translate(509.06 752.38) rotate(-90)"/><rect class="cls-1" x="582.8" y="151.33" width="49.01" height="23.36" rx="11.4" ry="11.4" transform="translate(769.79 770.45) rotate(-120)"/><rect class="cls-1" x="595.1" y="135.78" width="33.01" height="15.74" rx="7.68" ry="7.68" transform="translate(793.01 745.14) rotate(-120)"/><rect class="cls-1" x="599.31" y="116.75" width="38.01" height="18.12" rx="8.84" ry="8.84" transform="translate(818.51 724.19) rotate(-120)"/><path class="cls-8" d="M626.83,251.58a.5.5,0,0,1-.5-.5V145.21a.5.5,0,1,1,1,0V251.08A.5.5,0,0,1,626.83,251.58Z"/><path class="cls-8" d="M626.83,184.63a.5.5,0,0,1-.43-.75l10.25-17.75a.5.5,0,1,1,.87.5l-10.25,17.75A.5.5,0,0,1,626.83,184.63Z"/><path class="cls-8" d="M626.83,169.42a.5.5,0,0,1-.43-.25l-8.29-14.4a.5.5,0,0,1,.87-.5l8.29,14.4a.5.5,0,0,1-.43.75Z"/><path class="cls-8" d="M741.19,158.35a.5.5,0,0,1-.45-.28l-9-18.35a.5.5,0,1,1,.9-.44l9,18.35a.5.5,0,0,1-.45.72Z"/><path class="cls-8" d="M733.16,249h0a.5.5,0,0,1-.45-.54L743.5,126.15a.51.51,0,0,1,.54-.45.5.5,0,0,1,.45.54L733.65,248.56A.5.5,0,0,1,733.16,249Z"/><path class="cls-4" d="M771.56,240.46c-111.69,1.77-239.21,6.43-290.18,18.59-13.85,8.67,151.56,7.07,290.18,4.28Z"/><path class="cls-7" d="M771.56,255.08H369.44C248,255.08,92.08,264.41,0,270.77H771.56Z"/><g id="Layer_7" data-name="Layer 7"><rect class="cls-3" x="533.36" y="79.89" width="10.88" height="29.4"/><rect class="cls-9" x="522.47" y="109.28" width="10.88" height="21.54"/><rect class="cls-9" x="522.47" y="79.89" width="10.88" height="29.4"/><rect class="cls-10" x="533.36" y="73.21" width="10.88" height="6.69"/><rect class="cls-3" x="522.47" y="73.21" width="10.88" height="6.69"/><rect class="cls-10" x="541.14" y="109.28" width="38.62" height="53.05"/><polygon class="cls-10" points="579.76 109.29 549.96 162.18 609.55 162.18 579.76 109.29"/><path class="cls-7" d="M287.2,99.84a11.4,11.4,0,0,0-11.5.08l.79-1.36a14.81,14.81,0,0,0-25.66-14.81l-.61,1-13-22.56A17.57,17.57,0,0,0,206.77,79.8l2.06,3.57a27.7,27.7,0,0,0-46.5,30l15.23,26.42a14.78,14.78,0,0,0-18.63,21l4.39,7.6a20.83,20.83,0,0,0-6.54,2.41,21.13,21.13,0,0,0-7.71,28.72l17.81,30.83a21.16,21.16,0,0,0-8.21,16.29,24.31,24.31,0,0,0,1.83,9,21,21,0,0,0,1,1.91l1.61,2.79a24.36,24.36,0,0,0,20,10.43h34.67l-7.62-13.2a21.13,21.13,0,0,0,5.4-27.24l-15.83-27.41c.18-.09.37-.17.55-.28a14.84,14.84,0,0,0,7.33-14,27.66,27.66,0,0,0,45.78-18.57,11.4,11.4,0,0,0,10-5.72l28.12-48.93A11.41,11.41,0,0,0,287.2,99.84Zm-36.07,39.87-4.79,8.34-3.26-5.61A14.82,14.82,0,0,0,251.13,139.71Z"/><rect class="cls-11" x="342.26" y="162.18" width="261.58" height="108.59"/><rect class="cls-12" x="442.49" y="162.18" width="51.48" height="108.59"/><polygon class="cls-3" points="377.23 109.28 216.37 109.28 216.37 109.29 186.58 162.18 246.16 162.18 246.16 162.17 377.23 162.17 377.23 109.28"/><rect class="cls-1" x="454.57" y="190.19" width="28.36" height="59.17"/><polygon class="cls-10" points="384.81 73.21 478.27 73.21 428.15 162.18 384.81 162.18 334.69 162.18 384.81 73.21"/><rect class="cls-12" x="544.24" y="162.18" width="59.59" height="108.59"/><polygon class="cls-12" points="574.04 109.29 544.24 162.18 603.84 162.18 574.04 109.29"/><polygon class="cls-11" points="392.65 73.21 342.53 162.18 380.38 168.12 442.77 162.18 392.65 73.21"/><polygon class="cls-10" points="478.27 73.21 384.81 73.21 434.92 162.18 478.27 162.18 528.39 162.18 478.27 73.21"/><polygon class="cls-3" points="525.95 109.29 523.76 109.29 464.16 109.29 493.96 162.18 515.24 162.18 522.97 162.18 549.96 162.18 579.76 109.29 525.95 109.29"/><path class="cls-7" d="M533.36,270.77a39.4,39.4,0,0,0-78.79,0Z"/><rect class="cls-6" x="375.04" y="190.19" width="34.66" height="80.58"/><rect class="cls-1" x="556.71" y="190.19" width="34.66" height="59.17"/><circle class="cls-13" cx="392.37" cy="142.32" r="17.32"/><rect class="cls-14" x="556.71" y="219.19" width="34.66" height="1.15"/><rect class="cls-11" x="195.1" y="162.18" width="147.15" height="108.59"/><rect class="cls-15" x="195.1" y="162.18" width="147.43" height="6.57"/><rect class="cls-5" x="210.46" y="190.19" width="116.44" height="80.58"/><polygon class="cls-12" points="342.53 162.33 281.9 270.77 342.26 270.77 342.53 162.33"/><polygon class="cls-6" points="281.9 270.77 326.9 270.77 326.9 190.3 281.9 270.77"/><rect class="cls-11" x="372.65" y="141.74" width="42.12" height="1.15"/><rect class="cls-11" x="391.79" y="117.69" width="1.15" height="44.42"/><path class="cls-5" d="M380.69,240.09a.57.57,0,0,1-.57-.57v-9.39a.57.57,0,0,1,1.15,0v9.39A.57.57,0,0,1,380.69,240.09Z"/><rect class="cls-14" x="573.47" y="185.51" width="1.15" height="34.27"/><g class="cls-16"><rect class="cls-6" x="210.46" y="250.05" width="116.44" height="1.15"/><rect class="cls-6" x="210.46" y="229.9" width="116.44" height="1.15"/><rect class="cls-6" x="210.46" y="209.75" width="116.44" height="1.15"/><rect class="cls-6" x="239" y="190.19" width="1.15" height="80.58"/><rect class="cls-6" x="268.11" y="190.19" width="1.15" height="80.58"/><rect class="cls-6" x="297.21" y="190.19" width="1.15" height="80.58"/></g><rect class="cls-15" x="493.96" y="162.18" width="50.28" height="6.57"/><polygon class="cls-15" points="342.53 162.18 350.25 162.18 392.37 86.65 388.59 79.93 342.53 162.18"/><rect class="cls-14" x="454.57" y="219.19" width="28.36" height="1.15"/></g><g id="Layer_8" data-name="Layer 8"><path class="cls-11" d="M522.47,73.21c0-18.21,11-27.4,23.64-33.9s13.36-15.14,17.23-27.19c5.17-16.08,30-17.23,30,3.07,0,16.78-27.35,23.54-36.63,30-7.79,5.39-3.7,28.06-12.46,28.06Z"/></g></g></g></svg>