<svg id="Layer_1" data-name="Layer 1" xmlns="http://www.w3.org/2000/svg" viewBox="0 0 100 100"><defs><style>.cls-1{fill:#d1e2e5;}.cls-2{fill:#ffcc85;}</style></defs><title>18B40000.I_BQX_Icons_Outlined</title><g id="SVGID"><circle class="cls-1" cx="50" cy="50.13" r="25" transform="translate(-5.09 94.6) rotate(-83.99)"/></g><g id="_Group_" data-name="&lt;Group&gt;"><path class="cls-2" d="M57.27,40.88v4.45a3.39,3.39,0,0,0-1.33.66,3.31,3.31,0,0,0-1.25,2.59v1.78H45.3V48.58A3.31,3.31,0,0,0,44.05,46a3.21,3.21,0,0,0-1.32-.65V40.89c.56-.66,2.8-2.92,7.33-2.92S56.75,40.23,57.27,40.88Z"/><path class="cls-2" d="M44.55,51.86H55.44a.75.75,0,0,0,.75-.75V48.58a1.84,1.84,0,1,1,3.67,0v7a1.83,1.83,0,0,1-.55,1.3,1.78,1.78,0,0,1-1.29.54H42a1.84,1.84,0,0,1-1.72-1.23,1.78,1.78,0,0,1-.12-.61v-7a1.84,1.84,0,1,1,3.67,0v2.53A.75.75,0,0,0,44.55,51.86Z"/><path d="M58,57.46a1.78,1.78,0,0,0,1.29-.54,1.83,1.83,0,0,0,.55-1.3v-7a1.84,1.84,0,1,0-3.67,0v2.53a.75.75,0,0,1-.75.75H44.55a.75.75,0,0,1-.75-.75V48.58a1.84,1.84,0,1,0-3.67,0v7a1.78,1.78,0,0,0,.12.61A1.84,1.84,0,0,0,42,57.46Zm-.75-16.58c-.52-.65-2.68-2.91-7.21-2.91s-6.77,2.26-7.33,2.92v4.45a3.21,3.21,0,0,1,1.32.65,3.31,3.31,0,0,1,1.25,2.59v1.78h9.39V48.58A3.31,3.31,0,0,1,55.94,46a3.39,3.39,0,0,1,1.33-.66ZM38.83,56.73a3.38,3.38,0,0,1-.2-1.11v-7a3.34,3.34,0,0,1,2.6-3.25v-4.7a.84.84,0,0,1,.13-.44c.11-.15,2.69-3.72,8.7-3.72s8.48,3.59,8.58,3.74a.7.7,0,0,1,.13.42v4.7a3.35,3.35,0,0,1,2.59,3.25v7a3.36,3.36,0,0,1-2.59,3.25V63a.75.75,0,1,1-1.5,0V59H42.73V63a.75.75,0,0,1-1.5,0V58.86A3.35,3.35,0,0,1,38.83,56.73Z"/></g></svg>