<svg id="Layer_1" data-name="Layer 1" xmlns="http://www.w3.org/2000/svg" viewBox="0 0 100 100"><defs><style>.cls-1{fill:#d1e2e5;}.cls-2{fill:#a6a6a6;}</style></defs><title>18B40000.I_BQX_Icons_Outlined</title><circle class="cls-1" cx="50" cy="50.13" r="25"/><path class="cls-2" d="M29.56,42.94l-3-1.62a24.81,24.81,0,0,0-1.16,4.13l4.11-2.25Z"/><path class="cls-2" d="M29.56,44.91l-4.4,2.41A25.24,25.24,0,0,0,25,50.13c0,.55,0,1.08.06,1.62l4.5,2.46Z"/><polygon class="cls-2" points="43.34 50.53 34.23 45.54 34.23 55.78 43.34 50.78 43.34 50.53"/><polygon class="cls-2" points="43.34 61.8 43.34 52.49 34.85 57.15 43.34 61.8"/><path class="cls-2" d="M46.75,48.36,28.07,38.12c-.32.59-.62,1.19-.89,1.81l3.88,2.13V56.75l-5.82-3.19a24.89,24.89,0,0,0,.49,2.57l21,11.52Zm-1.91,16L32.73,57.69V43l12.11,6.64Z"/><polygon class="cls-2" points="48.25 67.65 64.25 58.87 64.25 39.58 48.25 48.36 48.25 67.65"/><path class="cls-2" d="M63.44,38.32,41.86,26.49a25.06,25.06,0,0,0-13,10.34L47.5,47.06Z"/><path d="M32.73,57.69l12.11,6.64V49.64L32.73,43ZM43.34,61.8l-8.49-4.65,8.49-4.66ZM34.23,45.54l9.11,5v.25l-9.11,5Z"/><path d="M31.06,42.06l-3.88-2.13c-.2.46-.4.92-.57,1.39l3,1.62v.26l-4.11,2.25q-.17.92-.28,1.86l4.4-2.41v9.3l-4.5-2.46q.06.92.18,1.82l5.82,3.19Z"/><path d="M41.86,26.49,63.44,38.32,47.5,47.06,28.83,36.83c-.27.42-.52.85-.77,1.29L46.75,48.36V67.65l-21-11.52c.17.69.37,1.37.6,2L47.14,69.57l.36.2,18.25-10V37.87l-21.87-12C43.19,26.06,42.52,26.26,41.86,26.49ZM64.25,58.87l-16,8.78V48.36l16-8.78Z"/></svg>