<svg id="Layer_1" data-name="Layer 1" xmlns="http://www.w3.org/2000/svg" viewBox="0 0 100 100"><defs><style>.cls-1{fill:#d1e2e5;}</style></defs><title>18B40000.I_BQX_Icons_Outlined</title><g id="SVGID"><circle class="cls-1" cx="50" cy="50.13" r="25" transform="translate(-5.09 94.6) rotate(-83.99)"/></g><g id="_Group_" data-name="&lt;Group&gt;"><path class="cls-1" d="M47,43.51a3,3,0,1,1,3,3A3,3,0,0,1,47,43.51Z"/><path d="M50,38.9a4.61,4.61,0,1,1-4.61,4.61A4.61,4.61,0,0,1,50,38.9Zm-3,4.61a3,3,0,1,0,3-3A3,3,0,0,0,47,43.51Z"/><path d="M50,35.77a7.75,7.75,0,0,0-7.74,7.74c0,7.07,5.9,14.29,7.74,16.37,1.83-2.08,7.73-9.3,7.73-16.37A7.74,7.74,0,0,0,50,35.77Zm4.22,21.16a38.54,38.54,0,0,1-3.68,4.58.76.76,0,0,1-.54.23.73.73,0,0,1-.54-.23,37.37,37.37,0,0,1-3.3-4c-2.46-3.44-5.4-8.67-5.4-14a9.24,9.24,0,1,1,18.47,0C59.23,48.54,56.59,53.5,54.22,56.93Z"/><path d="M38.47,61c0-1.73,1.92-3.22,5.27-4.07a.81.81,0,1,1,.4,1.57c-2.79.72-4,1.77-4,2.5,0,1.29,3.86,3.17,9.9,3.17s9.89-1.88,9.89-3.17c0-.73-1.25-1.78-4-2.5a.82.82,0,0,1-.59-1,.69.69,0,0,1,0-.13.82.82,0,0,1,.94-.45c3.35.85,5.27,2.34,5.27,4.07,0,3.12-5.94,4.8-11.52,4.8S38.47,64.11,38.47,61Z"/></g></svg>