<svg id="Layer_1" data-name="Layer 1" xmlns="http://www.w3.org/2000/svg" viewBox="0 0 100 100"><defs><style>.cls-1{fill:#d1e2e5;}.cls-2{fill:#fff;}.cls-3{fill:#a6a6a6;}.cls-4{fill:#ffcc85;}</style></defs><title>18B40000.I_BQX_Icons_Outlined</title><g id="SVGID"><circle class="cls-1" cx="50" cy="50.13" r="25"/></g><polygon class="cls-2" points="54.82 64.04 55.4 63.72 58.66 61.94 58.66 53.65 54.82 55.75 54.82 64.04"/><path class="cls-3" d="M55.57,34,41.86,26.49a25.06,25.06,0,0,0-13,10.33l18.42,10.1Z"/><polygon class="cls-4" points="48.25 67.65 53.32 64.86 53.32 54.86 60.16 51.12 60.16 61.12 64.25 58.87 64.25 38.76 56.89 34.73 48.25 48.13 48.25 67.65"/><path class="cls-4" d="M46.75,48.36,28.07,38.12a25,25,0,0,0-2.34,18l21,11.52Z"/><path d="M41.86,26.49,55.57,34,47.25,46.92,28.84,36.82c-.27.42-.52.85-.77,1.29L46.75,48.36V67.65l-21-11.52c.17.69.37,1.37.6,2L47.14,69.57l.36.2,18.25-10V37.87l-21.87-12C43.2,26.05,42.52,26.26,41.86,26.49ZM58.66,61.94,55.4,63.72l-.58.32V55.75l3.84-2.1Zm5.59-23.18V58.87l-4.09,2.25v-10l-6.84,3.74v10l-5.07,2.79V48.13l8.64-13.4Z"/></svg>