<svg id="Layer_1" data-name="Layer 1" xmlns="http://www.w3.org/2000/svg" viewBox="0 0 100 100"><defs><style>.cls-1{fill:#d1e2e5;}.cls-2{fill:#ffcfde;}</style></defs><title>18B40000.I_BQX_Icons_Outlined</title><circle class="cls-1" cx="50" cy="50.13" r="25"/><polygon class="cls-2" points="30.67 58.83 35.09 61.25 35.09 55.96 30.67 53.54 30.67 58.83"/><path class="cls-2" d="M29.17,52.72,25,50.44a25,25,0,0,0,.72,5.69L29.17,58Z"/><path class="cls-2" d="M29.26,45.77l-3.47-1.91A25,25,0,0,0,25,48.74l4.22,2.32Z"/><polygon class="cls-2" points="40.92 52.16 30.76 46.59 30.76 51.88 40.92 57.45 40.92 52.16"/><polygon class="cls-2" points="35.09 41.96 30.76 39.59 30.76 44.88 35.09 47.25 35.09 41.96"/><path class="cls-2" d="M29.26,38.77l-1.19-.65a24.86,24.86,0,0,0-1.85,4.28l3,1.66Z"/><path class="cls-2" d="M34.13,35.2l-2.89-1.59a25.08,25.08,0,0,0-2.4,3.21l1.16.64Z"/><polygon class="cls-2" points="45.94 34.98 41.8 32.71 31.56 38.32 35.71 40.59 45.94 34.98"/><polygon class="cls-2" points="51.98 38.29 47.5 35.84 42.95 38.33 47.44 40.79 51.98 38.29"/><polygon class="cls-2" points="41.41 39.19 41.42 39.17 37.27 41.45 47.5 47.06 51.63 44.79 41.41 39.19"/><polygon class="cls-2" points="36.59 48.07 46.75 53.65 46.75 48.36 36.59 42.78 36.59 48.07"/><polygon class="cls-2" points="42.42 58.27 46.75 60.65 46.75 55.36 42.42 52.98 42.42 58.27"/><polygon class="cls-2" points="36.59 62.07 46.75 67.65 46.75 62.36 36.59 56.78 36.59 62.07"/><polygon class="cls-2" points="48.25 67.65 52.58 65.27 52.58 59.98 48.25 62.36 48.25 67.65"/><polygon class="cls-2" points="54.08 64.45 64.25 58.87 64.25 53.58 54.08 59.16 54.08 64.45"/><polygon class="cls-2" points="48.25 53.65 52.58 51.27 52.58 45.98 48.25 48.36 48.25 53.65"/><polygon class="cls-2" points="48.25 60.65 58.42 55.07 58.42 49.78 48.25 55.36 48.25 60.65"/><polygon class="cls-2" points="59.92 54.25 64.25 51.87 64.25 46.58 59.92 48.96 59.92 54.25"/><polygon class="cls-2" points="54.08 50.45 64.25 44.87 64.25 39.58 54.08 45.16 54.08 50.45"/><polygon class="cls-2" points="53.19 43.94 63.44 38.32 59.25 36.02 49 41.64 53.19 43.94"/><polygon class="cls-2" points="53.54 37.44 57.69 35.17 47.5 29.58 43.36 31.85 53.54 37.44"/><path class="cls-2" d="M45.94,28.73l-4.08-2.24a25,25,0,0,0-9.57,6l3.4,1.87Z"/><path d="M41.86,26.49l4.08,2.24L35.69,34.35l-3.4-1.87c-.36.36-.71.74-1.05,1.13l2.89,1.59L30,37.46l-1.16-.64c-.27.42-.53.85-.77,1.29l1.19.65v5.29l-3-1.66c-.16.48-.3,1-.43,1.47l3.47,1.91v5.29L25,48.74c0,.46,0,.92,0,1.39,0,.1,0,.21,0,.31l4.16,2.28V58l-3.44-1.89c.17.69.37,1.37.6,2L47.14,69.57l.36.2,18.25-10V37.87l-21.87-12C43.19,26.06,42.52,26.26,41.86,26.49Zm-.06,6.22L45.94,35,35.71,40.59l-4.15-2.27Zm5.7,3.13L52,38.29l-4.54,2.5L43,38.33ZM30.76,39.59,35.09,42v5.29l-4.33-2.37Zm0,7,10.16,5.57v5.29L30.76,51.88Zm4.33,14.66-4.42-2.42V53.54L35.09,56Zm11.66,6.4L36.59,62.07V56.78l10.16,5.58Zm0-7-4.33-2.38V53l4.33,2.38Zm0-7L36.59,48.07V42.78l10.16,5.58Zm-9.48-12.2,4.15-2.28v0l10.22,5.6L47.5,47.06Zm15.31,9.82-4.33,2.38V48.36L52.58,46Zm5.84-1.49v5.29L48.25,60.65V55.36ZM52.58,65.27l-4.33,2.38V62.36L52.58,60Zm11.67-6.4L54.08,64.45V59.16l10.17-5.58Zm0-7-4.33,2.38V49l4.33-2.38Zm0-7L54.08,50.45V45.16l10.17-5.58Zm-.81-6.55L53.19,43.94,49,41.64,59.25,36Zm-5.75-3.15-4.15,2.27L43.36,31.85l4.14-2.27Z"/></svg>