<svg xmlns="http://www.w3.org/2000/svg" viewBox="25 25 50 50" preserveAspectRatio="xMinYMin meet">
  <g fill="none">
    <rect  id="rect" width="100%" height="100%" />
    <path fill="#000000" d="M55.38 63.45a.73.73 0 0 1 0 1.45H44.62a.73.73 0 1 1 0-1.45z"/>
    <path fill="#000000" d="M50 45.32l7-8.08H43zm5.77 2.59l4.17-7.76-1.44-2.41-7.28 8.38zM68 55.48a31.28 31.28 0 0 0 2-9.88l-4.4-2.22v8.27a5.57 5.57 0 0 0 2.4 3.83zm-11.26-6.31a.73.73 0 0 1-.64.38.6.6 0 0 1-.26 0L50 47.2l-5.84 2.3a.58.58 0 0 1-.26 0 .71.71 0 0 1-.63-.38l-1.67-3.04v8.12h16.79v-8.1zm-22.35 2.42v-8.2L30 45.6a31.55 31.55 0 0 0 2 9.88 5.53 5.53 0 0 0 2.39-3.89zM70.06 44V27.08a.62.62 0 0 0-.61-.62H30.57a.61.61 0 0 0-.61.62V44l8.78-4.42 2.05-3.45v-.05a.62.62 0 0 1 .14-.14l.09-.06a.48.48 0 0 1 .2-.07h17.53a.48.48 0 0 1 .2.07l.09.06a.62.62 0 0 1 .14.14v.05l2.05 3.45zm-30-3.85l4.17 7.76 4.55-1.79-7.28-8.38zm.1 14.78V43.66a.58.58 0 0 1 0-.19l-1.23-2.37-3.09 1.56v9a7 7 0 0 1-3.27 5.19 31.11 31.11 0 0 0 17.21 16.66.61.61 0 0 0 .46 0 31.17 31.17 0 0 0 17.19-16.67 7 7 0 0 1-3.27-5.14v-9l-3.09-1.6-1.24 2.31v11.52a.73.73 0 0 1-.72.73H40.88a.73.73 0 0 1-.72-.73zm9.12 19.95a32.82 32.82 0 0 1-20.74-29.59 1 1 0 0 1 0-.17V27.08A2.06 2.06 0 0 1 30.57 25h38.88a2.06 2.06 0 0 1 2 2.07v18.05a1 1 0 0 1 0 .17 32.83 32.83 0 0 1-20.71 29.58A2.2 2.2 0 0 1 50 75a2.28 2.28 0 0 1-.72-.12z"/>
  </g>
</svg>