<svg xmlns="http://www.w3.org/2000/svg" viewBox="25 25 50 50" preserveAspectRatio="xMinYMin meet">
  <g fill="none">
  <rect  id="rect" width="100%" height="100%" />
    <path d="M70.06 27.08v17.29a31.38 31.38 0 0 1-19.82 29.14.61.61 0 0 1-.46 0 31.37 31.37 0 0 1-19.84-29.14V27.08a.61.61 0 0 1 .61-.62h38.9a.62.62 0 0 1 .61.62zM34.24 49a4.35 4.35 0 0 0 4.33 4.37h5.91v6a4.35 4.35 0 0 0 4.33 4.37h2.37a4.35 4.35 0 0 0 4.32-4.37v-6h5.92A4.35 4.35 0 0 0 65.74 49v-2.36a4.35 4.35 0 0 0-4.32-4.37H55.5v-6a4.35 4.35 0 0 0-4.32-4.37h-2.37a4.35 4.35 0 0 0-4.33 4.37v6h-5.91a4.35 4.35 0 0 0-4.33 4.37z" fill="#fff"/>
    <path d="M51.17 45.83a.82.82 0 1 0 .81.82.81.81 0 0 0-.81-.82zm0 2.38A.82.82 0 1 0 52 49a.81.81 0 0 0-.83-.79zM48 46.65a.81.81 0 1 0 .81-.82.82.82 0 0 0-.81.82zM48 49a.81.81 0 1 0 .81-.81.81.81 0 0 0-.81.81zm-2.08 3v-8.27h8.14V52z" fill="#dd9f62"/>
    <path d="M44.48 43.73V52h-5.91a2.91 2.91 0 0 1-2.89-3v-2.36a2.9 2.9 0 0 1 2.89-2.91zm4.33 18.56a2.91 2.91 0 0 1-2.89-2.91v-6h8.14v6a2.9 2.9 0 0 1-2.88 2.91zM64.3 46.64V49a2.9 2.9 0 0 1-2.88 3H55.5v-8.27h5.92a2.89 2.89 0 0 1 2.88 2.91zM45.92 36.29a2.91 2.91 0 0 1 2.89-2.91h2.37a2.9 2.9 0 0 1 2.88 2.91v6h-8.14z"/>
    <path fill="#000000" d="M51.17 47.47a.82.82 0 1 1 .81-.82.82.82 0 0 1-.81.82zm0 2.37A.82.82 0 1 1 52 49a.81.81 0 0 1-.83.84zm-2.35-2.37a.82.82 0 1 1 .81-.82.82.82 0 0 1-.81.82zm0 2.37a.82.82 0 1 1 .81-.82.81.81 0 0 1-.81.82z"/>
    <path fill="#000000" d="M45.92 43.73V52h8.14v-8.27zm2.89-10.35a2.91 2.91 0 0 0-2.89 2.91v6h8.14v-6a2.9 2.9 0 0 0-2.88-2.91zm-2.89 26a2.91 2.91 0 0 0 2.89 2.91h2.37a2.9 2.9 0 0 0 2.88-2.91v-6h-8.14zM64.3 49v-2.36a2.89 2.89 0 0 0-2.88-2.91H55.5V52h5.92a2.9 2.9 0 0 0 2.88-3zm-28.62 0a2.91 2.91 0 0 0 2.89 3h5.91v-8.27h-5.91a2.9 2.9 0 0 0-2.89 2.91zm2.89 4.37A4.35 4.35 0 0 1 34.24 49v-2.36a4.35 4.35 0 0 1 4.33-4.37h5.91v-6a4.35 4.35 0 0 1 4.33-4.37h2.37a4.35 4.35 0 0 1 4.32 4.37v6h5.92a4.35 4.35 0 0 1 4.32 4.37V49a4.35 4.35 0 0 1-4.32 4.37H55.5v6a4.35 4.35 0 0 1-4.32 4.37h-2.37a4.35 4.35 0 0 1-4.33-4.37v-6z"/>
    <path fill="#000000" d="M29.94 44.37a31.37 31.37 0 0 0 19.84 29.14.61.61 0 0 0 .46 0 31.38 31.38 0 0 0 19.82-29.14V27.08a.62.62 0 0 0-.61-.62H30.57a.61.61 0 0 0-.61.62zm19.34 30.51A32.86 32.86 0 0 1 28.5 44.37V27.08A2.06 2.06 0 0 1 30.57 25h38.88a2.06 2.06 0 0 1 2 2.07v17.3a32.83 32.83 0 0 1-20.76 30.5A2.2 2.2 0 0 1 50 75a2.28 2.28 0 0 1-.72-.12z"/>
  </g>
</svg>