<svg xmlns="http://www.w3.org/2000/svg" viewBox="25 25 50 50" preserveAspectRatio="xMinYMin meet">
  <g fill="none">
    <rect  id="rect" width="100%" height="100%" />
    <path fill="#000000" d="M57.58 52.45H42.42a.73.73 0 0 1 0-1.46h15.16a.73.73 0 0 1 0 1.46zm0 6.23H42.42a.73.73 0 0 1 0-1.46h15.16a.73.73 0 0 1 0 1.46zm0 6.22H42.42a.73.73 0 0 1 0-1.45h15.16a.73.73 0 0 1 0 1.45zM45.3 45.25a.72.72 0 1 1-1.44 0V43.8h-1.44a.73.73 0 0 1 0-1.46h1.44v-1.46a.72.72 0 1 1 1.44 0v1.46h1.44a.73.73 0 0 1 0 1.46H45.3z"/>
    <path fill="#000000" d="M55.88 44.1a1.42 1.42 0 0 0 1 .42h4.76l-6.2-6.25v4.8a1.44 1.44 0 0 0 .44 1.03zM37.24 64.44a30.74 30.74 0 0 0 12.54 9.07.61.61 0 0 0 .46 0 30.77 30.77 0 0 0 12.43-9V46h-5.78a2.84 2.84 0 0 1-2-.85 2.89 2.89 0 0 1-.89-2.08v-5.83H38.67a1.44 1.44 0 0 0-1.43 1.45zm32.82-37.36a.62.62 0 0 0-.62-.62H30.57a.62.62 0 0 0-.62.62v17.29a31.45 31.45 0 0 0 5.85 18.19V38.69a2.9 2.9 0 0 1 2.88-2.91h16.05a.67.67 0 0 1 .28.06.61.61 0 0 1 .23.15l8.66 8.75a.77.77 0 0 1 .21.51v17.44a31.46 31.46 0 0 0 6-18.32zm-6.27 38.37a32.22 32.22 0 0 1-13.06 9.42A2.15 2.15 0 0 1 50 75a2.22 2.22 0 0 1-.71-.13 32.17 32.17 0 0 1-13-9.34.73.73 0 0 1-.46-.53 32.93 32.93 0 0 1-7.33-20.63V27.08A2.07 2.07 0 0 1 30.57 25h38.87a2.07 2.07 0 0 1 2.06 2.07v17.3a32.92 32.92 0 0 1-7.45 20.77.71.71 0 0 1-.26.31z"/>
  </g>
</svg>
