<svg xmlns="http://www.w3.org/2000/svg" xmlns:xlink="http://www.w3.org/1999/xlink" width="1904" height="369" viewBox="0 0 1904 369"><defs><style>.cls-1,.cls-12,.cls-21,.cls-22,.cls-23,.cls-32,.cls-33,.cls-7,.cls-8{fill:none;}.cls-2{isolation:isolate;}.cls-3{clip-path:url(#clip-path);}.cls-4{fill:#f2fafc;}.cls-5{fill:#91b0bf;}.cls-6{fill:#d1e2e5;}.cls-22,.cls-33,.cls-7{stroke:#0a3360;}.cls-10,.cls-12,.cls-21,.cls-23,.cls-32,.cls-33,.cls-7,.cls-8{stroke-miterlimit:10;}.cls-7,.cls-8{stroke-width:0.7px;}.cls-8{stroke:#91b0bf;}.cls-10,.cls-9{fill:#fff;}.cls-10,.cls-12{stroke:#fff;}.cls-11{fill:#ffcc8f;}.cls-13{fill:#efab00;}.cls-14{fill:#0a3360;}.cls-15{fill:#4ebee5;}.cls-16,.cls-17{fill:#08caa9;}.cls-17{opacity:0.5;}.cls-17,.cls-30,.cls-35{mix-blend-mode:multiply;}.cls-18{clip-path:url(#clip-path-2);}.cls-19{fill:#75929e;}.cls-20{fill:#2e386b;}.cls-21{stroke:#003360;}.cls-21,.cls-22,.cls-23,.cls-32,.cls-33{stroke-width:0.5px;}.cls-22,.cls-32,.cls-33{stroke-linecap:round;}.cls-22{stroke-linejoin:round;}.cls-23{stroke:#efab00;}.cls-24{fill:#ff527b;}.cls-25{fill:#d3466f;}.cls-26{fill:#c05711;}.cls-27{clip-path:url(#clip-path-3);}.cls-28,.cls-30{fill:#007cb9;}.cls-29{clip-path:url(#clip-path-4);}.cls-30,.cls-35{opacity:0.3;}.cls-31{fill:#f49d62;}.cls-32{stroke:#d87d4a;}.cls-34{fill:#d87d4a;}.cls-35,.cls-36{fill:#067462;}</style><clipPath id="clip-path"><rect class="cls-1" width="1904" height="369"/></clipPath><clipPath id="clip-path-2"><path class="cls-1" d="M61.2,222.25h79.11a33.66,33.66,0,0,1,28.6,15.91l25.53,41.14,23,16.54a41,41,0,0,1,17,33.26V334a5.79,5.79,0,0,1-1.79,4.19l-5.7,5.44a5.79,5.79,0,0,1-4,1.6H61.2v-123"/></clipPath><clipPath id="clip-path-3"><path class="cls-1" d="M1824.56,55.59l3.23-9a6.6,6.6,0,0,0-6.37-8.83h-.18a8.48,8.48,0,0,0-8.26,7.8l-.48,6.08a3.29,3.29,0,0,0,1.65,3.11l1.48.84Z"/></clipPath><clipPath id="clip-path-4"><path class="cls-1" d="M1829.81,54.38h2.42a6.11,6.11,0,0,1,5.87,4.42l3.69,12.8a8.11,8.11,0,0,1-3.24,9l-4,2.7Z"/></clipPath></defs><title>18B40000.H_BQX_Hero-Images_FINAL</title><g class="cls-2"><g id="_01" data-name="01"><g class="cls-3"><rect class="cls-4" width="1904" height="369"/><path class="cls-5" d="M1173.19,137H1409a0,0,0,0,1,0,0V361.5a0,0,0,0,1,0,0H1167.5a0,0,0,0,1,0,0V142.69A5.69,5.69,0,0,1,1173.19,137Z"/><rect class="cls-5" x="1712" width="192" height="361.5"/><rect class="cls-6" x="1409" width="303" height="361.5"/><rect class="cls-7" x="1176.33" y="327" width="153.33" height="24.33"/><rect class="cls-8" x="1418.69" y="327" width="91.59" height="24.33"/><rect class="cls-8" x="1610.72" y="327" width="91.59" height="24.33"/><rect class="cls-9" x="1442.15" y="55.86" width="117.92" height="64.94" transform="translate(1589.45 -1412.78) rotate(90)"/><rect class="cls-9" x="1560.93" y="55.86" width="117.92" height="64.94" transform="translate(1708.22 -1531.55) rotate(90)"/><rect class="cls-10" x="1475.05" y="92.49" width="52.12" height="12.82"/><rect class="cls-11" x="1475.05" y="35.78" width="52.12" height="105.1"/><line class="cls-12" x1="1475.05" y1="98.9" x2="1527.17" y2="98.9"/><rect class="cls-11" x="1593.83" y="35.78" width="52.12" height="105.1"/><line class="cls-12" x1="1593.83" y1="98.9" x2="1645.95" y2="98.9"/><rect class="cls-13" x="1475.05" y="35.78" width="52.12" height="27.46"/><rect class="cls-13" x="1593.83" y="35.78" width="52.12" height="27.46"/><rect class="cls-9" x="1726.5" y="209.5" width="177.5" height="152"/><polygon class="cls-11" points="1731.5 318.33 1731.5 214.5 1904 214.5 1904 285.5 1904 318.33 1731.5 318.33"/><rect class="cls-9" x="1418.69" y="210" width="91.59" height="108.33"/><rect class="cls-11" x="1415.32" y="223.37" width="98.33" height="81.59" transform="translate(1728.66 -1200.32) rotate(90)"/><rect class="cls-9" x="1610.72" y="210" width="91.59" height="108.33"/><rect class="cls-11" x="1607.35" y="223.37" width="98.33" height="81.59" transform="translate(1920.68 -1392.34) rotate(90)"/><rect class="cls-9" x="1525.43" y="210" width="70.15" height="151.5"/><rect class="cls-11" x="1489.75" y="255.68" width="141.5" height="60.15" transform="translate(1846.25 -1274.75) rotate(90)"/><path class="cls-14" d="M193.94,323.41h-7.87c-7.23,0-13.1,8.51-13.1,19s5.86,19,13.1,19h7.87c7.23,0,13.1-8.51,13.1-19S201.18,323.41,193.94,323.41Z"/><path class="cls-15" d="M186.07,334c-4.35,0-8,4.59-8.66,10.61a18.41,18.41,0,0,1-.13-2.15c0-7,3.94-12.76,8.79-12.76s8.79,5.71,8.79,12.76a18.41,18.41,0,0,1-.13,2.15C194,338.55,190.42,334,186.07,334Z"/><circle class="cls-14" cx="24.84" cy="342.26" r="19.24"/><path class="cls-16" d="M61.2,222.25h79.11a33.66,33.66,0,0,1,28.6,15.91l25.53,41.14,23,16.54a41,41,0,0,1,17,33.26V334a5.79,5.79,0,0,1-1.79,4.19l-5.7,5.44a5.79,5.79,0,0,1-4,1.6H61.2v-123"/><path class="cls-17" d="M61.2,222.25h79.11a33.66,33.66,0,0,1,28.6,15.91l25.53,41.14,23,16.54a41,41,0,0,1,17,33.26V334a5.79,5.79,0,0,1-1.79,4.19l-5.7,5.44a5.79,5.79,0,0,1-4,1.6H61.2v-123"/><g class="cls-18"><path class="cls-13" d="M244.74,315h-17a3.54,3.54,0,0,1-3.4-2.55h25.54A6.56,6.56,0,0,1,244.74,315Z"/><path class="cls-9" d="M227.48,307.91l.31,0H248.5a2.37,2.37,0,0,1,2.13,3.41h0a6.56,6.56,0,0,1-.7,1.12H224.39a3.53,3.53,0,0,1,3.09-4.52Z"/></g><rect class="cls-14" x="117.77" y="319.8" width="49.29" height="25.44"/><rect class="cls-14" x="-47.95" y="319.8" width="49.29" height="25.44"/><path class="cls-16" d="M193.44,331.76l-1-8.61a30.56,30.56,0,0,0-14.89-22.69L142,279.65a2.75,2.75,0,0,1-.95-.92l-25.17-40.56a33.66,33.66,0,0,0-28.6-15.91H-56.88a14.49,14.49,0,0,0-8.35,2.64,14.5,14.5,0,0,0-5.86,8.84l-10.7,50-.09,58.75a2.75,2.75,0,0,0,2.75,2.75h32a2.8,2.8,0,0,0,2.79-2.8v0a21.1,21.1,0,0,1,21.1-21.1,21.1,21.1,0,0,1,21.1,21.1v0a2.8,2.8,0,0,0,2.79,2.8H118.44a2.8,2.8,0,0,0,2.79-2.8v0a21.1,21.1,0,0,1,42.21,0v0a2.8,2.8,0,0,0,2.79,2.8H181a9.52,9.52,0,0,0,6.57-2.63l3-2.82A9.52,9.52,0,0,0,193.44,331.76Z"/><path class="cls-14" d="M146.35,323.41h-7.87c-7.23,0-13.1,8.51-13.1,19s5.86,19,13.1,19h7.87c7.23,0,13.1-8.51,13.1-19S153.58,323.41,146.35,323.41Z"/><ellipse class="cls-6" cx="138.47" cy="342.42" rx="8.79" ry="12.76"/><path class="cls-14" d="M131.17,274.4l-21-35.32a18.17,18.17,0,0,0-15.61-8.87H69.33a4.26,4.26,0,0,0-4.26,4.26v42a2.85,2.85,0,0,0,2.85,2.85h60.46A3.24,3.24,0,0,0,131.17,274.4Z"/><path class="cls-19" d="M131.78,276.32a3.08,3.08,0,0,0-3.08-3.08h0a3.76,3.76,0,0,1-3.7-3.76,4.12,4.12,0,0,0-4.12-4.12h-8.65a5.13,5.13,0,0,0-5.13,5.13v4.59a4.32,4.32,0,0,0,4.32,4.32h17.35A3.08,3.08,0,0,0,131.78,276.32Z"/><rect class="cls-20" x="65.07" y="285.63" width="2.9" height="12.58" rx="1.45" ry="1.45"/><path class="cls-14" d="M230.88,333.3H196.56l-1.27-10.59c-.32-2.64,2-4.95,5-4.95h24.15a4.87,4.87,0,0,1,5,4Z"/><path class="cls-13" d="M179.73,315h17a3.54,3.54,0,0,0,3.4-2.55H174.54A6.56,6.56,0,0,0,179.73,315Z"/><path class="cls-9" d="M197,307.91l-.31,0H176a2.37,2.37,0,0,0-2.13,3.41h0a6.56,6.56,0,0,0,.7,1.12h25.54a3.53,3.53,0,0,0-3.09-4.52Z"/><rect class="cls-21" x="-46.71" y="228.45" width="99.94" height="61.89" rx="4.68" ry="4.68"/><path class="cls-14" d="M186.17,266l-17.25-27.8a33.63,33.63,0,0,0-6.87-8h-41.9a5.13,5.13,0,0,0-4.32,7.87l.06.09,9.39,15.14C142.11,262.37,163.15,268.58,186.17,266Z"/><path class="cls-14" d="M145.08,279.3h49.36L186.17,266c-23,2.61-44.06-3.59-60.9-12.67l14.2,22.88A6.6,6.6,0,0,0,145.08,279.3Z"/><rect class="cls-6" x="181.5" y="342.42" width="48.13" height="5.08" rx="2.54" ry="2.54"/><rect class="cls-9" x="1823.17" y="257.01" width="26.55" height="10.93" rx="1.74" ry="1.74"/><path class="cls-16" d="M1826.18,262.72a3.11,3.11,0,0,1,.13-.94,2,2,0,0,1,.38-.7,1.63,1.63,0,0,1,.61-.44,2.3,2.3,0,0,1,1.67,0,1.66,1.66,0,0,1,.61.46,1.93,1.93,0,0,1,.36.7,3.25,3.25,0,0,1,.12.91,3.11,3.11,0,0,1-.13.94,1.93,1.93,0,0,1-.38.7,1.66,1.66,0,0,1-.61.44,2.1,2.1,0,0,1-.82.15,2.07,2.07,0,0,1-.86-.16,1.63,1.63,0,0,1-.6-.46,2,2,0,0,1-.36-.7A3.27,3.27,0,0,1,1826.18,262.72Zm.65,0a2.66,2.66,0,0,0,.08.65,1.68,1.68,0,0,0,.23.54,1.15,1.15,0,0,0,.4.37,1.3,1.3,0,0,0,1.52-.27,2,2,0,0,0,.35-1.28,2.63,2.63,0,0,0-.08-.65,1.68,1.68,0,0,0-.23-.54,1.12,1.12,0,0,0-1-.51,1.16,1.16,0,0,0-.94.42A2,2,0,0,0,1826.83,262.72Z"/><path class="cls-16" d="M1832.75,260.61a4.13,4.13,0,0,1,.56-.08l.6,0a3.8,3.8,0,0,1,.64.06,1.83,1.83,0,0,1,.59.2,1.15,1.15,0,0,1,.6,1.08,1.33,1.33,0,0,1-.15.66,1.29,1.29,0,0,1-.41.45,1.78,1.78,0,0,1-.58.25,2.86,2.86,0,0,1-.68.08h-.55v1.61h-.61Zm1.18.44h-.32l-.24,0v1.63l.1,0h.4a2.81,2.81,0,0,0,.44,0,1.17,1.17,0,0,0,.39-.13.76.76,0,0,0,.28-.27.86.86,0,0,0,.11-.46.71.71,0,0,0-.1-.4.75.75,0,0,0-.27-.25,1.15,1.15,0,0,0-.37-.12A2.52,2.52,0,0,0,1833.93,261.05Z"/><path class="cls-16" d="M1838.07,260.57h2.6v.54h-2v1.3h1.81v.54h-1.81v1.38h2v.54h-2.63Z"/><path class="cls-16" d="M1844.36,262.14l-.37-.6h0l.07.6v2.74h-.58v-4.37h.34l2.2,2.79.35.57h0l-.07-.57v-2.73h.58v4.37h-.34Z"/><polyline class="cls-22" points="1838.71 257.3 1836.44 253.56 1834.17 257.3"/><circle class="cls-14" cx="1836.44" cy="252.63" r="0.41"/><rect class="cls-13" x="1752.71" y="306.96" width="72.1" height="3.14"/><rect class="cls-13" x="1764.61" y="310.1" width="2.89" height="8.24"/><rect class="cls-13" x="1810.01" y="310.1" width="2.89" height="8.24"/><path class="cls-13" d="M1834.83,297h0a2.65,2.65,0,0,0-2.59,2.07l-4.31,19.28h9.55v-18.7A2.65,2.65,0,0,0,1834.83,297Z"/><path class="cls-13" d="M1742.68,297h0a2.65,2.65,0,0,1,2.59,2.07l4.31,19.28H1740v-18.7A2.65,2.65,0,0,1,1742.68,297Z"/><rect class="cls-13" x="1861.54" y="306.96" width="72.1" height="3.14"/><rect class="cls-13" x="1873.44" y="310.1" width="2.89" height="8.24"/><path class="cls-13" d="M1851.52,297h0a2.65,2.65,0,0,1,2.59,2.07l4.31,19.28h-9.55v-18.7A2.65,2.65,0,0,1,1851.52,297Z"/><path class="cls-13" d="M1789,307h-.57a4.62,4.62,0,0,1-4.4-6l2.38-7.42h4.62l2.38,7.42A4.62,4.62,0,0,1,1789,307Z"/><circle class="cls-13" cx="1788.76" cy="284.8" r="3.25"/><path class="cls-13" d="M1788.76,290.37a2.71,2.71,0,0,1-4.6,0,2.71,2.71,0,0,1,4.6,0Z"/><line class="cls-23" x1="1788.76" y1="287.2" x2="1788.76" y2="295.68"/><polygon class="cls-9" points="1324.67 313.33 1181.33 313.33 1181.33 237.33 1176.33 237.33 1176.33 318.33 1329.67 318.33 1329.67 237.33 1324.67 237.33 1324.67 313.33"/><rect class="cls-11" x="1181.33" y="237.33" width="143.33" height="76"/><polygon class="cls-9" points="1395.5 356.5 1345.91 356.5 1345.91 237.33 1340.91 237.33 1340.91 361.5 1400.5 361.5 1400.5 237.33 1395.5 237.33 1395.5 356.5"/><rect class="cls-11" x="1345.91" y="237.33" width="49.59" height="119.17"/><polygon class="cls-14" points="1409 166.78 1172.5 166.78 1167.5 171.97 1167.5 237.33 1176.33 237.33 1176.33 209.5 1329.67 209.5 1329.67 237.33 1340.91 237.33 1340.91 209.5 1400.5 209.5 1400.5 237.33 1409 237.33 1409 166.78"/><polygon class="cls-5" points="1176.33 209.5 1176.33 237.33 1181.33 237.33 1181.33 214.5 1324.67 214.5 1324.67 237.33 1329.67 237.33 1329.67 209.5 1176.33 209.5"/><rect class="cls-13" x="1181.33" y="214.5" width="143.33" height="22.83"/><polygon class="cls-5" points="1340.91 209.5 1340.91 237.33 1345.91 237.33 1345.91 214.5 1395.5 214.5 1395.5 237.33 1400.5 237.33 1400.5 209.5 1340.91 209.5"/><rect class="cls-13" x="1345.91" y="214.5" width="49.59" height="22.83"/><rect class="cls-9" x="1340.91" y="292.5" width="59.59" height="8.83"/><rect class="cls-5" x="1373.25" y="296.17" width="22.12" height="2" rx="1" ry="1"/><rect class="cls-14" x="1571.94" y="286.83" width="22.12" height="2" rx="1" ry="1" transform="translate(1870.83 -1295.17) rotate(90)"/><rect class="cls-13" x="1181.33" y="304.92" width="143.33" height="8.41"/><rect class="cls-13" x="1423.69" y="304.92" width="81.59" height="8.41"/><rect class="cls-13" x="1615.72" y="304.92" width="81.59" height="8.41"/><polygon class="cls-24" points="1188.47 166.78 1171.5 166.78 1120.33 219.77 1137.3 219.77 1188.47 166.78"/><polygon class="cls-9" points="1205.45 166.78 1188.47 166.78 1137.3 219.77 1154.28 219.77 1205.45 166.78"/><polygon class="cls-24" points="1222.42 166.78 1205.45 166.78 1154.28 219.77 1171.25 219.77 1222.42 166.78"/><polygon class="cls-9" points="1239.39 166.78 1222.42 166.78 1171.25 219.77 1188.22 219.77 1239.39 166.78"/><polygon class="cls-24" points="1256.36 166.78 1239.39 166.78 1188.22 219.77 1205.19 219.77 1256.36 166.78"/><polygon class="cls-9" points="1273.33 166.78 1256.36 166.78 1205.19 219.77 1222.16 219.77 1273.33 166.78"/><polygon class="cls-24" points="1290.3 166.78 1273.33 166.78 1222.16 219.77 1239.13 219.77 1290.3 166.78"/><polygon class="cls-9" points="1307.27 166.78 1290.3 166.78 1239.13 219.77 1256.1 219.77 1307.27 166.78"/><polygon class="cls-24" points="1324.24 166.78 1307.27 166.78 1256.1 219.77 1273.07 219.77 1324.24 166.78"/><polygon class="cls-9" points="1341.21 166.78 1324.24 166.78 1273.07 219.77 1290.05 219.77 1341.21 166.78"/><polygon class="cls-24" points="1358.19 166.78 1341.21 166.78 1290.05 219.77 1307.02 219.77 1358.19 166.78"/><polygon class="cls-9" points="1375.16 166.78 1358.19 166.78 1307.02 219.77 1323.99 219.77 1375.16 166.78"/><polygon class="cls-24" points="1392.13 166.78 1375.16 166.78 1323.99 219.77 1340.96 219.77 1392.13 166.78"/><polygon class="cls-9" points="1409.1 166.78 1392.13 166.78 1340.96 219.77 1357.93 219.77 1409.1 166.78"/><path class="cls-25" d="M1120.33,219.77h17a0,0,0,0,1,0,0v1a8.49,8.49,0,0,1-8.49,8.49h0a8.49,8.49,0,0,1-8.49-8.49v-1a0,0,0,0,1,0,0Z"/><path class="cls-6" d="M1137.3,219.77h17a0,0,0,0,1,0,0v1a8.49,8.49,0,0,1-8.49,8.49h0a8.49,8.49,0,0,1-8.49-8.49v-1A0,0,0,0,1,1137.3,219.77Z"/><path class="cls-25" d="M1154.28,219.77h17a0,0,0,0,1,0,0v1a8.49,8.49,0,0,1-8.49,8.49h0a8.49,8.49,0,0,1-8.49-8.49v-1A0,0,0,0,1,1154.28,219.77Z"/><path class="cls-6" d="M1171.25,219.77h17a0,0,0,0,1,0,0v1a8.49,8.49,0,0,1-8.49,8.49h0a8.49,8.49,0,0,1-8.49-8.49v-1A0,0,0,0,1,1171.25,219.77Z"/><path class="cls-25" d="M1188.22,219.77h17a0,0,0,0,1,0,0v1a8.49,8.49,0,0,1-8.49,8.49h0a8.49,8.49,0,0,1-8.49-8.49v-1A0,0,0,0,1,1188.22,219.77Z"/><path class="cls-6" d="M1205.19,219.77h17a0,0,0,0,1,0,0v1a8.49,8.49,0,0,1-8.49,8.49h0a8.49,8.49,0,0,1-8.49-8.49v-1A0,0,0,0,1,1205.19,219.77Z"/><path class="cls-25" d="M1222.16,219.77h17a0,0,0,0,1,0,0v1a8.49,8.49,0,0,1-8.49,8.49h0a8.49,8.49,0,0,1-8.49-8.49v-1A0,0,0,0,1,1222.16,219.77Z"/><path class="cls-6" d="M1239.13,219.77h17a0,0,0,0,1,0,0v1a8.49,8.49,0,0,1-8.49,8.49h0a8.49,8.49,0,0,1-8.49-8.49v-1a0,0,0,0,1,0,0Z"/><path class="cls-25" d="M1256.1,219.77h17a0,0,0,0,1,0,0v1a8.49,8.49,0,0,1-8.49,8.49h0a8.49,8.49,0,0,1-8.49-8.49v-1A0,0,0,0,1,1256.1,219.77Z"/><path class="cls-6" d="M1273.07,219.77h17a0,0,0,0,1,0,0v1a8.49,8.49,0,0,1-8.49,8.49h0a8.49,8.49,0,0,1-8.49-8.49v-1A0,0,0,0,1,1273.07,219.77Z"/><path class="cls-25" d="M1290,219.77h17a0,0,0,0,1,0,0v1a8.49,8.49,0,0,1-8.49,8.49h0a8.49,8.49,0,0,1-8.49-8.49v-1A0,0,0,0,1,1290,219.77Z"/><path class="cls-6" d="M1307,219.77h17a0,0,0,0,1,0,0v1a8.49,8.49,0,0,1-8.49,8.49h0a8.49,8.49,0,0,1-8.49-8.49v-1A0,0,0,0,1,1307,219.77Z"/><path class="cls-25" d="M1324,219.77h17a0,0,0,0,1,0,0v1a8.49,8.49,0,0,1-8.49,8.49h0a8.49,8.49,0,0,1-8.49-8.49v-1a0,0,0,0,1,0,0Z"/><path class="cls-6" d="M1341,219.77h17a0,0,0,0,1,0,0v1a8.49,8.49,0,0,1-8.49,8.49h0a8.49,8.49,0,0,1-8.49-8.49v-1A0,0,0,0,1,1341,219.77Z"/><path class="cls-13" d="M1192.89,290.59h30a1.7,1.7,0,0,1,1.7,1.7v12.64a0,0,0,0,1,0,0h-33.42a0,0,0,0,1,0,0V292.29A1.7,1.7,0,0,1,1192.89,290.59Z"/><path class="cls-13" d="M1200.41,282.82h15a1.7,1.7,0,0,1,1.7,1.7v6.07a0,0,0,0,1,0,0h-18.38a0,0,0,0,1,0,0v-6.07A1.7,1.7,0,0,1,1200.41,282.82Z"/><path class="cls-13" d="M1204.26,276.49h7.28a1.7,1.7,0,0,1,1.7,1.7v4.64a0,0,0,0,1,0,0h-10.68a0,0,0,0,1,0,0v-4.64A1.7,1.7,0,0,1,1204.26,276.49Z"/><path class="cls-13" d="M1283.09,292.89h30a1.7,1.7,0,0,1,1.7,1.7v10.34a0,0,0,0,1,0,0h-33.42a0,0,0,0,1,0,0V294.59A1.7,1.7,0,0,1,1283.09,292.89Z"/><path class="cls-13" d="M1289.39,285.12h17.41a1.7,1.7,0,0,1,1.7,1.7v6.07a0,0,0,0,1,0,0h-20.8a0,0,0,0,1,0,0v-6.07A1.7,1.7,0,0,1,1289.39,285.12Z"/><path class="cls-13" d="M1240.57,285.78h24.87a3.88,3.88,0,0,1,3.88,3.88V300a0,0,0,0,1,0,0h-32.63a0,0,0,0,1,0,0V289.67A3.88,3.88,0,0,1,1240.57,285.78Z"/><rect class="cls-13" x="1234.15" y="300" width="37.7" height="1.34" rx="0.67" ry="0.67"/><rect class="cls-13" x="1250.48" y="301.34" width="5.04" height="3.58"/><circle class="cls-13" cx="1246.25" cy="284.3" r="1.48"/><circle class="cls-13" cx="1253" cy="284.3" r="1.48"/><circle class="cls-13" cx="1259.75" cy="284.3" r="1.48"/><rect class="cls-6" y="361.5" width="1904" height="7.5"/><rect class="cls-9" x="1727.99" y="-32.47" width="117.92" height="64.94" transform="translate(1786.95 -1786.95) rotate(90)"/><rect class="cls-9" x="1846.76" y="-32.47" width="117.92" height="64.94" transform="translate(1905.72 -1905.72) rotate(90)"/><rect class="cls-10" x="1760.88" y="4.15" width="52.12" height="12.82"/><rect class="cls-11" x="1760.88" y="-52.55" width="52.12" height="105.1"/><line class="cls-12" x1="1760.88" y1="10.56" x2="1813.01" y2="10.56"/><rect class="cls-11" x="1879.66" y="-56.71" width="52.12" height="105.1"/><line class="cls-12" x1="1879.66" y1="6.41" x2="1931.78" y2="6.41"/><polygon class="cls-14" points="1799.89 46.19 1792.29 38.59 1793.13 37.75 1796.52 39.19 1801.71 44.38 1799.89 46.19"/><rect class="cls-5" x="1789.69" y="40.36" width="2" height="16.29" transform="translate(558.78 -1252) rotate(45)"/><rect class="cls-14" x="1806.89" y="44.69" width="10.87" height="1.1"/><path class="cls-26" d="M1824.56,55.59l3.23-9a6.6,6.6,0,0,0-6.37-8.83h-.18a8.48,8.48,0,0,0-8.26,7.8l-.48,6.08a3.29,3.29,0,0,0,1.65,3.11l1.48.84Z"/><g class="cls-27"><path class="cls-14" d="M1815.68,44.35v4.44a.71.71,0,0,0,.71.71h.84l.72,2.2v.87a3,3,0,0,0,2,2.81l.62.23H1827l3.64-11.25Z"/></g><ellipse class="cls-1" cx="1818" cy="50.23" rx="1.59" ry="1.81"/><path class="cls-28" d="M1821.42,37.75h-.18a8.48,8.48,0,0,0-8.26,7.8l0,.23h15A6.6,6.6,0,0,0,1821.42,37.75Z"/><path class="cls-28" d="M1829.81,54.38h2.42a6.11,6.11,0,0,1,5.87,4.42l3.69,12.8a8.11,8.11,0,0,1-3.24,9l-4,2.7Z"/><g class="cls-29"><polygon class="cls-30" points="1837.81 81.47 1832.25 62.25 1841.83 78.61 1837.81 81.47"/></g><path class="cls-14" d="M1814.29,169.05a1.09,1.09,0,0,1-.69,1.07l-4.66,1.84a1.5,1.5,0,0,0-.95,1.39v.31l15.63.09.76-15.38h-10.66Z"/><path class="cls-28" d="M1811.5,54.38h0a7.4,7.4,0,0,0-6.77,4.43l-5.5,12.56L1792.08,56l-5.24,2.3,5.35,22a6.49,6.49,0,0,0,11.4,2.48L1812,72.08Z"/><path class="cls-28" d="M1841.07,96.27a44.31,44.31,0,0,0-1.71-9.55l-9.55-32.35H1811.5l-1.26,19.94V91.58l3.49,66.79h10.66l2.41-48.88,7.31,48.88h11.17Z"/><polygon class="cls-28" points="1846.33 173.83 1846.32 173.67 1831.83 173.67 1846.33 173.83"/><path class="cls-14" d="M1834.11,158.38l1.69,11.29a1.09,1.09,0,0,1-.63,1.39l-2.34.9a1.56,1.56,0,0,0-1,1.46v.26h14.49l-1-15.29Z"/><path class="cls-26" d="M1786.83,58.25l-.75-2.75-2.22-1.57a1.38,1.38,0,0,1-.34-1.91l1.28-1.85a2,2,0,0,1,2.29-.72l3.55,1.34a2.22,2.22,0,0,1,1.44,2.09V56Z"/><polygon class="cls-30" points="1810.24 74.31 1814.1 69.56 1810.24 86.17 1810.24 74.31"/><path class="cls-9" d="M1468.42,273.91l-8.81-22.53a5.83,5.83,0,0,0-4.51-3.63l-4.79-.77-.66,2.82-6.78-2.09-4.53,13.91V285h21.76l-1.25-11.42Z"/><polygon class="cls-6" points="1457.02 263.23 1455.9 255.31 1459.12 263.23 1457.02 263.23"/><path class="cls-9" d="M1442.86,247.71l-3.28,1.09a10.47,10.47,0,0,0-7.16,9.93V269.3l11.8-3.89Z"/><path class="cls-31" d="M1442.94,244.15l-5.05-8.05a7.06,7.06,0,0,1,1.86-9.48h0a8.31,8.31,0,0,1,12.37,3.22l3.39,7.24a4.1,4.1,0,0,1-1.44,5.16l-2.88,1.92.35,3.93a1.6,1.6,0,0,1-2.07,1.67l-6.62-2Z"/><path class="cls-16" d="M1439.75,226.62a7.06,7.06,0,0,0-1.86,9.48l2.05,3.27,12.19-9.5v0A8.31,8.31,0,0,0,1439.75,226.62Z"/><circle class="cls-24" cx="1470.81" cy="262.24" r="2.97"/><circle class="cls-24" cx="1460.04" cy="261.85" r="2.97"/><circle class="cls-24" cx="1465.3" cy="263.71" r="2.97"/><circle class="cls-24" cx="1454.85" cy="263.23" r="2.97"/><circle class="cls-24" cx="1476.17" cy="262.82" r="2.97"/><circle class="cls-24" cx="1481.4" cy="261.85" r="2.97"/><rect class="cls-5" x="1449.88" y="263.23" width="32.81" height="14.99"/><rect class="cls-6" x="1474" y="263.23" width="11.05" height="14.99"/><rect class="cls-14" x="1476.75" y="265.95" width="6.03" height="1.09" rx="0.55" ry="0.55"/><rect class="cls-14" x="1431.18" y="233.9" width="29.82" height="0.96" transform="translate(159.96 935.79) rotate(-37.81)"/><circle class="cls-14" cx="1448.16" cy="234.71" r="0.71"/><circle class="cls-14" cx="1452.02" cy="233.9" r="0.71"/><path class="cls-32" d="M1450.43,234.61l1.93,1.51a.42.42,0,0,1,0,.66l-1.07.77"/><path class="cls-33" d="M1448.48,238.91c.36.66,1,1,2.22.91"/><path class="cls-14" d="M1442.94,244.15l.42-.13a2.38,2.38,0,0,0,1.64-2.66l-.31-1.86,1.25-.13-.38-4-5.46,4.24Z"/><ellipse class="cls-31" cx="1444.35" cy="239.37" rx="1.89" ry="1.83"/><polygon class="cls-34" points="1451.19 244.15 1449.25 245.28 1451.42 246.69 1451.19 244.15"/><path class="cls-31" d="M1485.1,278.95h-2.38a.7.7,0,0,1-.7-.7v-4.19a1.32,1.32,0,0,1,.88-1.24l1.73-.61a1,1,0,0,1,1.34.95v4.93A.87.87,0,0,1,1485.1,278.95Z"/><polygon class="cls-16" points="1450.79 322.83 1438.33 288.23 1436.88 321.53 1433.27 328.04 1442.48 333.83 1450.79 322.83"/><path class="cls-14" d="M1427.25,361.5h5.05v-.36a1.91,1.91,0,0,0-1.11-1.73l-1.24-.57-2.34-4.11,14.87-20.9-9.22-5.79-14.09,25.39Z"/><polygon class="cls-35" points="1438.33 288.23 1450.79 322.83 1437.31 306.17 1438.33 288.23"/><path class="cls-16" d="M1460.09,285h-21.76v4.15a20.66,20.66,0,0,0,1.63,8L1455.08,333l12.61-3.15Z"/><path class="cls-14" d="M1478.85,356.36l-.27-.85a1.23,1.23,0,0,0-1.32-.85l-5.26.62-4.31-25.42L1455.08,333l12,28.48Z"/><path class="cls-31" d="M1438.51,279.82h35.24a2.18,2.18,0,0,0,2-1.43l.33-.89a.81.81,0,0,0-.56-1.06l-5.78-1.46a.58.58,0,0,1-.15-1.06l1.74-1a.92.92,0,0,0-.76-1.66l-5.1,1.72-21.87-1.88.6-5.65h-11.8v8.32A6.08,6.08,0,0,0,1438.51,279.82Z"/><path class="cls-36" d="M1479.43,257.37a2.43,2.43,0,0,1-2.57,2.57,2.43,2.43,0,0,1,2.57-2.57Z"/><path class="cls-36" d="M1469.13,260.74a2.43,2.43,0,0,1-2.57-2.57,2.43,2.43,0,0,1,2.57,2.57Z"/><path class="cls-36" d="M1473.78,259.27a2.43,2.43,0,1,1,.82-1.82A2.93,2.93,0,0,1,1473.78,259.27Z"/><path class="cls-36" d="M1452.71,261.19a2.43,2.43,0,0,1-2.57-2.57,2.43,2.43,0,0,1,2.57,2.57Z"/><path class="cls-6" d="M1772.28,88.33h.61a.95.95,0,0,1,.95.95V361.5a0,0,0,0,1,0,0h-2.5a0,0,0,0,1,0,0V89.28A.95.95,0,0,1,1772.28,88.33Z"/><path class="cls-6" d="M1796.94,88.33h.61a.95.95,0,0,1,.95.95V361.5a0,0,0,0,1,0,0H1796a0,0,0,0,1,0,0V89.28a.95.95,0,0,1,.95-.95Z"/><path class="cls-6" d="M1885.53,88.33h.61a.95.95,0,0,1,.95.95V361.5a0,0,0,0,1,0,0h-2.5a0,0,0,0,1,0,0V89.28A.95.95,0,0,1,1885.53,88.33Z"/><rect class="cls-6" x="1771.33" y="173.67" width="132.67" height="3.33"/><rect class="cls-6" x="1771.33" y="108.75" width="132.67" height="3.33"/><path class="cls-5" d="M1767.46,359h10.24a1.26,1.26,0,0,1,1.26,1.26v1.24a0,0,0,0,1,0,0h-12.75a0,0,0,0,1,0,0v-1.24A1.26,1.26,0,0,1,1767.46,359Z"/><path class="cls-5" d="M1792.46,359h10.24a1.26,1.26,0,0,1,1.26,1.26v1.24a0,0,0,0,1,0,0h-12.75a0,0,0,0,1,0,0v-1.24A1.26,1.26,0,0,1,1792.46,359Z"/><path class="cls-5" d="M1880.71,359H1891a1.26,1.26,0,0,1,1.26,1.26v1.24a0,0,0,0,1,0,0h-12.75a0,0,0,0,1,0,0v-1.24A1.26,1.26,0,0,1,1880.71,359Z"/><rect class="cls-14" x="1795.99" y="177" width="2.5" height="3.46"/><rect class="cls-14" x="1884.58" y="177" width="2.5" height="3.46"/><rect class="cls-14" x="1771.33" y="177" width="2.5" height="3.46"/><rect class="cls-14" x="1795.99" y="112.09" width="2.5" height="3.46"/><rect class="cls-14" x="1884.58" y="112.09" width="2.5" height="3.46"/><rect class="cls-14" x="1771.33" y="112.09" width="2.5" height="3.46"/></g></g></g></svg>