<svg id="Layer_1" data-name="Layer 1" xmlns="http://www.w3.org/2000/svg" viewBox="0 0 100 100"><defs><style>.cls-1{fill:#d1e2e5;}</style></defs><title>18B40000.I_BQX_Icons_Outlined</title><g id="SVGID"><circle class="cls-1" cx="50" cy="50.13" r="25" transform="translate(-5.09 94.6) rotate(-83.99)"/></g><g id="_Group_" data-name="&lt;Group&gt;"><path d="M50,47.1a.8.8,0,0,1,0,1.6H38.37a.8.8,0,1,1,0-1.6Z"/><path d="M59.87,43.76c-.88-1.14-2.28-1.37-3.92-1.4v4.79h6L61.18,46a9.5,9.5,0,0,1-.64-1.1A8.5,8.5,0,0,0,59.87,43.76ZM61.52,57.9A1.93,1.93,0,1,0,59.59,56,1.93,1.93,0,0,0,61.52,57.9ZM38.84,56a1.93,1.93,0,1,0,1.93-1.93A1.93,1.93,0,0,0,38.84,56Zm-5.1-1.34a.6.6,0,0,0,.59.59h3.1a3.42,3.42,0,0,1,6.68,0H58.18a3.42,3.42,0,0,1,6.68,0h1.27a.12.12,0,0,0,.12-.12V50.64a.4.4,0,0,0-.22-.35c-1.78-1-2.52-1.44-2.84-1.64h-8a.76.76,0,0,1-.75-.75V42.35H36a1.23,1.23,0,0,0-1.22,1L34.27,46a8.19,8.19,0,0,1-.23.85,14.87,14.87,0,0,0-.3,3Zm33-5.67a1.87,1.87,0,0,1,1,1.67v4.47a1.63,1.63,0,0,1-1.62,1.62H64.86a3.42,3.42,0,0,1-6.68,0H44.11a3.42,3.42,0,0,1-6.68,0h-3.1a2.1,2.1,0,0,1-2.09-2.09V49.77a16.34,16.34,0,0,1,.37-3.44,4.85,4.85,0,0,0,.19-.68L33.34,43A2.71,2.71,0,0,1,36,40.85H55.2c1.57,0,3.65,0,5.19,1.3a4,4,0,0,1,.66.7,8,8,0,0,1,.81,1.33c.18.34.36.66.55,1l1.53,2.23Z"/></g></svg>