<svg id="Layer_1" data-name="Layer 1" xmlns="http://www.w3.org/2000/svg" viewBox="0 0 100 100"><defs><style>.cls-1{fill:#007cb9;}</style></defs><title>18B40000.I_BQX_Icons_Outlined</title><path class="cls-1" d="M50,58a8,8,0,1,1,8-8A8,8,0,0,1,50,58Zm0-14.45A6.45,6.45,0,1,0,56.45,50,6.46,6.46,0,0,0,50,43.55Zm-.27,7.87a.67.67,0,0,1-.65-.59l-.14-1a.6.6,0,0,1,.56-.73C50.55,48.92,51,48.6,51,48v0c0-.55-.41-.86-1.11-.86a2.25,2.25,0,0,0-1.4.48.93.93,0,0,1-.54.19.86.86,0,0,1-.85-.85.85.85,0,0,1,.32-.65A3.79,3.79,0,0,1,50,45.42c1.74,0,2.93.9,2.93,2.51v0c0,1.54-1.07,2.17-2.39,2.43v.44a.68.68,0,0,1-.65.59Zm0,1.08a1,1,0,0,1,1.05,1v0a1.05,1.05,0,0,1-2.11,0v0A1,1,0,0,1,49.71,52.49Z"/></svg>