<svg id="Layer_1" data-name="Layer 1" xmlns="http://www.w3.org/2000/svg" viewBox="0 0 100 100"><defs><style>.cls-1{fill:#d1e2e5;}</style></defs><title>18B40000.I_BQX_Icons_Outlined</title><circle class="cls-1" cx="50" cy="50.13" r="25"/><path d="M41.74,26.53,63.31,38.36,47.5,47.06,28.83,36.83c-.27.42-.52.85-.76,1.29L46.75,48.36V67.75l-21-11.51c.18.7.38,1.38.62,2.05L47,69.61l.36.2,4-2.21h0l10-5.47,4.26-2.34V37.91l-21.88-12C43.06,26.09,42.39,26.3,41.74,26.53Zm13.89,37-2.73,1.5V56.78l2.73-1.49Zm4.24-2.32-2.74,1.5V54.46L59.86,53Zm4.26-2.34-2.76,1.52v-10l-10,5.46v10l-3.14,1.73V48.36l15.87-8.73Z"/></svg>