<svg id="Layer_1" data-name="Layer 1" xmlns="http://www.w3.org/2000/svg" viewBox="0 0 100 100"><defs><style>.cls-1{fill:#007cb9;}</style></defs><title>18B40000.I_BQX_Icons_Outlined</title><path class="cls-1" d="M50,43a7,7,0,1,0,7,7A7,7,0,0,0,50,43Zm.72,10.22a.92.92,0,0,1-1.84,0v0a.92.92,0,0,1,1.84,0Zm1.85-4.89c0,1.35-.93,1.9-2.09,2.13v.38a.59.59,0,0,1-.57.52h-.08a.58.58,0,0,1-.57-.52l-.12-.91a.52.52,0,0,1,.49-.64c.92-.12,1.35-.4,1.35-.92v0c0-.48-.36-.75-1-.75a2,2,0,0,0-1.23.42.81.81,0,0,1-.48.17.75.75,0,0,1-.74-.74.74.74,0,0,1,.28-.57,3.32,3.32,0,0,1,2.2-.76c1.53,0,2.56.78,2.56,2.19Z"/></svg>