<svg id="Layer_1" data-name="Layer 1" xmlns="http://www.w3.org/2000/svg" viewBox="0 0 100 100"><defs><style>.cls-1{fill:#d1e2e5;}.cls-2{fill:#fff;}</style></defs><title>18B40000.I_BQX_Icons_Outlined</title><circle class="cls-1" cx="50" cy="50.13" r="25"/><path class="cls-2" d="M49.38,46,29.91,35.25c-.38.51-.74,1-1.08,1.59L47.39,47.11Z"/><path class="cls-2" d="M52.88,44.11,32.15,32.63q-.67.69-1.29,1.42L50.93,45.17Z"/><path class="cls-2" d="M56.33,42.22,34.79,30.29c-.52.4-1,.81-1.51,1.25L54.43,43.25Z"/><path class="cls-2" d="M59.89,40.26,38,28.16q-1,.54-1.91,1.16l21.75,12Z"/><path class="cls-2" d="M63.34,38.37,41.85,26.49q-1.11.38-2.17.86L61.45,39.41Z"/><polygon class="cls-2" points="62.18 60.08 64.18 58.99 64.25 39.58 62.25 40.68 62.18 60.08"/><polygon class="cls-2" points="58.69 61.97 60.68 60.89 60.74 41.5 58.76 42.59 58.69 61.97"/><polygon class="cls-2" points="55.15 63.9 57.19 62.79 57.26 43.42 55.22 44.53 55.15 63.9"/><polygon class="cls-2" points="51.62 65.82 53.65 64.72 53.71 45.36 51.68 46.47 51.62 65.82"/><polygon class="cls-2" points="48.15 67.71 50.11 66.64 50.18 47.3 48.22 48.37 48.15 67.71"/><path class="cls-2" d="M46.72,48.46,28.06,38.13a25,25,0,0,0-2.33,18L46.65,67.7Z"/><path d="M41.85,26.49,63.34,38.37l-1.89,1L39.68,27.35c-.56.25-1.1.52-1.64.81l21.85,12.1-2,1.1-21.75-12c-.46.31-.91.63-1.35,1L56.33,42.22l-1.9,1L33.28,31.54q-.58.53-1.13,1.09L52.88,44.11l-2,1.06L30.86,34.05c-.33.39-.64.79-.95,1.19L49.38,46l-2,1.08L28.83,36.83c-.27.42-.52.85-.76,1.29L46.72,48.46,46.65,67.7,25.73,56.14c.17.7.37,1.38.6,2L47.39,69.83l18.29-9.95L65.75,38,43.85,25.89C43.17,26.06,42.51,26.26,41.85,26.49Zm8.26,40.15-2,1.07.07-19.34,2-1.07Zm3.54-1.92-2,1.1.06-19.35,2-1.11Zm3.54-1.93-2,1.11.07-19.37,2-1.11Zm3.49-1.9-2,1.08.07-19.38,2-1.09Zm3.5-1.9-2,1.09.07-19.4,2-1.1Z"/></svg>