<svg xmlns="http://www.w3.org/2000/svg" viewBox="25 25 50 50" preserveAspectRatio="xMinYMin meet">
  <g fill="none">
    <rect id="rect" width="100%" height="100%" />
    <path fill="#000000" d="M52 41.51a.82.82 0 1 1 .81-.82.81.81 0 0 1-.81.82zm0 4.02a.82.82 0 0 1 0-1.64.82.82 0 0 1 0 1.64zm0 4.1A.82.82 0 0 1 52 48a.82.82 0 0 1 0 1.63zm0 3.97a.82.82 0 1 1 .81-.82.82.82 0 0 1-.81.82zm0 4.1a.82.82 0 1 1 .81-.82.82.82 0 0 1-.81.82zm0 4.02a.82.82 0 1 1 .81-.82.82.82 0 0 1-.81.82zm0 4.1a.82.82 0 1 1 .8-.82.82.82 0 0 1-.8.82zm0 3.96a.82.82 0 0 1 0-1.64.82.82 0 0 1 0 1.64zm-4-29.9a.82.82 0 1 1-.81.81.81.81 0 0 1 .81-.81zm0 4.01a.82.82 0 1 1-.81.82.82.82 0 0 1 .81-.82zM48 48a.82.82 0 1 1-.81.82A.81.81 0 0 1 48 48z"/>
    <ellipse fill="#000000" cx="48.01" cy="52.78" rx=".81" ry=".82"/>
    <ellipse fill="#000000" cx="48.01" cy="56.88" rx=".81" ry=".82"/>
    <ellipse fill="#000000" cx="48.01" cy="60.9" rx=".81" ry=".82"/>
    <ellipse fill="#000000" cx="48.01" cy="65" rx=".81" ry=".82"/>
    <path fill="#000000" d="M48 68.14a.82.82 0 1 1-.81.82.82.82 0 0 1 .81-.82zm-9.75-20.05a.73.73 0 0 1 0 1.45h-4a.73.73 0 0 1 0-1.45zm0 3.98a.73.73 0 0 1 0 1.45h-4a.73.73 0 0 1 0-1.45zm0 3.98a.73.73 0 0 1 0 1.45h-4a.73.73 0 0 1 0-1.45z"/>
    <path fill="#000000" d="M38.25 60a.73.73 0 0 1 0 1.45h-3.19a31.29 31.29 0 0 0 7.29 7.85V45.44H30a31.37 31.37 0 0 0 4.18 14.61h.11zm22.55 6.58v-9.19a.72.72 0 1 1 1.44 0v7.67c.62-.7 1.2-1.43 1.75-2.19a.78.78 0 0 1 0-.21v-5.27a.72.72 0 1 1 1.44 0v3.4a31.84 31.84 0 0 0 3.27-7.14h-11v15.68a31.81 31.81 0 0 0 3.1-2.75zm-10.56 6.93a29.64 29.64 0 0 0 3.08-1.41 32.19 32.19 0 0 0 2.88-1.72V38.15a.9.9 0 0 0-.9-.91H44.69a.9.9 0 0 0-.9.91v32.23a30.18 30.18 0 0 0 6 3.13.61.61 0 0 0 .45 0zM50 75a2.22 2.22 0 0 1-.71-.13 32.84 32.84 0 0 1-20.79-30.5V27.08A2.07 2.07 0 0 1 30.57 25h38.87a2.07 2.07 0 0 1 2.06 2.07v17.3a32.84 32.84 0 0 1-20.77 30.5A2.15 2.15 0 0 1 50 75zM30 27.08V44h12.35v-5.85a2.36 2.36 0 0 1 2.34-2.37H55.3a2.36 2.36 0 0 1 2.35 2.37v14H69a30.84 30.84 0 0 0 1-7.82V27.08a.62.62 0 0 0-.62-.62H30.57a.62.62 0 0 0-.57.62z"/>
  </g>
</svg>