<svg xmlns="http://www.w3.org/2000/svg" viewBox="0 0 100 100" preserveAspectRatio="xMinYMin meet">
  <g fill="none">
    <rect id="rect" width="100%" height="100%" />
    <path fill="#000000" d="M44.23 47.91l2.34-.91 2.16-.85-7.28-8.37-1.43 2.41zm-.07 1.59a.63.63 0 0 1-.26 0 .73.73 0 0 1-.64-.38l-4.42-8.24-8.9 1.43v2a31.48 31.48 0 0 0 12.92 25.4l4.81-17.85-1.22-3.26zm8-1.44L50 47.2l-2.2.87 1.13 3H51zM50 45.32l7-8.08H43zm.24 28.19a30.91 30.91 0 0 0 5.71-3l-4.85-18H49l-4.86 18a30 30 0 0 0 5.66 2.92.61.61 0 0 0 .44.08zm8.26-35.77l-7.28 8.38 4.55 1.79 4.16-7.76zm11.56 3.15V27.08a.62.62 0 0 0-.62-.62H30.57a.62.62 0 0 0-.62.62v13.81l8.84-1.42 2-3.34v-.05l.14-.14a.27.27 0 0 1 .1-.06.44.44 0 0 1 .19-.07h17.53a.48.48 0 0 1 .2.07.24.24 0 0 1 .09.06l.14.14v.05l2 3.34zm0 3.48v-2l-8.91-1.43-4.42 8.24a.71.71 0 0 1-.63.38.58.58 0 0 1-.26 0l-2.32-.91-1.16 3.1 4.85 18a31.5 31.5 0 0 0 12.85-25.38zm1.44-17.29v17.29a32.84 32.84 0 0 1-20.77 30.5A2.15 2.15 0 0 1 50 75a2.22 2.22 0 0 1-.71-.13 32.84 32.84 0 0 1-20.79-30.5V27.08A2.07 2.07 0 0 1 30.57 25h38.87a2.07 2.07 0 0 1 2.06 2.08z"/>
  </g>
</svg>