<svg xmlns="http://www.w3.org/2000/svg" xmlns:xlink="http://www.w3.org/1999/xlink" width="633.33" height="358.32" viewBox="0 0 633.33 358.32"><defs><style>.cls-1,.cls-10,.cls-13,.cls-15,.cls-17,.cls-6{fill:none;}.cls-2{isolation:isolate;}.cls-3,.cls-4{fill:#91b0bf;mix-blend-mode:multiply;}.cls-3{opacity:0.1;}.cls-4{opacity:0.2;}.cls-5{fill:#f2fafc;}.cls-6{stroke:#f2fafc;}.cls-10,.cls-15,.cls-17,.cls-6{stroke-miterlimit:10;}.cls-7{fill:#f49d62;}.cls-8{clip-path:url(#clip-path);}.cls-9{fill:#d87d4a;}.cls-10{stroke:#ff8f2f;}.cls-10,.cls-13,.cls-15{stroke-linecap:round;}.cls-11{fill:#d1e2e5;}.cls-12{fill:#007cb9;}.cls-13,.cls-15{stroke:#0a3360;}.cls-13{stroke-linejoin:round;}.cls-14{fill:#0a3360;}.cls-16{fill:#fff;}.cls-17{stroke:#ff527b;stroke-width:2px;}.cls-18{fill:#08caa9;}.cls-19{fill:#ff527b;}.cls-20{clip-path:url(#clip-path-2);}.cls-21{fill:#ffbc8a;}</style><clipPath id="clip-path"><path class="cls-1" d="M202.21,266.47l100.17,67.18A84.55,84.55,0,0,0,347.09,348l67.19,1.9a68.71,68.71,0,0,1,17.26,2.71l19.79,5.76,58.75-.18L401.58,218.85Z"/></clipPath><clipPath id="clip-path-2"><path class="cls-1" d="M302.15,104.55a6.44,6.44,0,0,1,7.51-.92c10.28,5.7,37.1,20.32,46.67,23.1,12.5,3.63,55.63,10.63,84.25,55.38,24.85,38.84,57.88,68.44,137.5,94.8l-24.84,76.86a6.32,6.32,0,0,1-6,4.37h-48.9l-74.52-93.79-3.32-1.64a70.47,70.47,0,0,1-36.62-44.21l-6.47-23.17A24.35,24.35,0,0,0,369,182.72c-17-13.36-63.37-51.23-68.69-71.83a6.46,6.46,0,0,1,1.85-6.34Z"/></clipPath></defs><title>BQX-Hero-All-Cropped</title><g class="cls-2"><g id="_08" data-name="08"><path class="cls-3" d="M83.08,323.6V271.81a8.74,8.74,0,0,1,8.74-8.74h23V194a9.42,9.42,0,0,1,9.42-9.42h5.08V148.81a10.46,10.46,0,0,1,10.46-10.46h82.72V221.1H138.08l.08,137-38.58-.28.5-34.25Z"/><path class="cls-3" d="M457.8,146.35h15.53a0,0,0,0,1,0,0v63.58a0,0,0,0,1,0,0H452.08a0,0,0,0,1,0,0V152.07A5.72,5.72,0,0,1,457.8,146.35Z"/><path class="cls-3" d="M546.47,107H563a0,0,0,0,1,0,0v83.29a0,0,0,0,1,0,0H540.33a0,0,0,0,1,0,0V113.11A6.14,6.14,0,0,1,546.47,107Z"/><path class="cls-4" d="M563,76.26v114H540.33v-48l-27.22-40.79a10.21,10.21,0,0,0-8.49-4.54H481a7.7,7.7,0,0,0-7.7,7.7v105.3H443l-21.8-114a7,7,0,0,0-6.88-5.69h-33a7,7,0,0,0-7,7V221.1H138.17V357.83H374.33v.49H633.4V69.6H569.66A6.66,6.66,0,0,0,563,76.26Z"/><rect class="cls-4" y="323.6" width="99.67" height="34.53"/><rect class="cls-5" x="14.33" y="334.85" width="3.5" height="16.25"/><rect class="cls-5" x="574.58" y="112.74" width="3.5" height="16.25"/><rect class="cls-5" x="592.92" y="88.66" width="3.5" height="16.25"/><rect class="cls-5" x="592.92" y="136.83" width="3.5" height="16.25"/><rect class="cls-5" x="66.5" y="348.51" width="3.5" height="9.61"/><line class="cls-6" x1="485.33" y1="102.82" x2="485.33" y2="276.91"/><line class="cls-6" x1="504.67" y1="102.82" x2="504.67" y2="276.91"/><line class="cls-6" x1="524" y1="131.26" x2="524" y2="276.91"/><path class="cls-6" d="M154,358.13V246a3,3,0,0,1,3-3h0a3,3,0,0,1,3,3V358.13"/><path class="cls-6" d="M180.92,358.13V246a3,3,0,0,1,3-3h0a3,3,0,0,1,3,3V358.13"/><path class="cls-6" d="M207.83,358.13V246a3,3,0,0,1,3-3h0a3,3,0,0,1,3,3V358.13"/><path class="cls-7" d="M193,114.48,154.23,94.94a11.08,11.08,0,0,0-16.07,9.9h0a11.08,11.08,0,0,0,4.07,8.58l56.34,46Z"/><path class="cls-7" d="M202.21,266.47l100.17,67.18A84.55,84.55,0,0,0,347.09,348l67.19,1.9a68.71,68.71,0,0,1,17.26,2.71l19.79,5.76,58.75-.18L401.58,218.85Z"/><g class="cls-8"><path class="cls-9" d="M389.51,301.41l-104.56,24.3,42.64,29.38,18.73-1-7-7.61a15.49,15.49,0,0,1,5-24.63Z"/></g><path class="cls-10" d="M420.11,263.07a70.47,70.47,0,0,1-36.62-44.21"/><rect class="cls-11" x="201.45" y="41.88" width="171.5" height="250.8" transform="translate(-36.36 91.28) rotate(-17)"/><path class="cls-12" d="M171.06,22.47h151.5a10,10,0,0,1,10,10V47.92a0,0,0,0,1,0,0H161.06a0,0,0,0,1,0,0V32.47A10,10,0,0,1,171.06,22.47Z" transform="translate(0.5 73.7) rotate(-17)"/><path class="cls-12" d="M241.83,286.65h171.5a0,0,0,0,1,0,0V302.1a10,10,0,0,1-10,10H251.83a10,10,0,0,1-10-10V286.65a0,0,0,0,1,0,0Z" transform="translate(-73.21 108.86) rotate(-17)"/><rect class="cls-13" x="309.33" y="295.4" width="36.5" height="7.95" transform="translate(-73.21 108.86) rotate(-17)"/><circle class="cls-14" cx="236.01" cy="40.61" r="2" transform="translate(-1.56 70.78) rotate(-17)"/><line class="cls-15" x1="242.47" y1="38.64" x2="258.72" y2="33.67"/><path class="cls-14" d="M403.74,289.39,258.86,333.69A10,10,0,0,1,246.38,327l2.14,7A10,10,0,0,0,261,340.7l144.88-44.29a10,10,0,0,0,6.64-12.49l-2.14-7A10,10,0,0,1,403.74,289.39Z"/><polygon class="cls-16" points="342.49 54.85 336.65 35.73 217.11 72.27 213 58.84 193.87 64.68 224.32 164.27 198.98 172.01 204.82 191.14 298.22 162.59 308.84 197.32 248.85 310.13 275.9 301.87 317.11 224.37 335.26 283.72 354.38 277.87 317.35 156.74 368.83 141 362.98 121.87 243.45 158.42 222.96 91.4 342.49 54.85"/><path class="cls-17" d="M277.56,158.45l22.52-6.89a5,5,0,0,1,6.24,3.32l38.5,125.91"/><circle class="cls-17" cx="270.6" cy="160.58" r="7.28" transform="translate(-35.12 86.13) rotate(-17)"/><path class="cls-18" d="M270.6,90.24a18.67,18.67,0,0,0-18.67,18.67c0,10.31,18.67,51.67,18.67,51.67s18.67-41.36,18.67-51.67A18.67,18.67,0,0,0,270.6,90.24Zm0,24.25a5.58,5.58,0,1,1,5.58-5.58A5.58,5.58,0,0,1,270.6,114.49Z"/><rect class="cls-12" x="362.52" y="17.81" width="6.83" height="250.8" transform="translate(-25.88 113.25) rotate(-17)"/><rect class="cls-12" x="205.05" y="65.95" width="6.83" height="250.8" transform="translate(-46.84 69.31) rotate(-17)"/><polygon class="cls-14" points="245.47 268.14 234.61 288.56 229.93 273.24 245.47 268.14"/><polygon class="cls-14" points="243.29 242.95 233.72 260.95 224.52 247.82 243.29 242.95"/><polygon class="cls-19" points="568.18 256.54 633.3 277.46 633.4 357.83 551.83 357.83 568.18 256.54"/><path class="cls-14" d="M551.83,358.14l26.52-82.05a15.18,15.18,0,0,0-11-19.45h0a15.18,15.18,0,0,0-16.74,7.4l-52.3,94.1Z"/><path class="cls-7" d="M302.15,104.55a6.44,6.44,0,0,1,7.51-.92c10.28,5.7,37.1,20.32,46.67,23.1,12.5,3.63,55.63,10.63,84.25,55.38,24.85,38.84,57.88,68.44,137.5,94.8l-26.25,81.24h-53.5l-74.52-93.79-3.32-1.64a70.47,70.47,0,0,1-36.62-44.21l-6.47-23.17A24.35,24.35,0,0,0,369,182.72c-17-13.36-63.37-51.23-68.69-71.83a6.46,6.46,0,0,1,1.85-6.34Z"/><g class="cls-20"><rect class="cls-21" x="313.15" y="101.25" width="7.6" height="18.54" rx="3.8" ry="3.8" transform="translate(66.34 333.84) rotate(-60.93)"/></g><path class="cls-7" d="M198.16,257h0a10.32,10.32,0,0,1,11.78-9l28,4.21a10.62,10.62,0,0,1,9,10.5h0a10.62,10.62,0,0,1-9.84,10.59l-15.7,1.15-16.8-6.65A10.32,10.32,0,0,1,198.16,257Z"/><path class="cls-7" d="M199.29,239.9h0a12,12,0,0,1,11.94-13l22.87-.12a10.67,10.67,0,0,1,10.66,9.47h0a10.67,10.67,0,0,1-7.84,11.5l-16.09,4.31L210,250.91A12,12,0,0,1,199.29,239.9Z"/><path class="cls-7" d="M200.23,222.59l-2.56-8.06a9.58,9.58,0,0,1,6.36-12h0a9.58,9.58,0,0,1,12,6.36l2.56,8.06a9.58,9.58,0,0,1-6.36,12h0A9.58,9.58,0,0,1,200.23,222.59Z"/><rect class="cls-21" x="224.54" y="226.87" width="10" height="18.54" rx="4.94" ry="4.94" transform="translate(-6.61 465.68) rotate(-90)"/><rect class="cls-21" x="229.15" y="252.48" width="9.39" height="17.42" rx="4.69" ry="4.69" transform="translate(-56.22 458.08) rotate(-82.33)"/><path class="cls-9" d="M564.63,272.2l2.2,4.9a19,19,0,0,1-.31,16.2l-32.18,64.85h17.5l26.25-81.24Z"/></g></g></svg>