<svg id="Layer_1" data-name="Layer 1" xmlns="http://www.w3.org/2000/svg" viewBox="0 0 100 100"><defs><style>.cls-1{fill:#007cb9;}</style></defs><title>18B40000.I_BQX_Icons_Outlined</title><path class="cls-1" d="M54.69,48.51a.26.26,0,0,1,0,.37L50.9,52.68s0,0,0,0L48.7,54.89a.26.26,0,0,1-.38,0L45.14,51.7a.26.26,0,0,1,0-.37l6-6a.27.27,0,0,1,.38,0Zm2.23-2.24-3.18-3.19a.26.26,0,0,0-.37,0l-1.05,1.05a.26.26,0,0,0,0,.37L55.5,47.7a.27.27,0,0,0,.38,0l1.05-1.05A.26.26,0,0,0,56.92,46.27ZM44.59,52.78a.27.27,0,0,0-.25-.07.26.26,0,0,0-.19.18L43,56.66a.26.26,0,0,0,.25.34h.07l3.79-1.11a.26.26,0,0,0,.11-.44Z"/></svg>