<svg xmlns="http://www.w3.org/2000/svg" xmlns:xlink="http://www.w3.org/1999/xlink" width="646" height="369.36" viewBox="0 0 646 369.36"><defs><style>.cls-1,.cls-13,.cls-5{fill:none;}.cls-2{isolation:isolate;}.cls-3{fill:#0096d1;}.cls-4{fill:#0a3360;opacity:0.3;mix-blend-mode:multiply;}.cls-5,.cls-6{stroke:#0a3360;}.cls-5{stroke-linecap:round;}.cls-13,.cls-5,.cls-6{stroke-miterlimit:10;}.cls-6,.cls-9{fill:#fff;}.cls-7{fill:#ff527b;}.cls-8{fill:#08caa9;}.cls-10{fill:#115589;}.cls-11{fill:#efab00;}.cls-12{clip-path:url(#clip-path);}.cls-13{stroke:#d1e2e5;}.cls-14{fill:#ffbc8a;}.cls-15{fill:#f49d62;}.cls-16{fill:#ffcc8f;}.cls-17{clip-path:url(#clip-path-2);}.cls-18{fill:#405e7c;}</style><clipPath id="clip-path"><path class="cls-1" d="M323,54.51l-72.44,11.8v41.37a98.44,98.44,0,0,0,22.09,62.14L323,231.68l50.35-61.86a98.44,98.44,0,0,0,22.09-62.14V66.31Z"/></clipPath><clipPath id="clip-path-2"><path class="cls-1" d="M646,369.36,583.08,173.26A149.93,149.93,0,0,0,448.3,69.35l-56.33-3H254l-56.33,3A149.93,149.93,0,0,0,62.92,173.26L0,369.36H646Z"/></clipPath></defs><title>BQX-Hero-All-Cropped</title><g class="cls-2"><g id="_04" data-name="04"><path class="cls-3" d="M646,369.36,583.08,173.26A149.93,149.93,0,0,0,448.3,69.35l-56.33-3H254l-56.33,3A149.93,149.93,0,0,0,62.92,173.26L0,369.36H646Z"/><polygon class="cls-4" points="513.5 369 490.5 316.35 496 369.1 513.5 369"/><polygon class="cls-4" points="133.33 369 156.33 316.35 150.83 369.1 133.33 369"/><path class="cls-4" d="M358.95,315.22H460.09a3.57,3.57,0,0,1,3.57,3.57v50.57a0,0,0,0,1,0,0H355.38a0,0,0,0,1,0,0V318.79A3.57,3.57,0,0,1,358.95,315.22Z"/><path class="cls-5" d="M355.38,341.47l46.9,12.44a28.26,28.26,0,0,0,14.49,0l46.9-12.44"/><rect class="cls-6" x="375.68" y="266.57" width="69.1" height="29.08" rx="3.33" ry="3.33"/><path class="cls-7" d="M395.06,279.83c-1.27,4.19-2.65,8.69-5.78,9.91a6.48,6.48,0,0,1-1,.27,4.37,4.37,0,0,1-2.62-.35,3.41,3.41,0,0,1-1.75-1.8s0,0,0-.05a4.73,4.73,0,0,1-.19-.66,4.57,4.57,0,0,1,.11-1.91v0a4.59,4.59,0,0,1,1.22-2,3.87,3.87,0,0,1,1.93-1,3,3,0,0,1,1.27.05.56.56,0,0,1,.37.69.57.57,0,0,1-.69.4,1.51,1.51,0,0,0-.77,0,2.56,2.56,0,0,0-1.35.74,3.25,3.25,0,0,0-.9,1.51v0a3.28,3.28,0,0,0-.08,1.43,2.27,2.27,0,0,0,.13.45v0a2.33,2.33,0,0,0,1.19,1.22,3.22,3.22,0,0,0,2,.24,3.79,3.79,0,0,0,.74-.21c2.62-1,3.92-5.25,5.12-9.17a34.8,34.8,0,0,1,2-5.46,5.09,5.09,0,0,1,1-1.33,3.38,3.38,0,0,1,1.38-.69.58.58,0,0,1,.66.48.56.56,0,0,1-.45.64,1.78,1.78,0,0,0-.85.45,2.87,2.87,0,0,0-.77,1A34.49,34.49,0,0,0,395.06,279.83Zm9.81-.58c0,.29,0,.58,0,.9a18.12,18.12,0,0,1-1.59,6.41,10.6,10.6,0,0,1-3.47,4.43h0a6.79,6.79,0,0,1-1.48.64,6.17,6.17,0,0,1-1.59.19h-.56a4.75,4.75,0,0,1-2.94-1.27,3,3,0,0,1-.9-2.2v-.21a3,3,0,0,1,.85-1.91,2.69,2.69,0,0,1,1.88-.8,2.45,2.45,0,0,1,1.59.58,3.51,3.51,0,0,1,1,1.54.55.55,0,0,1-.32.71.56.56,0,0,1-.71-.34,2.42,2.42,0,0,0-.69-1,1.24,1.24,0,0,0-.85-.35,1.57,1.57,0,0,0-1.09.48,1.92,1.92,0,0,0-.53,1.17v.16a1.84,1.84,0,0,0,.56,1.38,3.45,3.45,0,0,0,2.25,1,3,3,0,0,0,.48,0,5.14,5.14,0,0,0,1.3-.16,5.41,5.41,0,0,0,1.19-.51,9.44,9.44,0,0,0,3-3.95,16.32,16.32,0,0,0,1.48-6c0-.27,0-.53,0-.85a10,10,0,0,0-1.33-5.33,5.1,5.1,0,0,0-4.16-2.38h-.4a7,7,0,0,0-5.49,2.38,9.74,9.74,0,0,0-2.15,6.47.54.54,0,0,1-.55.56.56.56,0,0,1-.56-.56,10.88,10.88,0,0,1,2.41-7.21,8.14,8.14,0,0,1,6.33-2.76h.45a6.14,6.14,0,0,1,5,2.89A11.12,11.12,0,0,1,404.86,279.25Z"/><path class="cls-7" d="M417.94,284.44l0,.08c-1,2.23-2.44,5.49-4.82,5.49h0a1.75,1.75,0,0,1-1.51-.77,2.72,2.72,0,0,1-.37-1.46v0c-.9,1.3-2,2.23-3.36,2.2a1.87,1.87,0,0,1-1.64-.9,3.52,3.52,0,0,1-.48-2.12,16.2,16.2,0,0,1,2.12-6.63c1-1.62,2.23-2.86,3.74-2.89h.24a2.74,2.74,0,0,1,1.83.93,2.59,2.59,0,0,1,.35.53c.16-.45.32-.85.45-1.19a.57.57,0,0,1,.71-.32.56.56,0,0,1,.32.71c-.29.77-.8,2.12-1.33,3.55-.35,1-.72,1.94-1,2.68a18.27,18.27,0,0,0-.61,2,6,6,0,0,0-.27,1.41v.05a1.68,1.68,0,0,0,.19.85.67.67,0,0,0,.61.27c1.64,0,2.92-2.86,3.79-4.82l0-.08a.56.56,0,0,1,1,.45Zm-5.33-2.23c.24-.56.42-1.09.61-1.51a.53.53,0,0,0,0-.19,2.25,2.25,0,0,0-.48-1.43,1.58,1.58,0,0,0-1.06-.53.32.32,0,0,0-.16,0c-1,0-2,1-2.78,2.36a14.93,14.93,0,0,0-2,6.07,2.89,2.89,0,0,0,.29,1.48.91.91,0,0,0,.74.4C410,288.89,411.55,284.92,412.62,282.21Z"/><path class="cls-7" d="M427.09,284.42a4.91,4.91,0,0,1-.21.53c-.08.13-.13.29-.24.45a7.42,7.42,0,0,1-1.33,1.94,3.17,3.17,0,0,1-2.33,1,3.49,3.49,0,0,1-.74-.08,2.58,2.58,0,0,1-1.11-.64l-.37.53c-.88,1.14-1.8,1.88-2.84,1.88h-.05a1.72,1.72,0,0,1-1.48-.77,2.72,2.72,0,0,1-.37-1.46v-.08a6.51,6.51,0,0,1,.29-1.64c.16-.64.37-1.35.64-2.09.13-.37.4-1.17.77-2.17.45-1.25,1-2.68,1.46-4a.58.58,0,0,1,.74-.32.55.55,0,0,1,.32.71l-1.46,4c-.37,1-.63,1.72-.77,2.12-.26.74-.48,1.43-.63,2a7.24,7.24,0,0,0-.24,1.41v.05a1.68,1.68,0,0,0,.19.85.8.8,0,0,0,.58.27h0c.64,0,1.27-.56,1.94-1.43.19-.27.4-.56.58-.87a3.52,3.52,0,0,1-.21-1.25,4.43,4.43,0,0,1,.19-1.27.55.55,0,0,1,.69-.4.56.56,0,0,1,.4.69c-.05.21-.11.45-.13.64a13.8,13.8,0,0,0,.66-1.27c.58-1.11,1.14-2.2,1.64-3.21s1-2,1.38-2.81a.58.58,0,0,1,1,.51c-.42.87-.9,1.8-1.41,2.81s-1.06,2.09-1.64,3.23c-.43.82-.85,1.64-1.3,2.38a1.58,1.58,0,0,0,.79.51,3,3,0,0,0,.48.05,2.12,2.12,0,0,0,1.54-.66,7.21,7.21,0,0,0,1.11-1.64c.05-.13.13-.27.21-.43a5,5,0,0,0,.19-.48.55.55,0,0,1,.74-.29A.53.53,0,0,1,427.09,284.42Z"/><path class="cls-7" d="M436.75,284.44a9.82,9.82,0,0,1-3.58,4.48,7,7,0,0,1-4.08,1.06H429a3.72,3.72,0,0,1-2.41-.93,3.44,3.44,0,0,1-1-2.68v-.08a10.11,10.11,0,0,1,.4-2.23s0,0,0-.05a10.92,10.92,0,0,1,.63-1.7,13.23,13.23,0,0,1,2.28-3.58,4.71,4.71,0,0,1,1.3-.93,3,3,0,0,1,1.41-.37,2.29,2.29,0,0,1,1.43.4,1.73,1.73,0,0,1,.77,1.11,2.53,2.53,0,0,1-.08,1.33,4.07,4.07,0,0,1-1.27,1.88,9.66,9.66,0,0,1-2.44,1.43,21.29,21.29,0,0,1-3,1.06,8.37,8.37,0,0,0-.29,1.7v.05a2.23,2.23,0,0,0,.64,1.83,2.5,2.5,0,0,0,1.7.64h.05a6.15,6.15,0,0,0,3.47-.9,8.48,8.48,0,0,0,3.13-4,.6.6,0,0,1,.74-.29A.58.58,0,0,1,436.75,284.44Zm-9.3-1.06a16.49,16.49,0,0,0,2.17-.82,9.73,9.73,0,0,0,2.18-1.27,2.89,2.89,0,0,0,.93-1.35,1.44,1.44,0,0,0,.05-.74.69.69,0,0,0-.29-.42,1.38,1.38,0,0,0-.82-.21,2.09,2.09,0,0,0-.93.24,4.08,4.08,0,0,0-1,.74,11.75,11.75,0,0,0-2.09,3.23C427.6,283,427.52,283.17,427.44,283.38Z"/><path class="cls-8" d="M374.24,315.22l-5.7-25.45a4.75,4.75,0,1,0-9.27,2.08l5.23,23.38Z"/><path class="cls-9" d="M369.7,291.82h0a1.5,1.5,0,0,1,1.5,1.5v48.21a0,0,0,0,1,0,0h-3a0,0,0,0,1,0,0V293.32A1.5,1.5,0,0,1,369.7,291.82Z" transform="translate(-60.23 88.38) rotate(-12.61)"/><polygon class="cls-4" points="323 369.01 305.25 369.01 305.25 252.6 323 231.68 323 369.01"/><path class="cls-10" d="M449.93,154,425.28,80.46a38.63,38.63,0,0,0-9.17-14.9L395.44,44.68,324.73,217.86,323,231.67l-1.73-13.82L250.57,44.68,229.91,65.56a38.63,38.63,0,0,0-9.17,14.9L196.08,154a5.05,5.05,0,0,0,4.79,6.66h40.05l-7.39,14A9.39,9.39,0,0,0,236.81,187l80.83,51-12.39,14.6,6.25-3.95,4.13-2.61,7.37-4.65,5.37-3.39,80.83-51a9.38,9.38,0,0,0,3.28-12.33l-7.39-14h40.05A5.05,5.05,0,0,0,449.93,154Z"/><path class="cls-9" d="M323,54.51l-72.44,11.8v46.93A59.5,59.5,0,0,0,262,148.37l61,83.31,61-83.31a59.5,59.5,0,0,0,11.48-35.13V66.31Z"/><path class="cls-11" d="M250.56,10.08H395.44a0,0,0,0,1,0,0V66.31A72.44,72.44,0,0,1,323,138.75h0a72.44,72.44,0,0,1-72.44-72.44V10.08a0,0,0,0,1,0,0Z"/><g class="cls-12"><path class="cls-13" d="M323,148.75a82.53,82.53,0,0,1-82.44-82.44V.08H405.44V66.31A82.53,82.53,0,0,1,323,148.75Z"/></g><path class="cls-11" d="M250.56,10.08H395.44a0,0,0,0,1,0,0V66.31A72.44,72.44,0,0,1,323,138.75h0a72.44,72.44,0,0,1-72.44-72.44V10.08a0,0,0,0,1,0,0Z"/><path class="cls-14" d="M250.56,10.08H395.44a0,0,0,0,1,0,0V66.31A72.44,72.44,0,0,1,323,138.75h0a72.44,72.44,0,0,1-72.44-72.44V10.08a0,0,0,0,1,0,0Z"/><polygon class="cls-15" points="317.22 45.97 250.56 54.52 250.56 10.08 317.22 45.97"/><path class="cls-14" d="M239,0c20.86,28.26,50.79,46,84,46s63.18-17.71,84-46Z"/><path class="cls-11" d="M314.13,279.32a4.67,4.67,0,0,1-3.78-1.93,4.69,4.69,0,1,0,7.55,0A4.67,4.67,0,0,1,314.13,279.32Z"/><path class="cls-16" d="M314.13,279.32a4.67,4.67,0,0,0,3.78-1.93,4.66,4.66,0,0,0-7.55,0A4.67,4.67,0,0,0,314.13,279.32Z"/><path class="cls-11" d="M314.13,353.07a4.67,4.67,0,0,1-3.78-1.93,4.69,4.69,0,1,0,7.55,0A4.67,4.67,0,0,1,314.13,353.07Z"/><path class="cls-16" d="M314.13,353.07a4.67,4.67,0,0,0,3.78-1.93,4.66,4.66,0,0,0-7.55,0A4.67,4.67,0,0,0,314.13,353.07Z"/><g class="cls-17"><path class="cls-18" d="M622.85,266.61,579.5,140.19l-14.34-6c7.43,12.77,6.89,28.7,3.66,43.12-2,8.83-4.87,18.15-1.87,26.69,3.21,9.12,12.55,15.24,15.07,24.57,2.34,8.66-1.8,17.77-1.25,26.73s6.84,17.91,15.68,19.77c9.55,2,18.8-4.05,26.39-10.19"/></g><path class="cls-18" d="M118.95,178.68a25.58,25.58,0,0,1,5.88.19c6.71,1.35,10.49,8.25,13.92,14.17,2.38,4.11,5.06,8.15,8.78,11.1s8.64,4.7,13.27,3.68,8.63-5.3,8.4-10c-.42-8.63-13-13.25-12.53-21.88.1-1.91.87-3.75.85-5.66,0-4.54-4.32-7.79-8.33-9.92a76.15,76.15,0,0,0-19.89-7.2,7.35,7.35,0,0,1-2.64-.9c-1.47-1-2-2.88-2.39-4.6-1-4-2.44-8.28-5.78-10.75s-9.09-1.94-10.61,1.93c-1.76,4.49,2.61,8.68,2.21,13.18-.46,5.13-4.95,7.58-7.16,11.67C97.11,174.41,109.5,179,118.95,178.68Z"/></g></g></svg>