<svg xmlns="http://www.w3.org/2000/svg" xmlns:xlink="http://www.w3.org/1999/xlink" width="233.42" height="138.76" viewBox="0 0 233.42 138.76"><defs><style>.cls-1,.cls-13{fill:none;}.cls-2{isolation:isolate;}.cls-3{fill:#0a3360;}.cls-4{fill:#4ebee5;}.cls-5,.cls-6{fill:#08caa9;}.cls-6{opacity:0.5;mix-blend-mode:multiply;}.cls-7{clip-path:url(#clip-path);}.cls-8{fill:#efab00;}.cls-9{fill:#fff;}.cls-10{fill:#d1e2e5;}.cls-11{fill:#75929e;}.cls-12{fill:#2e386b;}.cls-13{stroke:#003360;stroke-miterlimit:10;stroke-width:0.5px;}</style><clipPath id="clip-path"><path class="cls-1" d="M60.18,0h79.11a33.66,33.66,0,0,1,28.6,15.91l25.53,41.14,23,16.54a41,41,0,0,1,17,33.26v4.91a5.79,5.79,0,0,1-1.79,4.19l-5.7,5.44a5.79,5.79,0,0,1-4,1.6H60.18V0"/></clipPath></defs><title>BQX-Hero-Start-Left2</title><g class="cls-2"><g id="_01" data-name="01"><path class="cls-3" d="M192.93,101.16h-7.87c-7.23,0-13.1,8.51-13.1,19s5.86,19,13.1,19h7.87c7.23,0,13.1-8.51,13.1-19S200.16,101.16,192.93,101.16Z"/><path class="cls-4" d="M185.05,111.71c-4.35,0-8,4.59-8.66,10.61a18.41,18.41,0,0,1-.13-2.15c0-7,3.94-12.76,8.79-12.76s8.79,5.71,8.79,12.76a18.41,18.41,0,0,1-.13,2.15C193,116.3,189.4,111.71,185.05,111.71Z"/><circle class="cls-3" cx="23.82" cy="120.01" r="19.24"/><path class="cls-5" d="M60.18,0h79.11a33.66,33.66,0,0,1,28.6,15.91l25.53,41.14,23,16.54a41,41,0,0,1,17,33.26v4.91a5.79,5.79,0,0,1-1.79,4.19l-5.7,5.44a5.79,5.79,0,0,1-4,1.6H60.18V0"/><path class="cls-6" d="M60.18,0h79.11a33.66,33.66,0,0,1,28.6,15.91l25.53,41.14,23,16.54a41,41,0,0,1,17,33.26v4.91a5.79,5.79,0,0,1-1.79,4.19l-5.7,5.44a5.79,5.79,0,0,1-4,1.6H60.18V0"/><g class="cls-7"><path class="cls-8" d="M243.73,92.73h-17a3.54,3.54,0,0,1-3.4-2.55h25.54A6.56,6.56,0,0,1,243.73,92.73Z"/><path class="cls-9" d="M226.47,85.66l.31,0h20.71a2.37,2.37,0,0,1,2.13,3.41h0a6.56,6.56,0,0,1-.7,1.12H223.38a3.53,3.53,0,0,1,3.09-4.52Z"/></g><rect class="cls-3" x="116.75" y="97.55" width="49.29" height="25.44"/><rect class="cls-3" x="-48.97" y="97.55" width="49.29" height="25.44"/><path class="cls-5" d="M192.42,109.51l-1-8.61a30.56,30.56,0,0,0-14.89-22.69L141,57.4a2.75,2.75,0,0,1-.95-.92L114.86,15.91A33.66,33.66,0,0,0,86.26,0H-57.9a14.49,14.49,0,0,0-8.35,2.64,14.5,14.5,0,0,0-5.86,8.84l-10.7,50-.09,58.75A2.75,2.75,0,0,0-80.14,123h32a2.8,2.8,0,0,0,2.79-2.8v0a21.1,21.1,0,0,1,21.1-21.1,21.1,21.1,0,0,1,21.1,21.1v0A2.8,2.8,0,0,0-.34,123H117.42a2.8,2.8,0,0,0,2.79-2.8v0a21.1,21.1,0,0,1,42.21,0v0a2.8,2.8,0,0,0,2.79,2.8H180a9.52,9.52,0,0,0,6.57-2.63l3-2.82A9.52,9.52,0,0,0,192.42,109.51Z"/><path class="cls-3" d="M145.33,101.16h-7.87c-7.23,0-13.1,8.51-13.1,19s5.86,19,13.1,19h7.87c7.23,0,13.1-8.51,13.1-19S152.57,101.16,145.33,101.16Z"/><ellipse class="cls-10" cx="137.46" cy="120.17" rx="8.79" ry="12.76"/><path class="cls-3" d="M130.16,52.15l-21-35.32A18.17,18.17,0,0,0,93.51,8H68.31a4.26,4.26,0,0,0-4.26,4.26v42a2.85,2.85,0,0,0,2.85,2.85h60.46A3.24,3.24,0,0,0,130.16,52.15Z"/><path class="cls-11" d="M130.76,54.07A3.08,3.08,0,0,0,127.68,51h0a3.76,3.76,0,0,1-3.7-3.76,4.12,4.12,0,0,0-4.12-4.12H111.2a5.13,5.13,0,0,0-5.13,5.13v4.59a4.32,4.32,0,0,0,4.32,4.32h17.35A3.08,3.08,0,0,0,130.76,54.07Z"/><rect class="cls-12" x="64.06" y="63.38" width="2.9" height="12.58" rx="1.45" ry="1.45"/><path class="cls-3" d="M229.87,111.05H195.55l-1.27-10.59c-.32-2.64,2-4.95,5-4.95h24.15a4.87,4.87,0,0,1,5,4Z"/><path class="cls-8" d="M178.71,92.73h17a3.54,3.54,0,0,0,3.4-2.55H173.53A6.56,6.56,0,0,0,178.71,92.73Z"/><path class="cls-9" d="M196,85.66l-.31,0H175a2.37,2.37,0,0,0-2.13,3.41h0a6.56,6.56,0,0,0,.7,1.12h25.54A3.53,3.53,0,0,0,196,85.66Z"/><rect class="cls-13" x="-47.72" y="6.2" width="99.94" height="61.89" rx="4.68" ry="4.68"/><path class="cls-3" d="M185.15,43.71,167.9,15.91A33.63,33.63,0,0,0,161,8h-41.9a5.13,5.13,0,0,0-4.32,7.87l.06.09L124.25,31C141.09,40.12,162.13,46.33,185.15,43.71Z"/><path class="cls-3" d="M144.06,57.05h49.36l-8.28-13.34c-23,2.61-44.06-3.59-60.9-12.67l14.2,22.88A6.6,6.6,0,0,0,144.06,57.05Z"/><rect class="cls-10" x="180.48" y="120.17" width="48.13" height="5.08" rx="2.54" ry="2.54"/></g></g></svg>