<svg id="Layer_1" data-name="Layer 1" xmlns="http://www.w3.org/2000/svg" viewBox="0 0 100 100"><defs><style>.cls-1{fill:#d1e2e5;}.cls-2{fill:none;}</style></defs><title>18B40000.I_BQX_Icons_Outlined</title><circle class="cls-1" cx="50" cy="50.13" r="25"/><polygon class="cls-2" points="47.46 65.03 47.5 65.03 47.48 64.99 47.46 65.03"/><path d="M41.86,26.49,63.44,38.32,47.5,47.06,28.83,36.83c-.27.42-.52.85-.77,1.29L46.75,48.36v2.18L27.22,39.83q-.31.69-.58,1.39l20.5,11.24.36.2L54,49.09V59.72L25.7,44.23q-.18.76-.32,1.54L53.2,61l-5.64,3.12L25.06,51.8q.06.91.18,1.81L46.75,65.4v2.25l-21-11.52c.17.69.37,1.37.6,2L47.14,69.57l.36.2,18.25-10V54.91l-7.25-4V46.58l7.25-4v-4.7l-21.87-12C43.2,26.05,42.52,26.26,41.86,26.49ZM47.46,65l0,0,0,0Zm16-9.68L58.5,58.09V52.65Zm.81-13.66L57,45.7V60.63l7.25-4v2.25l-16,8.78V65.47l7.21-4V46.55l-7.21,4V48.36l16-8.78Z"/></svg>