<svg id="Layer_1" data-name="Layer 1" xmlns="http://www.w3.org/2000/svg" viewBox="0 0 100 100"><defs><style>.cls-1{fill:#007cb9;}</style></defs><title>18B40000.I_BQX_Icons_Outlined</title><path class="cls-1" d="M52.77,58a2.89,2.89,0,0,1-.7-.09,12,12,0,0,1-6.65-4.81A10.78,10.78,0,0,1,43,45.63c.14-1.37,2.38-3.27,3.85-3.59.55-.12,1.58-.06,2.47,1.64.48.92,1.11,2.85.08,3.55l-.9.56A13.3,13.3,0,0,0,50,50a14.91,14.91,0,0,0,1.66,2c1.1-.7,1.43-.73,1.58-.74,1.3-.14,3.05,1.3,3.58,2.54a1.69,1.69,0,0,1-.58,2.21l-.55.4C54.47,57.37,53.55,58,52.77,58ZM47.19,43.51a4.87,4.87,0,0,0-2.47,2.23,9.3,9.3,0,0,0,2.11,6.52,10.33,10.33,0,0,0,5.67,4.18,1.08,1.08,0,0,0,.27,0,10,10,0,0,0,1.85-1.19l.61-.44h0c.05,0,.15-.1,0-.4a3.28,3.28,0,0,0-1.82-1.63,9.85,9.85,0,0,0-1.07.63,1.39,1.39,0,0,1-1.39.06c-.4-.21-1-.68-2.4-2.65s-1.7-2.62-1.77-3a1.11,1.11,0,0,1,.5-1.12l1-.62A3.74,3.74,0,0,0,47.19,43.51Zm4.19,8.74h0Zm.47,0h0Zm-3.37-4.63h0Z"/></svg>