<svg id="Layer_1" data-name="Layer 1" xmlns="http://www.w3.org/2000/svg" viewBox="0 0 100 100"><defs><style>.cls-1{fill:#d1e2e5;}</style></defs><title>18B40000.I_BQX_Icons_Outlined</title><g id="SVGID"><circle class="cls-1" cx="50" cy="50.13" r="25" transform="translate(-5.09 94.6) rotate(-83.99)"/></g><g id="_Group_" data-name="&lt;Group&gt;"><path d="M65.31,53.67a.75.75,0,0,1-.75.75H58a6,6,0,0,1,2.17,4.4,1.53,1.53,0,0,1-1.53,1.53H41.33a1.53,1.53,0,0,1-1.53-1.53A6,6,0,0,1,42,54.42H35.61a.74.74,0,0,1-.75-.75c0-2.16,1.67-4.12,4.28-5.14a5.22,5.22,0,0,1,6.41-8,5.18,5.18,0,0,1,2,1.83,6.33,6.33,0,0,1,5,.06A5.22,5.22,0,1,1,61,48.53C63.64,49.55,65.31,51.51,65.31,53.67ZM56,52.92h7.71c-.42-1.49-2-2.78-4.31-3.33a.77.77,0,0,1-.56-.59.76.76,0,0,1,.31-.75,3.73,3.73,0,1,0-5.29-5,6.35,6.35,0,0,1,1.78,7.93,6.24,6.24,0,0,1-.92,1.34,10.2,10.2,0,0,1,1.12.48A.42.42,0,0,1,56,52.92Zm2.67,5.93a0,0,0,0,0,0,0c0-2.33-2.28-4.46-5.66-5.28a.75.75,0,0,1-.25-1.35,4.83,4.83,0,0,0-.57-8.26A4.77,4.77,0,0,0,50,43.39a4.84,4.84,0,0,0-2.8,8.8.75.75,0,0,1,.3.76.74.74,0,0,1-.56.59c-3.38.82-5.65,3-5.65,5.28ZM46.25,43.13a3.59,3.59,0,0,0-1.38-1.24A3.73,3.73,0,0,0,41,48.25a.75.75,0,0,1-.26,1.34c-2.26.55-3.89,1.84-4.3,3.33h7.35a.94.94,0,0,1,.29.06,12.67,12.67,0,0,1,1.18-.5,6.38,6.38,0,0,1-.92-7.15A6.22,6.22,0,0,1,46.25,43.13Z"/></g></svg>