<svg xmlns="http://www.w3.org/2000/svg" xmlns:xlink="http://www.w3.org/1999/xlink" width="575" height="369" viewBox="0 0 575 369"><defs><style>.cls-1,.cls-14,.cls-15,.cls-16,.cls-17,.cls-20,.cls-21,.cls-24{fill:none;}.cls-2{clip-path:url(#clip-path);}.cls-3{fill:#007cb9;}.cls-4{fill:#cc6a2e;}.cls-5{fill:#0a3360;}.cls-6{fill:#405e7c;}.cls-7{clip-path:url(#clip-path-2);}.cls-23,.cls-8{fill:#fff;}.cls-9{clip-path:url(#clip-path-3);}.cls-10{fill:#8fd8f2;}.cls-11{fill:#d87d4a;}.cls-12{fill:#f49d62;}.cls-13{fill:#d1e2e5;}.cls-14{stroke:#d1e2e5;}.cls-14,.cls-16,.cls-17,.cls-20,.cls-21,.cls-23,.cls-24{stroke-miterlimit:10;}.cls-15{stroke:#ff527b;stroke-linejoin:round;stroke-width:2px;}.cls-15,.cls-20,.cls-21{stroke-linecap:round;}.cls-16{stroke:#0a3360;}.cls-17{stroke:#8fd8f2;}.cls-18{fill:#08caa9;}.cls-19{clip-path:url(#clip-path-4);}.cls-20{stroke:#f46c0f;}.cls-21{stroke:#db9700;}.cls-22{fill:#ff527b;}.cls-23,.cls-24{stroke:#fff;}</style><clipPath id="clip-path"><rect class="cls-1" x="-1329" width="1904" height="369"/></clipPath><clipPath id="clip-path-2"><path class="cls-1" d="M272.9,27.37,268,28.58,10.92,92.69A6,6,0,0,0,6.55,100L88.71,429.51A6,6,0,0,0,96,433.88l257.13-64.11,4.85-1.21a6,6,0,0,0,4.37-7.27L280.17,31.74A6,6,0,0,0,272.9,27.37Z"/></clipPath><clipPath id="clip-path-3"><rect class="cls-1" x="56.87" y="74.38" width="259.95" height="331.76" transform="translate(-52.58 52.34) rotate(-14)"/></clipPath><clipPath id="clip-path-4"><path class="cls-1" d="M297.87,131.3l70.08-61.45a17.92,17.92,0,0,1,24.71,1l18.71,19.39,47.15,2.93a60.18,60.18,0,0,1,52.76,39.33l30.15,82.16a49.06,49.06,0,0,0,8.28,14.4L575,259.61l-89.67,65.33-30-50.67-33.67-95-47.33-76.8L321.15,135.3a29.78,29.78,0,0,1-10.39,4l-8.28,1.48a5.43,5.43,0,0,1-6.39-5.15v-.18A5.23,5.23,0,0,1,297.87,131.3Z"/></clipPath></defs><title>BQX-Hero-Coverages</title><g id="_03" data-name="03"><g class="cls-2"><path class="cls-3" d="M11.14,59.4h0A12.5,12.5,0,0,0,1.69,72.34L18.45,321.8l48-94L31.25,54.38l-20.11,5"/><path class="cls-4" d="M14.23,368.81,2.61,307.53a123.7,123.7,0,0,1,21.49-95.79l21.74-29.89L73.31,334.51,16.87,343.6"/><path class="cls-5" d="M88.71,429.51,6.55,100a6,6,0,0,1,4.37-7.27L6.07,93.9a6,6,0,0,0-4.37,7.27L83.86,430.72a6,6,0,0,0,7.27,4.37L96,433.88A6,6,0,0,1,88.71,429.51Z"/><path class="cls-6" d="M272.9,27.37,268,28.58,10.92,92.69A6,6,0,0,0,6.55,100L88.71,429.51A6,6,0,0,0,96,433.88l257.13-64.11,4.85-1.21a6,6,0,0,0,4.37-7.27L280.17,31.74A6,6,0,0,0,272.9,27.37Z"/><g class="cls-7"><path class="cls-5" d="M392.41,254.18,267.1,186.62A16.65,16.65,0,0,1,261.7,182L251,167.83a.93.93,0,0,1,.8-1.48l17.69,1.14a16.65,16.65,0,0,1,6.83,2L401.66,237Z"/></g><rect class="cls-8" x="56.87" y="74.38" width="259.95" height="331.76" transform="translate(-52.58 52.34) rotate(-14)"/><g class="cls-9"><path class="cls-10" d="M389.41,249.18,264.1,181.62A16.65,16.65,0,0,1,258.7,177L248,162.83a.93.93,0,0,1,.8-1.48l17.69,1.14a16.65,16.65,0,0,1,6.83,2L398.66,232Z"/></g><path class="cls-11" d="M34.9,214.51a8.14,8.14,0,0,1,8.52,3.07A63.61,63.61,0,0,1,54.2,242.16c4,19.09,7.07,62.82,18.18,77.06s24.36,30.17,31.9,60.41L19.21,400.84s-11.77-35.43.22-83.15c12.09-48.1,11.11-77.25,10.39-83.71-.34-3.1-.8-7-1.19-10.42a8.34,8.34,0,0,1,6.27-9.06Z"/><rect class="cls-12" x="32.08" y="217.83" width="7.6" height="18.54" rx="3.8" ry="3.8" transform="translate(-28.81 6.47) rotate(-7.36)"/><path class="cls-13" d="M263.33-3.48,11.14,59.4A15.66,15.66,0,0,1,30,79L20.6,110.76,272.79,47.88l9.35-31.74A15.66,15.66,0,0,0,263.33-3.48Z"/><rect class="cls-14" x="51.56" y="141.04" width="27.5" height="27.5" rx="3" ry="3" transform="translate(-35.51 20.4) rotate(-14)"/><polyline class="cls-15" points="52.88 150.56 66.01 161.21 77.98 131.53"/><line class="cls-16" x1="88.19" y1="149.09" x2="262.36" y2="105.66"/><rect class="cls-14" x="65.91" y="198.61" width="27.5" height="27.5" rx="3" ry="3" transform="translate(-49.01 25.58) rotate(-14)"/><polyline class="cls-15" points="67.23 208.14 80.36 218.78 92.34 189.1"/><line class="cls-16" x1="102.54" y1="206.66" x2="276.71" y2="163.23"/><rect class="cls-14" x="80.26" y="256.19" width="27.5" height="27.5" rx="3" ry="3" transform="matrix(0.97, -0.24, 0.24, 0.97, -62.51, 30.76)"/><line class="cls-16" x1="116.9" y1="264.23" x2="291.07" y2="220.81"/><rect class="cls-14" x="94.62" y="313.76" width="27.5" height="27.5" rx="3" ry="3" transform="translate(-76.01 35.95) rotate(-14)"/><line class="cls-16" x1="131.25" y1="321.8" x2="305.42" y2="278.38"/><rect class="cls-17" x="108.97" y="371.33" width="27.5" height="27.5" rx="3" ry="3" transform="translate(-89.51 41.13) rotate(-14)"/><line class="cls-16" x1="145.61" y1="379.37" x2="319.77" y2="335.95"/><path class="cls-18" d="M219.07,67.07l-3.67-7.51a11.37,11.37,0,0,0-13-6L157.25,64.79a2.49,2.49,0,0,1-3.09-2.33l-.44-12.82A14.3,14.3,0,0,0,136,36.26h0a14.3,14.3,0,0,0-9.39,20.15l5.63,11.53a2.49,2.49,0,0,1-1.63,3.5L85.41,82.71A11.37,11.37,0,0,0,76.8,94.12l.28,8.35,71-17.7Zm-81.13-23a4.42,4.42,0,1,1-3.22,5.35A4.42,4.42,0,0,1,137.93,44.1Z"/><polygon class="cls-5" points="77.08 102.47 70.47 98.32 76.89 96.72 77.08 102.47"/><polygon class="cls-5" points="20.6 110.76 7.13 102.31 4.84 97.6 6.83 93.71 27.11 88.65 20.6 110.76"/><path class="cls-4" d="M382.94,110.76l-2,38.95a33.74,33.74,0,0,0,18.42,31.84l11.94,6.07L424,151.27Z"/><path class="cls-11" d="M297.87,131.3l70.08-61.45a17.92,17.92,0,0,1,24.71,1l18.71,19.39,47.15,2.93a60.18,60.18,0,0,1,52.76,39.33l30.15,82.16a49.06,49.06,0,0,0,8.28,14.4L575,259.61l-89.67,65.33-30-50.67-33.67-95-47.33-76.8L321.15,135.3a29.78,29.78,0,0,1-10.39,4l-8.28,1.48a5.43,5.43,0,0,1-6.39-5.15v-.18A5.23,5.23,0,0,1,297.87,131.3Z"/><g class="cls-19"><line class="cls-20" x1="402.7" y1="80.58" x2="416.05" y2="94.42"/><line class="cls-21" x1="426.35" y1="82.77" x2="439.7" y2="96.61"/><line class="cls-21" x1="448.24" y1="83.26" x2="461.59" y2="97.1"/><line class="cls-21" x1="373.93" y1="103.89" x2="375.85" y2="97.1"/></g><path class="cls-12" d="M298.7,130.52l.25.25a3.25,3.25,0,0,0,4.36.23l6.35-5.16a3.25,3.25,0,0,0,.46-4.59l-.35-.43-11.06,9.7"/><path class="cls-4" d="M468.21,296.13l12.55,21.2L497,300.61l-6.21,2.34a18.33,18.33,0,0,1-18.28-3.15Z"/><path class="cls-8" d="M462.29,336.33l-6.12-8.58a9.35,9.35,0,0,1-.47-10.13l12.51-21.48,12.55,21.2Z"/><path class="cls-5" d="M456,327.56h0a9,9,0,0,1-.45-9.74l12.62-21.69,12.55,21.2-11,11.27A9,9,0,0,1,456,327.56Z"/><polygon class="cls-8" points="557.45 238.51 462.29 336.33 485.44 368.81 574.94 368.81 574.94 259.61 557.45 238.51"/><path class="cls-8" d="M542.4,254l15.05-15.47-7.45-9C555.7,236.39,550.91,245.24,542.4,254Z"/><path class="cls-5" d="M412.22,137.49,273,167.09a16.65,16.65,0,0,1-7.11,0l-17.29-3.88a.93.93,0,0,1-.35-1.65l14.22-10.58a16.65,16.65,0,0,1,6.48-2.93l139.25-29.6Z"/><path class="cls-22" d="M409.38,110.48h64.5a9.75,9.75,0,0,1,9.75,9.75v0a9.75,9.75,0,0,1-9.75,9.75h-64.5a0,0,0,0,1,0,0v-19.5A0,0,0,0,1,409.38,110.48Z" transform="translate(-15.24 95.46) rotate(-12)"/><circle class="cls-23" cx="421.82" cy="142.18" r="2.17" transform="translate(-20.34 90.81) rotate(-12)"/><path class="cls-24" d="M421.37,140.06l49.21-10.46a2.52,2.52,0,0,0,1.94-3l-.39-1.86"/><path class="cls-11" d="M325.34,159.08l67.15,90a61.78,61.78,0,0,0,43.37,24.54l20.24,2L437.94,172.44l-30.63-16.36.59,1a16.94,16.94,0,0,1-9.79,25.18h0a16.53,16.53,0,0,1-14.61-2.81l-44.23-34.07A9.87,9.87,0,0,0,327.7,145h0A9.87,9.87,0,0,0,325.34,159.08Z"/><rect class="cls-12" x="329.73" y="147.41" width="7.6" height="18.54" rx="3.8" ry="3.8" transform="translate(-26.34 235.98) rotate(-37.59)"/><polygon class="cls-6" points="574.94 296 574.94 368.81 504.27 368.81 574.94 296"/><path class="cls-5" d="M476.86,362.17l2.58-1.81L467.6,343.79,465,346a3.23,3.23,0,0,0-.51,4.32l7.89,11A3.23,3.23,0,0,0,476.86,362.17Z"/></g></g></svg>