<svg xmlns="http://www.w3.org/2000/svg" xmlns:xlink="http://www.w3.org/1999/xlink" width="729" height="369" viewBox="0 0 729 369"><defs><style>.cls-1,.cls-13,.cls-17,.cls-18,.cls-19,.cls-20,.cls-22,.cls-3,.cls-8{fill:none;}.cls-2{clip-path:url(#clip-path);}.cls-3{stroke:#405e7c;}.cls-17,.cls-18,.cls-19,.cls-20,.cls-3{stroke-linecap:round;}.cls-18,.cls-20,.cls-3{stroke-linejoin:round;}.cls-4{fill:#d1e2e5;}.cls-5{fill:#91b0bf;}.cls-6{fill:#405e7c;}.cls-7{clip-path:url(#clip-path-2);}.cls-18,.cls-19,.cls-8{stroke:#0a3360;}.cls-13,.cls-17,.cls-19,.cls-22,.cls-23,.cls-8{stroke-miterlimit:10;}.cls-9{fill:#efab00;}.cls-10{fill:#0a3360;}.cls-11{fill:#ffcc8f;}.cls-12{clip-path:url(#clip-path-3);}.cls-13{stroke:#007cb9;}.cls-14{fill:#f2fafc;}.cls-15{clip-path:url(#clip-path-4);}.cls-16{fill:#ff527b;}.cls-17,.cls-22,.cls-23{stroke:#fff;}.cls-20{stroke:#ccc;}.cls-21{fill:#007cb9;}.cls-23,.cls-24{fill:#fff;}.cls-25{clip-path:url(#clip-path-5);}</style><clipPath id="clip-path"><rect class="cls-1" x="-1175" width="1904" height="369"/></clipPath><clipPath id="clip-path-2"><path class="cls-1" d="M67.9,113.4,117.12,85a3,3,0,0,1,3.13.08h0a31.66,31.66,0,0,0,33,.82l7.94-4.58a3,3,0,0,1,4.1,1.1l8,13.86a3,3,0,0,1-1.1,4.1l-32,18.5a7,7,0,0,0-2.56,9.56L153,155.11a3,3,0,0,1-1.1,4.1l-26,15a3,3,0,0,1-4.1-1.1l-15.42-26.7a7,7,0,0,0-9.56-2.56l-8.52,4.92a3,3,0,0,1-4.1-1.1L66.8,117.5A3,3,0,0,1,67.9,113.4Z"/></clipPath><clipPath id="clip-path-3"><path class="cls-1" d="M412.87,290.54H439.2a5,5,0,0,1,5,5V401.21a0,0,0,0,1,0,0H407.87a0,0,0,0,1,0,0V295.54A5,5,0,0,1,412.87,290.54Z" transform="translate(-115.86 259.36) rotate(-30)"/></clipPath><clipPath id="clip-path-4"><rect class="cls-1" x="229.62" y="176.25" width="199.78" height="47.33" rx="12.42" ry="12.42" transform="translate(-55.81 191.54) rotate(-30)"/></clipPath><clipPath id="clip-path-5"><rect class="cls-1" x="779.06" y="-111" width="799.94" height="623"/></clipPath></defs><title>BQX-Hero-All-Cropped</title><g id="_05" data-name="05"><g class="cls-2"><path class="cls-3" d="M630.93,49.68,619.42,29.75a8.31,8.31,0,0,1,3-11.36h0a8.31,8.31,0,0,1,11.36,3L644.88,40.6a14.17,14.17,0,0,0,19.36,5.19L691.59,30,694,61.74l40.27-23.25"/><path class="cls-4" d="M67.9,113.4,117.12,85a3,3,0,0,1,3.13.08h0a31.66,31.66,0,0,0,33,.82l7.94-4.58a3,3,0,0,1,4.1,1.1l8,13.86a3,3,0,0,1-1.1,4.1l-32,18.5a7,7,0,0,0-2.56,9.56L153,155.11a3,3,0,0,1-1.1,4.1l-26,15a3,3,0,0,1-4.1-1.1l-15.42-26.7a7,7,0,0,0-9.56-2.56l-8.52,4.92a3,3,0,0,1-4.1-1.1L66.8,117.5A3,3,0,0,1,67.9,113.4Z"/><rect class="cls-4" x="49.62" y="122.53" width="15.87" height="40.83" rx="3" ry="3" transform="translate(-63.76 47.93) rotate(-30)"/><rect class="cls-5" x="57.28" y="151.14" width="15.88" height="10.17" rx="3" ry="3" transform="translate(-69.38 53.54) rotate(-30)"/><rect class="cls-5" x="63.57" y="127.53" width="12.79" height="16.5" transform="translate(-58.52 53.18) rotate(-30)"/><path class="cls-6" d="M175.7,146.1h26a5,5,0,0,1,5,5V359.86a0,0,0,0,1,0,0h-36a0,0,0,0,1,0,0V151.1A5,5,0,0,1,175.7,146.1Z" transform="translate(-101.21 128.25) rotate(-30)"/><rect class="cls-5" x="224.15" y="339.61" width="36" height="11.88" rx="5" ry="5" transform="translate(-140.33 167.37) rotate(-30)"/><g class="cls-7"><path class="cls-5" d="M136,100.41h39a3,3,0,0,1,3,3v14.71a3,3,0,0,1-3,3H134a3,3,0,0,1-3-3V105.41a5,5,0,0,1,5-5Z" transform="translate(-34.68 92.1) rotate(-30)"/><path class="cls-5" d="M87.48,135.11H99.32a5,5,0,0,1,5,5v12.71a3,3,0,0,1-3,3H87.48a3,3,0,0,1-3-3V138.11a3,3,0,0,1,3-3Z" transform="translate(-60.09 66.69) rotate(-30)"/></g><line class="cls-8" x1="135.26" y1="160.42" x2="239.18" y2="340.4"/><circle class="cls-9" cx="144.48" cy="176.38" r="4.37" transform="translate(-68.83 95.87) rotate(-30)"/><circle class="cls-10" cx="144.48" cy="176.38" r="1" transform="translate(-68.83 95.87) rotate(-30)"/><rect class="cls-11" x="297.05" y="181.85" width="199.78" height="269.69" transform="translate(-105.17 240.9) rotate(-30)"/><path class="cls-10" d="M412.87,290.54H439.2a5,5,0,0,1,5,5V401.21a0,0,0,0,1,0,0H407.87a0,0,0,0,1,0,0V295.54A5,5,0,0,1,412.87,290.54Z" transform="translate(-115.86 259.36) rotate(-30)"/><g class="cls-12"><path class="cls-13" d="M390.32,324.55a5,5,0,0,1,1.83-6.83l26.45-15.27a5,5,0,0,1,6.83,1.83"/><path class="cls-13" d="M408.61,356.24a5,5,0,0,1,1.83-6.83l26.45-15.27a5,5,0,0,1,6.83,1.83"/></g><path class="cls-5" d="M402.7,295.46l-8.66,5L373.2,264.37a10.22,10.22,0,0,1,1.73-12.46l80.11-77.78-17.47-30.26a.5.5,0,0,0-.68-.18l-18.39,10.62-5-8.66L431.9,135a10.51,10.51,0,0,1,14.34,3.84l17.68,30.62a9.45,9.45,0,0,1-1.6,11.52L381.9,259.09a.23.23,0,0,0,0,.28Z"/><rect class="cls-14" x="229.62" y="176.25" width="199.78" height="47.33" rx="12.42" ry="12.42" transform="translate(-55.81 191.54) rotate(-30)"/><g class="cls-15"><path class="cls-9" d="M224.42,243.33c4.23-5.58,11.7-7,18.46-8.66a116,116,0,0,0,41.23-19.4c15.79-11.71,29-27.68,47.36-34.7,9.06-3.46,18.95-4.56,28.16-7.61a67.88,67.88,0,0,0,20.84-11.25c11.46-9.09,20.3-22.07,33.8-27.67l-13.56-23.49L211,220.09Z"/></g><rect class="cls-4" x="251.07" y="-71.82" width="202.67" height="159.33" transform="translate(43.29 177.25) rotate(-30)"/><circle class="cls-16" cx="323.99" cy="71.97" r="15" transform="translate(7.42 171.64) rotate(-30)"/><line class="cls-17" x1="265.6" y1="22.16" x2="366.71" y2="-36.21"/><line class="cls-17" x1="273.85" y1="36.45" x2="374.96" y2="-21.92"/><line class="cls-17" x1="282.1" y1="50.74" x2="383.21" y2="-7.63"/><line class="cls-17" x1="371.04" y1="52.12" x2="437.72" y2="13.62"/><path class="cls-18" d="M377.94,26.51a12,12,0,0,0-1,8,23.92,23.92,0,0,0,3.2,7.58,15.91,15.91,0,0,0,4,4.75,6.87,6.87,0,0,0,5.87,1.3c3.09-.92,4.64-4.36,5.35-7.51A34.83,34.83,0,0,0,395.94,29c-.28-2.4-1.24-5.22-3.6-5.71-2.12-.44-4.16,1.49-4.58,3.6s.35,4.29,1.26,6.25a15.57,15.57,0,0,0,3.42,5.08A6.37,6.37,0,0,0,402.64,37a15.44,15.44,0,0,0,2-5.3,39.8,39.8,0,0,0,.45-15.07,22.06,22.06,0,0,0,4,10.82c.84,1.18,2.05,2.39,3.49,2.22a3,3,0,0,0,2.26-1.85,9,9,0,0,0,.62-3"/><path class="cls-19" d="M411.86,19.52c2,.39,3.92-.8,5.42-2.15a21.33,21.33,0,0,0,4.94-6.56"/><path class="cls-5" d="M549.4-30.31h31.33a0,0,0,0,1,0,0V130.36a3,3,0,0,1-3,3H552.4a3,3,0,0,1-3-3V-30.31a0,0,0,0,1,0,0Z" transform="translate(49.94 289.44) rotate(-30)"/><rect class="cls-4" x="553.58" y="-24.96" width="4.44" height="163.67" transform="translate(46.03 285.52) rotate(-30)"/><line class="cls-8" x1="527.11" y1="11.62" x2="534.8" y2="7.18"/><line class="cls-8" x1="539.8" y1="33.59" x2="547.48" y2="29.15"/><line class="cls-8" x1="552.49" y1="55.57" x2="560.17" y2="51.13"/><line class="cls-8" x1="565.17" y1="77.54" x2="572.86" y2="73.11"/><line class="cls-8" x1="577.86" y1="99.52" x2="585.55" y2="95.08"/><line class="cls-8" x1="590.55" y1="121.49" x2="598.23" y2="117.06"/><path class="cls-20" d="M523.69,140.85l-12.69-22a12.57,12.57,0,0,1-1.68-5.84l-.53-14.8a1.7,1.7,0,0,1,2.67-1.47l12.07,8.29a12.57,12.57,0,0,1,3.77,4.08l20.22,35a1.88,1.88,0,0,1-.69,2.56L537,152.43a1.88,1.88,0,0,1-2.56-.69l-16.22-28.09a2.19,2.19,0,0,1,.8-3l6.16-3.56a2.19,2.19,0,0,1,3,.8l14.4,24.95"/><path class="cls-20" d="M470,109.52,476.57,85a12.57,12.57,0,0,1,2.94-5.31l10.1-10.84a1.7,1.7,0,0,1,2.92.85l2.68,14.4a12.57,12.57,0,0,1-.22,5.55l-10.47,39.06a1.88,1.88,0,0,1-2.3,1.33l-11-3a1.88,1.88,0,0,1-1.33-2.3l8.39-31.33A2.19,2.19,0,0,1,481,91.93l6.87,1.84a2.19,2.19,0,0,1,1.55,2.69l-7.46,27.83"/><path class="cls-4" d="M647,60.73l-17.35-14.8a.85.85,0,0,0-1.39.8l4.14,22.43a7.69,7.69,0,0,0,.9,2.45l5.4,9.35,15.37-8.87-5.4-9.35A7.69,7.69,0,0,0,647,60.73Z"/><path class="cls-21" d="M641.34,67.72a8.87,8.87,0,0,0-3.25,12.12l36.15,62.61,15.37-8.87L653.47,71A8.87,8.87,0,0,0,641.34,67.72Z"/><path class="cls-5" d="M677.49,130.33a8.87,8.87,0,0,0-3.25,12.12l29.81,51.64a8.87,8.87,0,0,0,15.37-8.87l-29.81-51.64A8.87,8.87,0,0,0,677.49,130.33Z"/><path class="cls-22" d="M695.24,178.83l-2.77,1.6a2.42,2.42,0,0,1-3.31-.89l-28.29-49"/><circle class="cls-23" cx="658.89" cy="131.69" r="2.29" transform="translate(22.43 347.09) rotate(-30)"/><path class="cls-5" d="M515.92,243.62l-7.51-20.5a10.29,10.29,0,0,1,4.52-12.45l6.58-3.8,5.17,31.7Z"/><path class="cls-5" d="M565.84,309.05H668.09a0,0,0,0,1,0,0v9.67a5,5,0,0,1-5,5H570.84a5,5,0,0,1-5-5v-9.67A0,0,0,0,1,565.84,309.05Z" transform="translate(-75.54 350.87) rotate(-30)"/><path class="cls-5" d="M595.55,163l-79.89,46.13a8.29,8.29,0,0,0-3.57,7.83l3.82,26.7,88.55-51.12-3.82-26.7C600.23,162.85,597.95,161.58,595.55,163Z"/><path class="cls-4" d="M537.95,210.32H640.2a0,0,0,0,1,0,0v110.5a5,5,0,0,1-5,5H542.95a5,5,0,0,1-5-5V210.32A0,0,0,0,1,537.95,210.32Z" transform="translate(-55.12 330.45) rotate(-30)"/><rect class="cls-6" x="554.91" y="233.3" width="56.67" height="84.52" rx="3" ry="3" transform="translate(-59.64 328.54) rotate(-30)"/><rect class="cls-6" x="602.85" y="215.05" width="14" height="47.19" rx="3" ry="3" transform="translate(-37.62 336.9) rotate(-30)"/><rect class="cls-16" x="625.22" y="261.19" width="14" height="32.39" rx="3" ry="3" transform="translate(-53.99 353.27) rotate(-30)"/><line class="cls-8" x1="553.93" y1="243.69" x2="596.19" y2="316.88"/><line class="cls-8" x1="570.29" y1="234.24" x2="612.55" y2="307.44"/><line class="cls-8" x1="546.01" y1="267.74" x2="595.09" y2="239.41"/><line class="cls-8" x1="554.45" y1="282.35" x2="603.52" y2="254.02"/><line class="cls-8" x1="562.88" y1="296.96" x2="611.96" y2="268.63"/><line class="cls-8" x1="571.32" y1="311.57" x2="620.39" y2="283.24"/><line class="cls-8" x1="608.86" y1="250.93" x2="620.99" y2="243.93"/><line class="cls-8" x1="600.43" y1="236.32" x2="612.55" y2="229.32"/><rect class="cls-10" x="531.95" y="237.77" width="17" height="6.67" rx="3.33" ry="3.33" transform="translate(-48.15 302.53) rotate(-30)"/><path class="cls-21" d="M565.21,189.85,523,214.2a3.17,3.17,0,0,0-1.37,3l1.68,11.73c.17,1.21,1.13,1.74,2.11,1.17l66.25-38.25a3.05,3.05,0,0,0,1.33-2Z"/><path class="cls-10" d="M593.09,188.86l-1.68-11.73c-.17-1.21-1.13-1.74-2.11-1.17l-24.08,13.9H593A3,3,0,0,0,593.09,188.86Z"/><rect class="cls-4" x="549.5" y="217.03" width="53.72" height="6.67" rx="3.33" ry="3.33" transform="translate(-32.97 317.71) rotate(-30)"/><path class="cls-1" d="M63.81,253.56l14-8.1a23.1,23.1,0,1,0-11.09,24.72l-4.78-6A7,7,0,0,1,63.81,253.56Z"/><path class="cls-1" d="M85.52,249.89l.21.14Z"/><path class="cls-5" d="M89.65,283l6.66-3.85-12,6.9a3.51,3.51,0,0,1-4.43-.77L67.61,270.83l-.23.14,13.54,17a3.51,3.51,0,0,0,4.5.85l4.51-2.6-.77-1.34A1.34,1.34,0,0,1,89.65,283Z"/><path class="cls-5" d="M102,275.92l-5.53,3.19a1.34,1.34,0,0,1,1.83.49l.77,1.34,4.74-2.74a3.51,3.51,0,0,0,1.51-4.33L94.2,245.59l9.32,26.11A3.51,3.51,0,0,1,102,275.92Z"/><path class="cls-5" d="M66.75,270.18l0,0,.18-.11-5-5.86Z"/><path class="cls-5" d="M86,250.3a2.8,2.8,0,0,0-.3-.28l-.21-.14a2.77,2.77,0,0,0-2.92-.08l-3.34,1.93a24.29,24.29,0,0,1-.33,2.67Z"/><path class="cls-5" d="M70.14,259.48l7.66-4.42a23.26,23.26,0,0,0,.42-2.72l-6.79,3.92A2.81,2.81,0,0,0,70.14,259.48Z"/><path class="cls-5" d="M84,252.24a2.8,2.8,0,0,1,2.8,0A2.67,2.67,0,0,0,86,250.3l-7.1,4.1c-.05.29-.1.58-.17.87Z"/><path class="cls-5" d="M71.43,261.12a2.8,2.8,0,0,1,1.39-2.43L77.57,256c.08-.3.15-.59.22-.89l-7.66,4.42a2.67,2.67,0,0,0,1.3,1.64Z"/><path class="cls-10" d="M86.81,252.42h0Z"/><path class="cls-14" d="M77.57,256l-4.75,2.74a2.8,2.8,0,0,0-1.39,2.43,2.76,2.76,0,0,0,2.8,0l1.85-1.07A23.29,23.29,0,0,0,77.57,256Z"/><path class="cls-14" d="M84,252.24l-5.24,3a24.29,24.29,0,0,1-1.23,4l7.87-4.54a2.81,2.81,0,0,0,1.4-2.24h0c0-.06,0-.12,0-.17A2.8,2.8,0,0,0,84,252.24Z"/><path class="cls-4" d="M121.63,332.07h0Z"/><polygon class="cls-4" points="112.02 324.46 114.68 325.17 112.02 324.46 112.02 324.46"/><path class="cls-4" d="M99,280.94l-9.11,5.26,5.21,9-4-6.85,1.11-.64a4,4,0,0,1,5.43,1.46l24.63,42.66a1.76,1.76,0,0,1-.67.22,1.75,1.75,0,0,0,1.53-1.49l.9-6.2Z"/><polygon class="cls-4" points="115.68 326.76 115.37 327.92 115.68 326.76 115.68 326.76"/><polygon class="cls-4" points="107.15 312 107.01 312.52 107.15 312 107.15 312"/><polygon class="cls-4" points="106.88 314.76 109.09 315.35 109.09 315.35 106.88 314.76"/><polygon class="cls-4" points="103.89 309.8 106.25 310.43 106.25 310.43 103.89 309.8"/><polygon class="cls-4" points="109.99 316.92 109.26 319.67 109.26 319.67 109.99 316.92 109.99 316.92"/><path class="cls-4" d="M98.27,279.6a1.34,1.34,0,0,0-1.83-.49l-.13.07L89.65,283a1.34,1.34,0,0,0-.49,1.83l.77,1.34L99,280.94Z"/><path class="cls-24" d="M115,329.63l-.07-.12.43-1.59-.43,1.59.07.12,5.82,2.32a1.75,1.75,0,0,0,.78.12,1.75,1.75,0,0,1-.78-.12Z"/><path class="cls-24" d="M114.68,325.17l.1,0a1.28,1.28,0,0,1,.9,1.56l.33-1.23Z"/><path class="cls-24" d="M106.25,310.43a1.28,1.28,0,0,1,.9,1.56l.33-1.23Z"/><polygon class="cls-24" points="107.01 312.52 106.44 314.64 106.88 314.76 106.44 314.64 107.01 312.52"/><polygon class="cls-24" points="95.14 295.22 103.5 309.7 103.89 309.8 103.5 309.7 95.14 295.22"/><path class="cls-24" d="M109.09,315.35a1.28,1.28,0,0,1,.9,1.56l.33-1.23Z"/><path class="cls-24" d="M121.69,332.06h0Z"/><polygon class="cls-24" points="109.26 319.67 112.02 324.46 112.02 324.46 109.26 319.67 109.26 319.67"/><path class="cls-5" d="M97.73,289.19a4,4,0,0,0-5.43-1.46l-1.11.64,4,6.85,8.36,14.48.4.11,2.35.63h0l1.23.33-.33,1.23h0l-.14.52-.57,2.12.44.12,2.21.59h0l1.23.33-.33,1.23h0l-.74,2.75,2.77,4.79,2.65.71,1.33.36-.33,1.23h0l-.31,1.16-.43,1.59.07.12,5.82,2.32a1.75,1.75,0,0,0,.78.12h.08a1.76,1.76,0,0,0,.67-.22Z"/><path class="cls-21" d="M86,250.3a2.81,2.81,0,0,0-.3-.28,2.8,2.8,0,0,1,.3.28Z"/><path class="cls-21" d="M84.74,249.53a2.82,2.82,0,0,1,.79.36A2.81,2.81,0,0,0,84.74,249.53Z"/><path class="cls-21" d="M82.6,249.81a2.8,2.8,0,0,1,1.6-.37A2.8,2.8,0,0,0,82.6,249.81Z"/><path class="cls-21" d="M70.39,260.1a2.78,2.78,0,0,0,1,1h0A2.78,2.78,0,0,1,70.39,260.1Z"/><path class="cls-21" d="M86.44,250.84a2.78,2.78,0,0,1,.36,1.41h0A2.67,2.67,0,0,0,86,250.3h0A2.8,2.8,0,0,1,86.44,250.84Z"/><path class="cls-21" d="M86.81,252.44a2.82,2.82,0,0,1-.56,1.5A2.82,2.82,0,0,0,86.81,252.44Z"/><polygon class="cls-21" points="74.23 261.13 76.08 260.06 76.08 260.06 74.23 261.13"/><path class="cls-21" d="M86.81,252.42c0-.06,0-.12,0-.17h0C86.81,252.31,86.82,252.36,86.81,252.42Z"/><path class="cls-21" d="M71.43,261.12h0a2.82,2.82,0,0,0,1.2.38A2.82,2.82,0,0,1,71.43,261.12Z"/><path class="cls-21" d="M85.41,254.68l-7.87,4.54h0l7.87-4.54a2.8,2.8,0,0,0,.84-.74A2.8,2.8,0,0,1,85.41,254.68Z"/><polygon class="cls-21" points="96.31 279.19 96.44 279.11 96.44 279.11 96.31 279.19"/><path class="cls-10" d="M49.25,272.47a23.11,23.11,0,1,1,28.59-27l.91-.53A24.12,24.12,0,1,0,67.28,271l.1-.06-.63-.79A23,23,0,0,1,49.25,272.47Z"/><path class="cls-24" d="M67,270.06l-.18.11,0,0,.63.79.23-.14Z"/><path class="cls-5" d="M78.21,252.34a23.26,23.26,0,0,1-.42,2.72c-.07.3-.14.6-.22.89l1.2-.69c.06-.29.11-.58.17-.87a24.29,24.29,0,0,0,.33-2.67Z"/><path class="cls-10" d="M77.54,259.22a24.29,24.29,0,0,0,1.23-4l-1.2.69a23.29,23.29,0,0,1-1.49,4.11Z"/><path class="cls-21" d="M103.51,271.7,94.2,245.59a7,7,0,0,0-10.13-3.72l-5.31,3.07-.91.53-14,8.1A7,7,0,0,0,62,264.19l5,5.86a23,23,0,0,0,9.13-10l-1.85,1.07a2.81,2.81,0,0,1-2.81-4.87l6.79-3.92,1.06-.61,3.34-1.93a2.74,2.74,0,0,1,2.92.08l.21.14a2.75,2.75,0,0,1,1.07,2.22c0,.06,0,.12,0,.17h0a2.81,2.81,0,0,1-1.4,2.24l-7.87,4.54a23.88,23.88,0,0,1-9.93,11.61l12.31,14.49a3.51,3.51,0,0,0,4.43.77l12-6.9.13-.07h0l5.53-3.19A3.51,3.51,0,0,0,103.51,271.7Z"/><path class="cls-10" d="M75.09,263.81a2.79,2.79,0,0,1-1.29.09A23,23,0,0,1,67,270.06l.65.77A23.94,23.94,0,0,0,75.09,263.81Z"/><path class="cls-10" d="M76.09,260.06a23.08,23.08,0,0,1-2.29,3.83,2.79,2.79,0,0,0,1.29-.09,24.15,24.15,0,0,0,2.45-4.59Z"/><polygon class="cls-24" points="76.08 260.06 76.08 260.06 77.54 259.22 77.54 259.22 76.08 260.06"/><path class="cls-1" d="M50.93,275a6.75,6.75,0,0,0-13.14-2.2l11.47,6.62A6.72,6.72,0,0,0,50.93,275Z"/><path class="cls-6" d="M43.31,281.69a6.64,6.64,0,0,0,6-2.27L37.79,272.8a6.68,6.68,0,0,0,.55,5.59l4.11,2.37A2.15,2.15,0,0,1,43.31,281.69Z"/><path class="cls-6" d="M50.09,280a7.74,7.74,0,0,1-5.92,2.76c-.22,0-.44,0-.66,0a2.13,2.13,0,0,1-.28,1,2.16,2.16,0,0,1-3,.79l-8.46-4.88A2.16,2.16,0,0,1,34,275.87l2.87,1.66a7.62,7.62,0,0,1,.06-5.23l-5.22-3A6.51,6.51,0,0,0,23,271.39L1.55,304.56a6.51,6.51,0,0,0,2.22,9.17l21,12.12a6.51,6.51,0,0,0,9.05-2.67l18-35.13A6.51,6.51,0,0,0,50.09,280Z"/><path class="cls-14" d="M43.31,281.69a2.15,2.15,0,0,0-.87-.94l-4.11-2.37A6.76,6.76,0,0,0,43.31,281.69Z"/><path class="cls-14" d="M36.85,277.53,34,275.87a2.16,2.16,0,0,0-2.16,3.74l8.46,4.88a2.16,2.16,0,0,0,3-.79,2.13,2.13,0,0,0,.28-1A7.77,7.77,0,0,1,36.85,277.53Z"/><path class="cls-10" d="M44.17,268.24a6.75,6.75,0,0,1,5.09,11.18l0,0a6.51,6.51,0,0,1,.8.55,7.75,7.75,0,1,0-13.18-7.7l.88.51A6.76,6.76,0,0,1,44.17,268.24Z"/><path class="cls-6" d="M36.85,277.53l1.49.86a6.68,6.68,0,0,1-.55-5.59l-.88-.51a7.62,7.62,0,0,0-.06,5.23Z"/><path class="cls-10" d="M49.26,279.42a6.64,6.64,0,0,1-6,2.27,2.16,2.16,0,0,1,.2,1c.22,0,.44,0,.66,0A7.74,7.74,0,0,0,50.09,280a6.51,6.51,0,0,0-.8-.55Z"/><path class="cls-10" d="M43.31,281.69a6.76,6.76,0,0,1-5-3.31l-1.49-.86a7.77,7.77,0,0,0,6.66,5.19A2.16,2.16,0,0,0,43.31,281.69Z"/><rect class="cls-8" x="14.32" y="295.69" width="21.83" height="10.17" rx="5.08" ry="5.08" transform="translate(153.77 27.68) rotate(30)"/></g></g></svg>