<svg id="Layer_1" data-name="Layer 1" xmlns="http://www.w3.org/2000/svg" viewBox="0 0 100 100"><defs><style>.cls-1{fill:#d1e2e5;}.cls-2{fill:#91b0bf;}.cls-3{fill:#fff;}</style></defs><title>18B40000.I_BQX_Icons_Outlined</title><circle class="cls-1" cx="50" cy="50.13" r="25"/><path d="M41.86,26.49,63.44,38.32,47.5,47.06,28.83,36.83c-.27.42-.52.85-.77,1.29L46.75,48.36V67.65l-21-11.52c.17.69.37,1.37.6,2L47.14,69.57l.36.2,18.25-10V37.87l-21.87-12C43.2,26.05,42.52,26.26,41.86,26.49ZM64.25,58.87l-16,8.78V48.36l16-8.78Z"/><path class="cls-2" d="M48.25,67.65l16-8.78V39.58l-16,8.78ZM50.56,50l11.38-6.29v13.6l-11.38,6.2Z"/><path class="cls-2" d="M63.44,38.32,41.86,26.49a25.06,25.06,0,0,0-13,10.34L47.5,47.06Z"/><path d="M61.94,43.71,50.56,50V63.51l11.38-6.2ZM52.06,61V52.59l7.68,4.21Zm8.38-5.51-8.37-4.59,8.37-4.63Z"/><polygon class="cls-2" points="60.44 55.47 60.44 46.25 52.07 50.88 60.44 55.47"/><polygon class="cls-2" points="52.06 60.98 59.74 56.8 52.06 52.59 52.06 60.98"/><path class="cls-2" d="M46.75,48.36,28.07,38.12a25,25,0,0,0-2.34,18l21,11.52Z"/><path class="cls-3" d="M40.45,27.74a1.19,1.19,0,0,0,1.18-1.17q-1,.37-2,.82A1.18,1.18,0,0,0,40.45,27.74Z"/><path class="cls-3" d="M45.55,29.56a1.19,1.19,0,0,0,1.19,1.19,1.17,1.17,0,0,0,1.14-1l-2-1.08A1.18,1.18,0,0,0,45.55,29.56Z"/><circle class="cls-3" cx="42.55" cy="29.56" r="1.19"/><circle class="cls-3" cx="38.36" cy="29.56" r="1.19"/><path class="cls-3" d="M35.27,30c-.34.25-.69.5-1,.77A1.17,1.17,0,0,0,35.27,30Z"/><path class="cls-3" d="M53,33.74a1.17,1.17,0,0,0,1-.59L52,32a1.16,1.16,0,0,0-.14.53A1.19,1.19,0,0,0,53,33.74Z"/><circle class="cls-3" cx="48.83" cy="32.56" r="1.19"/><circle class="cls-3" cx="44.64" cy="32.56" r="1.19"/><circle class="cls-3" cx="40.45" cy="32.56" r="1.19"/><circle class="cls-3" cx="36.26" cy="32.56" r="1.19"/><path class="cls-3" d="M31.36,33.48a1.16,1.16,0,0,0,.72.26,1.19,1.19,0,0,0,1.19-1.19,1.16,1.16,0,0,0-.27-.73C32.42,32.35,31.87,32.9,31.36,33.48Z"/><path class="cls-3" d="M59.31,36.74a1.17,1.17,0,0,0,.74-.28l-1.9-1a1.11,1.11,0,0,0,0,.14A1.19,1.19,0,0,0,59.31,36.74Z"/><circle class="cls-3" cx="55.12" cy="35.56" r="1.19"/><circle class="cls-3" cx="50.93" cy="35.56" r="1.19"/><circle class="cls-3" cx="46.74" cy="35.56" r="1.19"/><circle class="cls-3" cx="42.55" cy="35.56" r="1.19"/><circle class="cls-3" cx="38.36" cy="35.56" r="1.19"/><circle class="cls-3" cx="34.17" cy="35.56" r="1.19"/><path class="cls-3" d="M30,36.74a1.18,1.18,0,0,0,.53-2.23c-.49.61-.95,1.23-1.38,1.88A1.18,1.18,0,0,0,30,36.74Z"/><path class="cls-3" d="M62.59,38.56a1.19,1.19,0,1,0-1.6,1.1l1.54-.85A1.14,1.14,0,0,0,62.59,38.56Z"/><circle class="cls-3" cx="57.21" cy="38.56" r="1.19"/><circle class="cls-3" cx="53.02" cy="38.56" r="1.19"/><circle class="cls-3" cx="48.83" cy="38.56" r="1.19"/><circle class="cls-3" cx="44.64" cy="38.56" r="1.19"/><circle class="cls-3" cx="40.45" cy="38.56" r="1.19"/><circle class="cls-3" cx="36.26" cy="38.56" r="1.19"/><path class="cls-3" d="M32.07,37.37A1.18,1.18,0,0,0,31,38l2.05,1.13a1.15,1.15,0,0,0,.18-.59A1.19,1.19,0,0,0,32.07,37.37Z"/><path class="cls-3" d="M58.19,41.2l1.4-.77a1.14,1.14,0,0,0-.29-.06A1.17,1.17,0,0,0,58.19,41.2Z"/><path class="cls-3" d="M56.3,41.56a1.19,1.19,0,1,0-1.19,1.19,1.17,1.17,0,0,0,.4-.08l.22-.12A1.17,1.17,0,0,0,56.3,41.56Z"/><circle class="cls-3" cx="50.93" cy="41.56" r="1.19"/><circle class="cls-3" cx="46.74" cy="41.56" r="1.19"/><circle class="cls-3" cx="42.55" cy="41.56" r="1.19"/><path class="cls-3" d="M39.54,41.56a1.19,1.19,0,0,0-1.19-1.19,1.17,1.17,0,0,0-1.16,1l1.91,1A1.17,1.17,0,0,0,39.54,41.56Z"/><path class="cls-3" d="M51.83,44.56a1.1,1.1,0,0,0,0,.11l1.89-1a1.16,1.16,0,0,0-.72-.27A1.19,1.19,0,0,0,51.83,44.56Z"/><circle class="cls-3" cx="48.83" cy="44.56" r="1.19"/><path class="cls-3" d="M45.83,44.56a1.19,1.19,0,0,0-2.37,0,1.15,1.15,0,0,0,.06.32l1.46.8A1.17,1.17,0,0,0,45.83,44.56Z"/><path class="cls-3" d="M46.74,46.37a1.16,1.16,0,0,0-.36.07l1.13.62.22-.12A1.17,1.17,0,0,0,46.74,46.37Z"/><path class="cls-3" d="M27.33,39.59a1.16,1.16,0,0,0,.55.15A1.18,1.18,0,0,0,29,38.66l-1-.54C27.81,38.6,27.56,39.09,27.33,39.59Z"/><path class="cls-3" d="M34.17,42.74a1.18,1.18,0,0,0,1.07-.7l-2.05-1.13a1.15,1.15,0,0,0-.21.63A1.19,1.19,0,0,0,34.17,42.74Z"/><circle class="cls-3" cx="29.98" cy="41.56" r="1.19"/><path class="cls-3" d="M27,41.56a1.16,1.16,0,0,0-.22-.65c-.23.58-.43,1.17-.62,1.76A1.17,1.17,0,0,0,27,41.56Z"/><path class="cls-3" d="M40.45,45.74a1.18,1.18,0,0,0,.85-.37l-2-1.09a1.14,1.14,0,0,0-.05.27A1.19,1.19,0,0,0,40.45,45.74Z"/><circle class="cls-3" cx="36.26" cy="44.56" r="1.19"/><circle class="cls-3" cx="32.07" cy="44.56" r="1.19"/><circle class="cls-3" cx="27.88" cy="44.56" r="1.19"/><path class="cls-3" d="M46.74,48.74h0v-.38l-1.17-.64A1.17,1.17,0,0,0,46.74,48.74Z"/><circle class="cls-3" cx="42.55" cy="47.56" r="1.19"/><circle class="cls-3" cx="38.36" cy="47.56" r="1.19"/><circle class="cls-3" cx="34.17" cy="47.56" r="1.19"/><circle class="cls-3" cx="29.98" cy="47.56" r="1.19"/><path class="cls-3" d="M27,47.56a1.19,1.19,0,0,0-1.19-1.19,1.16,1.16,0,0,0-.51.13c-.09.65-.17,1.31-.22,2a1.16,1.16,0,0,0,.73.27A1.19,1.19,0,0,0,27,47.56Z"/><circle class="cls-3" cx="44.64" cy="50.56" r="1.19"/><circle class="cls-3" cx="40.45" cy="50.56" r="1.19"/><circle class="cls-3" cx="36.26" cy="50.56" r="1.19"/><circle class="cls-3" cx="32.07" cy="50.56" r="1.19"/><circle class="cls-3" cx="27.88" cy="50.56" r="1.19"/><path class="cls-3" d="M46.74,54.74h0V52.37h0a1.19,1.19,0,0,0,0,2.38Z"/><circle class="cls-3" cx="42.55" cy="53.56" r="1.19"/><circle class="cls-3" cx="38.36" cy="53.56" r="1.19"/><circle class="cls-3" cx="34.17" cy="53.56" r="1.19"/><circle class="cls-3" cx="29.98" cy="53.56" r="1.19"/><path class="cls-3" d="M25.79,52.37a1.16,1.16,0,0,0-.65.22c.07.7.16,1.4.28,2.08a1.16,1.16,0,0,0,.37.07,1.19,1.19,0,0,0,0-2.37Z"/><circle class="cls-3" cx="44.64" cy="56.56" r="1.19"/><circle class="cls-3" cx="40.45" cy="56.56" r="1.19"/><circle class="cls-3" cx="36.26" cy="56.56" r="1.19"/><circle class="cls-3" cx="32.07" cy="56.56" r="1.19"/><path class="cls-3" d="M29.07,56.56a1.19,1.19,0,0,0-2.37,0,1.1,1.1,0,0,0,0,.11l1.7.93A1.18,1.18,0,0,0,29.07,56.56Z"/><path class="cls-3" d="M46.74,60.74h0V58.37h0a1.19,1.19,0,0,0,0,2.38Z"/><circle class="cls-3" cx="42.55" cy="59.56" r="1.19"/><circle class="cls-3" cx="38.36" cy="59.56" r="1.19"/><path class="cls-3" d="M35.35,59.56a1.19,1.19,0,0,0-2.37,0,1.16,1.16,0,0,0,.23.67l.94.51h0A1.19,1.19,0,0,0,35.35,59.56Z"/><path class="cls-3" d="M30,58.37l-.11,0L31,59A1.18,1.18,0,0,0,30,58.37Z"/><circle class="cls-3" cx="44.64" cy="62.56" r="1.19"/><circle class="cls-3" cx="40.45" cy="62.56" r="1.19"/><path class="cls-3" d="M36.26,61.37a1.15,1.15,0,0,0-.61.19l1.8,1A1.19,1.19,0,0,0,36.26,61.37Z"/><path class="cls-3" d="M46.75,64.37h0a1.19,1.19,0,0,0,0,2.38h0Z"/><path class="cls-3" d="M43.73,65.56a1.19,1.19,0,0,0-1.19-1.19,1.17,1.17,0,0,0-.92.47l2,1.11A1.17,1.17,0,0,0,43.73,65.56Z"/></svg>