<svg xmlns="http://www.w3.org/2000/svg" xmlns:xlink="http://www.w3.org/1999/xlink" width="324.81" height="307.57" viewBox="0 0 324.81 307.57"><defs><style>.cls-1,.cls-13,.cls-14,.cls-16,.cls-24,.cls-8{fill:none;}.cls-2{isolation:isolate;}.cls-3{clip-path:url(#clip-path);}.cls-22,.cls-4{fill:#007cb9;}.cls-12,.cls-4,.cls-8{mix-blend-mode:multiply;}.cls-12,.cls-5{fill:#8fd8f2;}.cls-6{fill:#fff;}.cls-7{clip-path:url(#clip-path-2);}.cls-8{stroke:#8fd8f2;}.cls-13,.cls-14,.cls-24,.cls-8{stroke-miterlimit:10;}.cls-9{fill:#d1e2e5;}.cls-10{fill:#0a3360;}.cls-11{fill:#ffb061;}.cls-13{stroke:#f46c0f;}.cls-13,.cls-16,.cls-24{stroke-linecap:round;}.cls-14{stroke:#fff;}.cls-15{clip-path:url(#clip-path-3);}.cls-16,.cls-24{stroke:#0a3360;}.cls-16{stroke-linejoin:round;}.cls-17{clip-path:url(#clip-path-4);}.cls-18{clip-path:url(#clip-path-5);}.cls-19{clip-path:url(#clip-path-6);}.cls-20{fill:#ff8f2f;}.cls-21{clip-path:url(#clip-path-7);}.cls-23{fill:#efab00;}.cls-25{fill:#ff527b;}.cls-26{clip-path:url(#clip-path-8);}</style><clipPath id="clip-path"><rect class="cls-1" x="-1579.12" y="-61.43" width="1904" height="369"/></clipPath><clipPath id="clip-path-2"><path class="cls-1" d="M143.41,96.23v32.35h-5.85V98.36a39.62,39.62,0,0,0-24.74,31.38L108,164.41l-18.5-41.34-25.19,7,25.87,69a20.92,20.92,0,0,0,29,11.37l17.21-8.6L151.82,93.25Z"/></clipPath><clipPath id="clip-path-3"><path class="cls-1" d="M154.14,52c-2.21.06-2.82-1.58-1.72-4.16s3.47-4.38,7.47-4.51a5.9,5.9,0,0,1,6.23,5.49c.06,1.93-.92,2.86-2.48,2.9l-9.48.28"/></clipPath><clipPath id="clip-path-4"><path class="cls-1" d="M137.65,22.42c-1.73,4.24-4,15-2.35,26.13a14.49,14.49,0,0,1,0,4.51L132.82,67.9a17.67,17.67,0,0,0,17.44,20.51H186v-66Z"/></clipPath><clipPath id="clip-path-5"><path class="cls-1" d="M131.79,52c-1.84.06-2.35-1.58-1.44-4.16a6.54,6.54,0,0,1,6.22-4.51c3.68-.14,5.14,3.56,5.19,5.49s-.76,2.86-2.07,2.9l-7.9.28"/></clipPath><clipPath id="clip-path-6"><path class="cls-1" d="M189,46.85h.11a9.2,9.2,0,0,1,8,9.83,9.09,9.09,0,0,1-14.3,6.62l1.43-12.49A4.44,4.44,0,0,1,189,46.85Z"/></clipPath><clipPath id="clip-path-7"><path class="cls-1" d="M293.54,150.42l-50.11-40.77a72.33,72.33,0,0,0-40.88-16.05v19.95L221,140.25l42,28.33-22.67,39.33c4,12.17,20.83,14.33,20.83,14.33l35.41-47.61A17.65,17.65,0,0,0,293.54,150.42Z"/></clipPath><clipPath id="clip-path-8"><rect class="cls-1" x="136.78" y="159.17" width="65.76" height="7.8"/></clipPath></defs><title>BQX-Hero-Quote</title><g class="cls-2"><g id="_07" data-name="07"><g class="cls-3"><circle class="cls-4" cx="178.81" cy="231.08" r="178"/><path class="cls-5" d="M143.41,96.23v32.35h-5.85V98.36a39.62,39.62,0,0,0-24.74,31.38L108,164.41l-18.5-41.34-25.19,7,25.87,69a20.92,20.92,0,0,0,29,11.37l17.21-8.6L151.82,93.25Z"/><path class="cls-6" d="M143.41,128.58V96.23l-4.6,1.63c-.42.15-.83.33-1.25.49v30.22Z"/><g class="cls-7"><line class="cls-8" x1="94.25" y1="130.88" x2="68.06" y2="141.16"/></g><polygon class="cls-5" points="227.56 179.83 224.06 137.4 188.65 93.42 151.82 93.25 140.49 150.75 227.56 179.83"/><line class="cls-8" x1="156.48" y1="104.71" x2="156.48" y2="135.04"/><path class="cls-6" d="M152.31,90.47l4.17,14.24-5.14,8.54a1,1,0,0,1-1.9-.32l-1.13-5.31a33.4,33.4,0,0,1-.73-7V94.76Z"/><path class="cls-6" d="M202.56,128.58h-65l-20.4,111a112,112,0,0,0-1.85,20.25v48l146.5-.18-30.75-85.32-3.5-42.42h0A49.9,49.9,0,0,1,205,145Z"/><circle class="cls-9" cx="137.56" cy="144.58" r="9.54"/><polygon class="cls-9" points="231.05 255.07 246.92 266.25 242.17 253.06 231.05 255.07"/><path class="cls-10" d="M89.48,123.07l-22,8.46a2.43,2.43,0,0,1-3.15-1.42h0a2.43,2.43,0,0,1,1.11-3l20.79-11.42Z"/><path class="cls-6" d="M65.77,119.65h2.15a.15.15,0,0,1,.15.15v7.78a.15.15,0,0,1-.15.15H65.77a1.15,1.15,0,0,1-1.15-1.15V120.8A1.15,1.15,0,0,1,65.77,119.65Z" transform="translate(-44.08 37.05) rotate(-23.67)"/><path class="cls-11" d="M71,81.8a2.13,2.13,0,0,0-2.91-1A2.22,2.22,0,0,0,67,83.11l2,12.76a5.74,5.74,0,0,1-6.51,6.57l-1.8-.27a36.34,36.34,0,0,1-12.43-4.23l-11-6.12a2,2,0,0,0-2.55.48,1.87,1.87,0,0,0-.1,2l-.3-.17a2,2,0,0,0-2.5.38,1.9,1.9,0,0,0,.51,2.85l.71.41a1.88,1.88,0,0,0-1.5,1.23,2,2,0,0,0,.93,2.33l1.8,1a1.49,1.49,0,0,0-1.29.91,1.56,1.56,0,0,0,.65,1.9l.26.17A63.63,63.63,0,0,0,61,115.45,3.82,3.82,0,0,1,64,117.73l5.65,12.94,19.79-7.6Z"/><rect class="cls-9" x="127.98" y="243.79" width="64.83" height="43.62"/><polygon class="cls-12" points="107.98 164.41 113.07 175.78 111.03 142.56 107.98 164.41"/><circle class="cls-10" cx="156.48" cy="119.44" r="1.68"/><path class="cls-13" d="M58.6,108.62a9.75,9.75,0,0,1,11.63,2.25"/><line class="cls-14" x1="128.02" y1="251.75" x2="192.81" y2="251.75"/><path class="cls-11" d="M137.65,22.42c-1.73,4.24-4,15-2.35,26.13a14.49,14.49,0,0,1,0,4.51L132.82,67.9a17.67,17.67,0,0,0,17.44,20.51H186v-66Z"/><path class="cls-11" d="M186,94.46l-13,10.25H156a3.69,3.69,0,0,1-3.69-3.69V84.21H186Z"/><path class="cls-6" d="M154.14,52c-2.21.06-2.82-1.58-1.72-4.16s3.47-4.38,7.47-4.51a5.9,5.9,0,0,1,6.23,5.49c.06,1.93-.92,2.86-2.48,2.9l-9.48.28"/><g class="cls-15"><circle class="cls-10" cx="158.54" cy="48.01" r="5.13"/></g><path class="cls-13" d="M146.46,61.6l-3.64-1a3,3,0,0,1-2-4.2l5.09-11.14"/><path class="cls-16" d="M155.9,65a8.51,8.51,0,0,1-9.84,5"/><g class="cls-17"><path class="cls-6" d="M131.79,52c-1.84.06-2.35-1.58-1.44-4.16a6.54,6.54,0,0,1,6.22-4.51c3.68-.14,5.14,3.56,5.19,5.49s-.76,2.86-2.07,2.9l-7.9.28"/><g class="cls-18"><ellipse class="cls-10" cx="135.45" cy="48.01" rx="4.27" ry="5.13"/></g></g><path class="cls-10" d="M188,8.79a15.82,15.82,0,0,0-9.68,3.41l-2,1.57a13.86,13.86,0,0,0-23.52-5.11l-.07-.08L141.12,2.22c-8.24-4.53-18.67,1.15-18.81,10.56a12.2,12.2,0,0,0,4.06,9.4c9.67,8.43,28.75,4.89,37,.28V25a14.65,14.65,0,0,0,11.56,14.32h0a3.75,3.75,0,0,1,3,4.1L176.51,55.8a5.18,5.18,0,0,0,5.14,5.8h3L186,74.89l15.78-44.8C205.27,19.67,198.92,8.85,188,8.79Z"/><path class="cls-11" d="M189,46.85h.11a9.2,9.2,0,0,1,8,9.83,9.09,9.09,0,0,1-14.3,6.62l1.43-12.49A4.44,4.44,0,0,1,189,46.85Z"/><g class="cls-19"><line class="cls-13" x1="181.06" y1="53" x2="199.61" y2="53"/></g><path class="cls-16" d="M165.41,39.07a14.34,14.34,0,0,0-9.51-3.7"/><path class="cls-16" d="M134.3,39.77a11.77,11.77,0,0,1,5-3.14"/><polygon class="cls-20" points="152.31 88.42 157.6 88.42 152.31 92.52 152.31 88.42"/><polygon class="cls-10" points="87.17 117.92 67.39 125.4 65.44 120.94 85.19 113.47 87.17 117.92"/><path class="cls-11" d="M245.21,199.42l-13.67,23.72a17.63,17.63,0,0,0-2.36,8.8v19.72a4.05,4.05,0,0,0,5.28,3.86L248.71,251a1.78,1.78,0,0,0,1.18-2.14h0a1.78,1.78,0,0,0-2.19-1.27l-10.14,2.77,5.88-16.5,15-15Z"/><path class="cls-11" d="M235.16,251.75a2,2,0,0,1-.65-3.89l12.59-4.29a2,2,0,0,1,1.29,3.79l-12.59,4.29A2,2,0,0,1,235.16,251.75Z"/><path class="cls-11" d="M234.57,247.94a2,2,0,0,1-.65-3.89l12.59-4.29a2,2,0,1,1,1.29,3.79l-12.59,4.29A2,2,0,0,1,234.57,247.94Z"/><path class="cls-20" d="M240.61,241.77l-.08.24-2.45,6.89a.49.49,0,0,0,.86.46l7-9.39"/><polygon class="cls-12" points="225.79 158.32 218.71 138.7 224.49 142.62 225.79 158.32"/><polygon class="cls-5" points="188.65 93.42 196.69 105.06 196.69 93.42 188.65 93.42"/><path class="cls-5" d="M293.54,150.42l-50.11-40.77a72.33,72.33,0,0,0-40.88-16.05v19.95L221,140.25l42,28.33-22.67,39.33c4,12.17,20.83,14.33,20.83,14.33l35.41-47.61A17.65,17.65,0,0,0,293.54,150.42Z"/><polygon class="cls-6" points="196.69 128.58 202.54 128.58 202.54 113.54 196.69 105.06 196.69 128.58"/><path class="cls-6" d="M197.77,93.41h-1.08v11.65l5.85,8.48V93.59C201,93.48,199.36,93.41,197.77,93.41Z"/><g class="cls-21"><path class="cls-8" d="M245.91,196.43c4.8,14.46,24.77,17,24.77,17"/></g><path class="cls-6" d="M186,85.42l-29.5,19.29,5.22,10.12a1.51,1.51,0,0,0,2.25.52L193.4,93.41Z"/><circle class="cls-10" cx="263.06" cy="211.33" r="1.79"/><circle class="cls-10" cx="73.45" cy="138.98" r="1.79"/><circle class="cls-9" cx="137.56" cy="144.58" r="9.54"/><path class="cls-9" d="M186,136.54h27a0,0,0,0,1,0,0v11.72a2,2,0,0,1-2,2H188a2,2,0,0,1-2-2V136.54A0,0,0,0,1,186,136.54Z"/><rect class="cls-22" x="191.92" y="136.54" width="21.06" height="3.85"/><polygon class="cls-23" points="197.48 140.39 185.98 140.39 185.98 136.54 199.48 136.54 197.48 140.39"/><line class="cls-24" x1="131.31" y1="148.89" x2="143.41" y2="148.89"/><path class="cls-25" d="M141.51,139.68h0a2.16,2.16,0,0,0-3.05,0l-1.1,1.1-1.1-1.1a2.16,2.16,0,0,0-3.05,0h0a2.16,2.16,0,0,0,0,3.05l1.1,1.1h0l3.05,3.05h0l3.05-3.05h0l1.1-1.1A2.16,2.16,0,0,0,141.51,139.68Z"/><g class="cls-26"><path class="cls-22" d="M170.9,159.68a1.22,1.22,0,0,0-1-.51h-3.54L162.66,167h1.84l1.4-3.06h1a.56.56,0,0,1,.42.23,1,1,0,0,1-.1.89c-.44,1-.8,1.94-.8,1.94h1.87a4.18,4.18,0,0,1,.23-.75c.14-.34.57-1.41.57-1.43.36-.88-.08-1.23-.36-1.41a1.75,1.75,0,0,0,1.5-1c.23-.48.59-1.26.59-1.26a1.44,1.44,0,0,0,.1-1.44M169,161l-.32.67-.19.4a.76.76,0,0,1-.71.5h-1.28l1-2.12h1.4a.25.25,0,0,1,.19.1c.06.09,0,.25-.06.45"/><path class="cls-22" d="M151.27,159.68a1.22,1.22,0,0,0-1-.51h-3.54L143,167h1.84l1.4-3.06h1a.56.56,0,0,1,.42.23,1,1,0,0,1-.1.89c-.44,1-.8,1.94-.8,1.94h1.87a4.15,4.15,0,0,1,.23-.75c.14-.34.57-1.41.57-1.43.36-.88-.08-1.23-.36-1.41a1.75,1.75,0,0,0,1.5-1c.23-.48.59-1.26.59-1.26a1.44,1.44,0,0,0,.1-1.44M149.4,161l-.32.67-.19.4a.76.76,0,0,1-.71.5h-1.28l1-2.12h1.38a.25.25,0,0,1,.19.1c.06.09,0,.25-.06.45"/><path class="cls-22" d="M155.68,165.45c.37-.76.87-1.85,1.41-3l.63-1.34c.65-1.38-.08-2-1-2h-2.23a2.1,2.1,0,0,0-2,1.36l-1.05,2.22-.94,2c-.94,2,.47,2.3,1.16,2.3H153a2.45,2.45,0,0,0,2.66-1.52m-2.5.08h-.81c-.15,0-.44,0-.22-.51l1.9-4.09c.18-.39.37-.47.62-.47h1c.19,0,.36.1.21.43l-1.87,4c-.26.55-.44.64-.84.64"/><path class="cls-22" d="M163.12,159.13h-1.9a2.3,2.3,0,0,0-2.16,1.36c-.34.74-2,4.19-2,4.19-.6,1.26-.25,2.3,1.39,2.3h1.46a2,2,0,0,0,2.28-1.34l1.36-3h-2.78l-.61,1.3h1l-.54,1.18a.55.55,0,0,1-.64.41h-1c-.29,0-.39-.14-.22-.51l1.95-4.08c.2-.41.31-.47.62-.47h1c.24,0,.37.11.21.43l-.44.94h1.75l.4-.86c.58-1.26.06-1.84-1.14-1.86"/><polygon class="cls-22" points="185.45 166.95 189.14 159.15 187.22 159.15 183.56 166.95 185.45 166.95"/><polygon class="cls-22" points="193.82 159.15 189.54 166.02 191.71 159.15 189.73 159.15 187.91 166.95 190.47 166.95 195.81 159.15 193.82 159.15"/><path class="cls-22" d="M179.18,164.24l-.16-2.88c0-.35.07-.82.7-.82H181l.66-1.39h-2.18a2,2,0,0,0-2.24,2.29c0,.76.15,3.22.15,3.22,0,.59-.2.87-.76.87h-1.46l-.65,1.41h2.32c1.54,0,2.45-1,2.34-2.71"/><path class="cls-22" d="M183.53,164.24l-.16-2.88c0-.35.07-.82.7-.82h1.28l.66-1.39h-2.18a2,2,0,0,0-2.24,2.29c0,.76.15,3.22.15,3.22,0,.59-.2.87-.76.87h-1.42l-.65,1.41h2.28a2.27,2.27,0,0,0,2.34-2.71"/><polygon class="cls-22" points="172.87 159.16 169.23 166.95 173.84 166.95 174.51 165.54 171.71 165.54 172.69 163.46 175.06 163.46 175.67 162.16 173.29 162.16 174.05 160.54 176.5 160.54 177.15 159.16 172.87 159.16"/><path class="cls-22" d="M196.44,159.16l-3.64,7.78h4.61l.67-1.41h-2.8l1-2.08h2.37l.61-1.3h-2.37l.76-1.62h2.46l.64-1.38Z"/><path class="cls-22" d="M138.67,167h-1.89l3.63-7.79h3.5c.8,0,1.55.63.94,2-.35.77-.65,1.43-.81,1.74a2.14,2.14,0,0,1-2.27,1.34h-1.84Zm3.08-4.09a.71.71,0,0,0,.7-.47l.63-1.32c.24-.5.05-.64-.21-.64h-1.19l-1.12,2.43Z"/><path class="cls-22" d="M201.27,159.86a.63.63,0,1,1,.64.64.63.63,0,0,1-.64-.64m1.19,0a.56.56,0,1,0-.56.56.56.56,0,0,0,.56-.56m-.24.36h-.1l-.2-.33h-.16v.33h-.09v-.71H202a.33.33,0,0,1,.17,0,.17.17,0,0,1,.08.15c0,.14-.1.19-.22.19l.21.33m-.33-.4c.1,0,.25,0,.25-.13s-.1-.12-.18-.12h-.2v.25Z"/><rect class="cls-1" x="136.78" y="159.17" width="65.76" height="7.8"/></g></g></g></g></svg>