<svg id="Layer_1" data-name="Layer 1" xmlns="http://www.w3.org/2000/svg" viewBox="0 0 100 100"><defs><style>.cls-1{fill:#d1e2e5;}</style></defs><title>18B40000.I_BQX_Icons_Outlined</title><circle id="SVGID" class="cls-1" cx="50" cy="50.13" r="25" transform="translate(-5.09 94.6) rotate(-83.99)"/><g id="_Group_" data-name="&lt;Group&gt;"><path d="M40.82,38.75,38.6,41l8.67,8.64a.74.74,0,0,1,0,1.06l-8.64,8.64,2.22,2.22,8.62-8.67a.75.75,0,0,1,1.06,0l8.64,8.65,2.2-2.2-8.64-8.64a.75.75,0,0,1,0-1.06L61.39,41l-2.24-2.23-8.62,8.69a.75.75,0,0,1-1.06,0Zm4.86,11.39L37.54,42a1.43,1.43,0,0,1-.44-1,1.44,1.44,0,0,1,.45-1.05l2.24-2.21a1.48,1.48,0,0,1,2.08,0L50,45.82l8.15-8.15a1.43,1.43,0,0,1,1-.44,1.47,1.47,0,0,1,1.06.44l2.21,2.24a1.53,1.53,0,0,1,0,2.09l-8.15,8.14,8.13,8.13a1.46,1.46,0,0,1,.45,1,1.44,1.44,0,0,1-.44,1.05l-2.25,2.22a1.52,1.52,0,0,1-2.08,0L50,54.46l-8.14,8.13a1.42,1.42,0,0,1-1,.43,1.44,1.44,0,0,1-1.05-.44l-2.21-2.24a1.5,1.5,0,0,1,0-2.09Z"/></g></svg>