<svg id="Layer_1" data-name="Layer 1" xmlns="http://www.w3.org/2000/svg" viewBox="0 0 100 100"><defs><style>.cls-1{fill:#007cb9;}</style></defs><title>18B40000.I_BQX_Icons_Outlined</title><path class="cls-1" d="M57.29,46.51l-3.78-3.8a.73.73,0,0,0-1,0l-5.73,5.74h0l-2.43,2.43,0,0a1.54,1.54,0,0,0-.15.25l0,0-1.62,5.37a.73.73,0,0,0,.69.94.71.71,0,0,0,.2,0l5.4-1.58,0,0,.13-.07.11-.08,0,0,6.22-6.24h0l1.93-1.94A.73.73,0,0,0,57.29,46.51Zm-6.23-.31L53.81,49l-3.28,3.29h0l-1.91,1.92L45.87,51.4Zm-5.87,6.58,2.06,2.07-2.94.86Zm9.65-4.84-2.75-2.77.91-.91L55.75,47Z"/></svg>