<svg id="Layer_1" data-name="Layer 1" xmlns="http://www.w3.org/2000/svg" viewBox="0 0 100 100"><defs><style>.cls-1{fill:#d1e2e5;}.cls-2{fill:#fff;}.cls-3{fill:#91b0bf;}</style></defs><title>18B40000.I_BQX_Icons_Outlined</title><g id="SVGID"><circle class="cls-1" cx="50" cy="50.13" r="25" transform="translate(-5.09 94.6) rotate(-83.99)"/></g><g id="_Group_" data-name="&lt;Group&gt;"><path d="M65.31,53.67a.75.75,0,0,1-.75.75H58a6,6,0,0,1,2.17,4.4,1.53,1.53,0,0,1-1.53,1.53H41.33a1.53,1.53,0,0,1-1.53-1.53A6,6,0,0,1,42,54.42H35.61a.74.74,0,0,1-.75-.75c0-2.16,1.67-4.12,4.28-5.14a5.22,5.22,0,0,1,6.41-8,5.18,5.18,0,0,1,2,1.83,6.33,6.33,0,0,1,5,.06A5.22,5.22,0,1,1,61,48.53C63.64,49.55,65.31,51.51,65.31,53.67ZM56,52.92h7.71c-.42-1.49-2-2.78-4.31-3.33a.77.77,0,0,1-.56-.59.76.76,0,0,1,.31-.75,3.73,3.73,0,1,0-5.29-5,6.35,6.35,0,0,1,1.78,7.93,6.24,6.24,0,0,1-.92,1.34,10.2,10.2,0,0,1,1.12.48A.42.42,0,0,1,56,52.92Zm2.67,5.93a0,0,0,0,0,0,0c0-2.33-2.28-4.46-5.66-5.28a.75.75,0,0,1-.25-1.35,4.83,4.83,0,0,0-.57-8.26A4.77,4.77,0,0,0,50,43.39a4.84,4.84,0,0,0-2.8,8.8.75.75,0,0,1,.3.76.74.74,0,0,1-.56.59c-3.38.82-5.65,3-5.65,5.28ZM46.25,43.13a3.59,3.59,0,0,0-1.38-1.24A3.73,3.73,0,0,0,41,48.25a.75.75,0,0,1-.26,1.34c-2.26.55-3.89,1.84-4.3,3.33h7.35a.94.94,0,0,1,.29.06,12.67,12.67,0,0,1,1.18-.5,6.38,6.38,0,0,1-.92-7.15A6.22,6.22,0,0,1,46.25,43.13Z"/><path class="cls-2" d="M63.71,52.92H56a.42.42,0,0,0-.16,0,10.2,10.2,0,0,0-1.12-.48,6.24,6.24,0,0,0,.92-1.34,6.35,6.35,0,0,0-1.78-7.93,3.73,3.73,0,1,1,5.29,5,.76.76,0,0,0-.31.75.77.77,0,0,0,.56.59C61.67,50.14,63.29,51.43,63.71,52.92Z"/><path class="cls-3" d="M58.7,58.82a0,0,0,0,1,0,0l-17.37,0c0-2.33,2.27-4.46,5.65-5.28a.74.74,0,0,0,.56-.59.75.75,0,0,0-.3-.76,4.84,4.84,0,0,1,2.8-8.8,4.77,4.77,0,0,1,2.21.54,4.83,4.83,0,0,1,.57,8.26A.75.75,0,0,0,53,53.54C56.42,54.36,58.7,56.49,58.7,58.82Z"/><path class="cls-2" d="M44.87,41.89a3.59,3.59,0,0,1,1.38,1.24,6.22,6.22,0,0,0-1.89,2.2,6.38,6.38,0,0,0,.92,7.15,12.67,12.67,0,0,0-1.18.5.94.94,0,0,0-.29-.06H36.46c.41-1.49,2-2.78,4.3-3.33A.75.75,0,0,0,41,48.25a3.73,3.73,0,0,1,3.85-6.36Z"/></g></svg>