<svg xmlns="http://www.w3.org/2000/svg" xmlns:xlink="http://www.w3.org/1999/xlink" width="712.81" height="369" viewBox="0 0 712.81 369"><defs><style>.cls-1,.cls-12,.cls-21,.cls-23,.cls-26,.cls-28,.cls-30,.cls-5,.cls-8{fill:none;}.cls-2{clip-path:url(#clip-path);}.cls-3{fill:#067462;}.cls-4{clip-path:url(#clip-path-2);}.cls-5{stroke:#08caa9;}.cls-12,.cls-30,.cls-5,.cls-8{stroke-miterlimit:10;}.cls-6{fill:#08caa9;}.cls-7{clip-path:url(#clip-path-3);}.cls-28,.cls-8{stroke:#067462;}.cls-9{fill:#d1e2e5;}.cls-10{fill:#fff;}.cls-11{fill:#ffcc8f;}.cls-12{stroke:#91b0bf;}.cls-13{fill:#0a3360;}.cls-14{fill:#91b0bf;}.cls-15{fill:#efab00;}.cls-16{clip-path:url(#clip-path-4);}.cls-17{fill:#ff527b;}.cls-18{clip-path:url(#clip-path-5);}.cls-19{fill:#cc6a2e;}.cls-20{clip-path:url(#clip-path-6);}.cls-21{stroke:#a0410b;}.cls-21,.cls-23,.cls-26,.cls-28{stroke-linecap:round;stroke-linejoin:round;stroke-width:0.7px;}.cls-22{clip-path:url(#clip-path-7);}.cls-23{stroke:#ff527b;}.cls-24{clip-path:url(#clip-path-8);}.cls-25{clip-path:url(#clip-path-9);}.cls-26{stroke:#0a3360;}.cls-27{fill:#d3466f;}.cls-29{fill:#a0410b;}.cls-30{stroke:#d1e2e5;}.cls-31{clip-path:url(#clip-path-10);}</style><clipPath id="clip-path"><rect class="cls-1" x="-1191.13" width="1904" height="369"/></clipPath><clipPath id="clip-path-2"><path class="cls-1" d="M100.2,369c-9.62-15-28.12-25.17-49.36-25.17S11.1,354,1.48,369Z"/></clipPath><clipPath id="clip-path-3"><path class="cls-1" d="M276.49,369c-7.25-42.8-49.86-75.67-101.35-75.67S81,326.2,73.78,369Z"/></clipPath><clipPath id="clip-path-4"><rect class="cls-1" x="242.08" y="143.96" width="130.22" height="191.9"/></clipPath><clipPath id="clip-path-5"><path class="cls-1" d="M357.17,220.84l-10.12,1.41a18.29,18.29,0,0,0-15.43,14.62l-5.18,26.58L310.5,245.68H291a30.08,30.08,0,0,0,6.89,2.65c4.13,1,14.06,17.73,23.71,31.34a10.81,10.81,0,0,0,19-2.75l6.16-18,0-.08-3.38,27.43h29V220.84Z"/></clipPath><clipPath id="clip-path-6"><path class="cls-1" d="M359.09,220.52l-12,1.73a18.29,18.29,0,0,0-15.43,14.62l-5.18,26.58L310.5,245.68H291.94a9.75,9.75,0,0,0,5.47,3.21c4.12,1,14.57,17.17,24.22,30.79a10.81,10.81,0,0,0,19-2.75l6.16-18,0-.08-4.42,35.87H372.5v-73.9Z"/></clipPath><clipPath id="clip-path-7"><path class="cls-1" d="M359.12,198.14c-.93,0-1.18-.66-.72-1.74a3.28,3.28,0,0,1,3.13-1.89,2.47,2.47,0,0,1,2.61,2.3c0,.81-.38,1.2-1,1.22l-4,.12"/></clipPath><clipPath id="clip-path-8"><path class="cls-1" d="M372.87,175.3v47.45H359.09v-8c-16.78.64-7.17-27.19-4.29-31.68C354.8,183.05,359.52,173.59,372.87,175.3Z"/></clipPath><clipPath id="clip-path-9"><path class="cls-1" d="M347.11,198.14c-.93,0-1.18-.66-.72-1.74a3.28,3.28,0,0,1,3.13-1.89,2.47,2.47,0,0,1,2.61,2.3c0,.81-.38,1.2-1,1.22l-4,.12"/></clipPath><clipPath id="clip-path-10"><rect class="cls-1" x="762.87" y="-111" width="799.94" height="623"/></clipPath></defs><title>BQX-Hero-GenInfo</title><g id="_02" data-name="02"><g class="cls-2"><path class="cls-3" d="M100.2,369c-9.62-15-28.12-25.17-49.36-25.17S11.1,354,1.48,369Z"/><g class="cls-4"><line class="cls-5" x1="42.13" y1="376.84" x2="61.13" y2="339.34"/><line class="cls-5" x1="50.18" y1="360.96" x2="75.64" y2="344.86"/><line class="cls-5" x1="14.14" y1="348.69" x2="30.3" y2="373.69"/></g><path class="cls-6" d="M276.49,369c-7.25-42.8-49.86-75.67-101.35-75.67S81,326.2,73.78,369Z"/><g class="cls-7"><line class="cls-8" x1="105.47" y1="305.54" x2="146.8" y2="377.52"/><line class="cls-8" x1="134.68" y1="356.42" x2="126.14" y2="296.61"/><line class="cls-8" x1="80.05" y1="338.86" x2="126.14" y2="375.61"/></g><rect class="cls-9" x="156.14" y="69.19" width="556.73" height="299.81"/><rect class="cls-10" x="234.31" y="115.86" width="145" height="253.14"/><rect class="cls-10" x="418.81" y="115.86" width="294.06" height="253.14"/><rect class="cls-11" x="425.81" y="115.86" width="287.06" height="220"/><rect class="cls-11" x="241.85" y="115.86" width="130.45" height="220"/><rect class="cls-12" x="168.39" y="208.52" width="53.67" height="160.48"/><path class="cls-10" d="M197.83,178.23a2.6,2.6,0,0,0-5.21,0h-13a1.36,1.36,0,0,0-1.36,1.36v12.52a1.36,1.36,0,0,0,1.36,1.36h31.27a1.36,1.36,0,0,0,1.36-1.36V179.59a1.36,1.36,0,0,0-1.36-1.36Z"/><rect class="cls-13" x="156.14" y="107.86" width="78.17" height="43"/><rect class="cls-14" x="234.31" y="107.86" width="7.78" height="43"/><rect class="cls-14" x="372.31" y="107.86" width="7" height="43"/><rect class="cls-14" x="418.81" y="107.86" width="7" height="43"/><rect class="cls-13" x="379.31" y="107.86" width="39.5" height="43"/><rect class="cls-15" x="242.08" y="115.86" width="130.22" height="35"/><rect class="cls-15" x="425.81" y="115.86" width="287" height="35"/><rect class="cls-11" x="425.81" y="294.69" width="109.45" height="41.16"/><path class="cls-15" d="M425.81,281.56h69.07a5.19,5.19,0,0,1,5.19,5.19v49.11a0,0,0,0,1,0,0H425.81a0,0,0,0,1,0,0v-54.3A0,0,0,0,1,425.81,281.56Z"/><path class="cls-15" d="M425.81,285h41.71a2.93,2.93,0,0,1,2.93,2.93v6.75a0,0,0,0,1,0,0H425.81a0,0,0,0,1,0,0V285A0,0,0,0,1,425.81,285Z"/><path class="cls-15" d="M425.81,259.05h43a4.25,4.25,0,0,1,4.25,4.25v18.4a0,0,0,0,1,0,0H425.81a0,0,0,0,1,0,0V259.05A0,0,0,0,1,425.81,259.05Z"/><path class="cls-15" d="M527.83,281.56H726a0,0,0,0,1,0,0v54.3a0,0,0,0,1,0,0H524.09a0,0,0,0,1,0,0V285.3A3.75,3.75,0,0,1,527.83,281.56Z"/><path class="cls-15" d="M631.45,260.85h51a3.16,3.16,0,0,1,3.16,3.16v17.54a0,0,0,0,1,0,0H628.28a0,0,0,0,1,0,0V264A3.16,3.16,0,0,1,631.45,260.85Z"/><path class="cls-15" d="M643.62,246.78H670.3a2.49,2.49,0,0,1,2.49,2.49v11.59a0,0,0,0,1,0,0H641.14a0,0,0,0,1,0,0V249.27A2.49,2.49,0,0,1,643.62,246.78Z"/><path class="cls-15" d="M554.19,251h44.28a3.88,3.88,0,0,1,3.88,3.88V273.7a0,0,0,0,1,0,0h-52a0,0,0,0,1,0,0V254.91A3.88,3.88,0,0,1,554.19,251Z"/><rect class="cls-15" x="546.26" y="273.7" width="60.13" height="2.14" rx="1.07" ry="1.07"/><rect class="cls-15" x="572.31" y="275.84" width="8.04" height="5.72"/><circle class="cls-15" cx="563.72" cy="248.26" r="2.76"/><circle class="cls-15" cx="576.33" cy="248.26" r="2.76"/><circle class="cls-15" cx="588.93" cy="248.26" r="2.76"/><path class="cls-15" d="M246.17,275.22h55.44a5.19,5.19,0,0,1,5.19,5.19v55.44a0,0,0,0,1,0,0H246.17a0,0,0,0,1,0,0V275.22A0,0,0,0,1,246.17,275.22Z"/><g class="cls-16"><path class="cls-17" d="M359.09,220.52l-11.45,1.65c-7.74,1.08-10.81,6-13.21,13.64l-8,27.64L310.5,245.68H291.94a16.75,16.75,0,0,0,6,2.65c4.12,1,14.06,17.73,23.71,31.34a10.81,10.81,0,0,0,19-2.75l6.16-18,0-.08-3.38,27.43h29V220.84Z"/><g class="cls-18"><rect class="cls-19" x="283.51" y="227.5" width="31.49" height="53.11"/></g><g class="cls-20"><circle class="cls-19" cx="363.95" cy="220.29" r="13.7"/></g><path class="cls-19" d="M372.87,175.3v47.45H359.09v-8c-16.78.64-7.17-27.19-4.29-31.68C354.8,183.05,359.52,173.59,372.87,175.3Z"/><path class="cls-21" d="M355,195.24l-2.73,5.24a1.36,1.36,0,0,0,.48,1.78l1.3.83"/><path class="cls-10" d="M359.12,198.14c-.93,0-1.18-.66-.72-1.74a3.28,3.28,0,0,1,3.13-1.89,2.47,2.47,0,0,1,2.61,2.3c0,.81-.38,1.2-1,1.22l-4,.12"/><g class="cls-22"><circle class="cls-13" cx="360.29" cy="197.1" r="2.15"/></g><path class="cls-23" d="M359.15,203.6a3.57,3.57,0,0,1-4.12,2.1"/><circle class="cls-13" cx="370.49" cy="169.05" r="6.85"/><g class="cls-24"><path class="cls-13" d="M351.36,189.69c3.7,0,7.34-.28,11.54-3.7v1a4.59,4.59,0,0,0,4.59,4.59h.18l.74,7.61a1.35,1.35,0,0,0,1.34,1.22h4.19V173.37H358.06Z"/><path class="cls-10" d="M347.11,198.14c-.93,0-1.18-.66-.72-1.74a3.28,3.28,0,0,1,3.13-1.89,2.47,2.47,0,0,1,2.61,2.3c0,.81-.38,1.2-1,1.22l-4,.12"/><g class="cls-25"><circle class="cls-13" cx="348.9" cy="197.1" r="2.15"/></g><path class="cls-26" d="M347.86,193.29a6.74,6.74,0,0,1,4.47-1.74"/></g><path class="cls-19" d="M372.11,197.13h.06a4.67,4.67,0,0,1,4,5,4.62,4.62,0,0,1-7.27,3.37l.73-6.35A2.26,2.26,0,0,1,372.11,197.13Z"/><path class="cls-26" d="M364.24,193.29a6.74,6.74,0,0,0-4.47-1.74"/><polygon class="cls-13" points="343.48 286.31 329.57 335.86 372.5 335.86 372.5 286.31 343.48 286.31"/><path class="cls-27" d="M346.84,259s-5.15-.8-5.15-10.62V274Z"/><rect class="cls-10" x="270.1" y="220.17" width="61.94" height="25.51" rx="1.74" ry="1.74"/><path class="cls-3" d="M277.12,233.49a7.26,7.26,0,0,1,.31-2.2,4.56,4.56,0,0,1,.89-1.64,3.81,3.81,0,0,1,1.42-1,5.36,5.36,0,0,1,3.89,0,3.86,3.86,0,0,1,1.42,1.06,4.51,4.51,0,0,1,.85,1.64,7.57,7.57,0,0,1,.28,2.12,7.25,7.25,0,0,1-.31,2.2,4.5,4.5,0,0,1-.9,1.64,3.88,3.88,0,0,1-1.43,1,4.9,4.9,0,0,1-1.9.35,4.84,4.84,0,0,1-2-.38,3.81,3.81,0,0,1-1.41-1.06,4.58,4.58,0,0,1-.84-1.64A7.62,7.62,0,0,1,277.12,233.49Zm1.52,0a6.2,6.2,0,0,0,.18,1.53,3.92,3.92,0,0,0,.55,1.25,2.68,2.68,0,0,0,.93.86,3,3,0,0,0,3.55-.64,4.57,4.57,0,0,0,.81-3,6.14,6.14,0,0,0-.18-1.51,3.91,3.91,0,0,0-.55-1.25,2.62,2.62,0,0,0-2.29-1.18,2.7,2.7,0,0,0-2.19,1A4.57,4.57,0,0,0,278.64,233.49Z"/><path class="cls-3" d="M292.46,228.56a9.64,9.64,0,0,1,1.31-.18q.71-.05,1.4-.05a8.87,8.87,0,0,1,1.49.13,4.26,4.26,0,0,1,1.37.47,2.68,2.68,0,0,1,1.41,2.53,3.1,3.1,0,0,1-.36,1.54,3,3,0,0,1-1,1,4.15,4.15,0,0,1-1.36.59,6.66,6.66,0,0,1-1.59.19h-.64l-.37,0-.27,0v3.76h-1.43Zm2.76,1h-.75a2.59,2.59,0,0,0-.57.07v3.81a.81.81,0,0,0,.24,0l.34,0h.6a6.55,6.55,0,0,0,1-.08,2.73,2.73,0,0,0,.91-.3,1.78,1.78,0,0,0,.66-.64,2,2,0,0,0,.25-1.06,1.66,1.66,0,0,0-.24-.93A1.76,1.76,0,0,0,297,230a2.69,2.69,0,0,0-.87-.29A5.89,5.89,0,0,0,295.22,229.6Z"/><path class="cls-3" d="M304.88,228.46h6.07v1.26h-4.64v3h4.23V234h-4.23v3.23H311v1.26h-6.14Z"/><path class="cls-3" d="M319.55,232.12l-.86-1.41h-.06l.17,1.41v6.39h-1.35V228.32h.8l5.12,6.52.82,1.34h.07l-.17-1.34v-6.37h1.35v10.19h-.8Z"/><circle class="cls-3" cx="329.2" cy="233.86" r="0.81"/><circle class="cls-3" cx="273.45" cy="233.86" r="0.81"/><polyline class="cls-28" points="306.37 220.84 301.07 212.11 295.76 220.84"/><circle class="cls-13" cx="301.07" cy="209.94" r="0.95"/><polygon class="cls-29" points="359.09 214.73 362.79 214.5 359.1 218.68 359.09 214.73"/></g><rect class="cls-13" x="425.81" y="115.86" width="4" height="220"/><rect class="cls-13" x="242.08" y="115.86" width="4" height="220"/><polygon class="cls-17" points="198.03 0 167.03 0 100.14 115.86 131.14 115.86 198.03 0"/><polygon class="cls-10" points="229.03 0 198.03 0 131.14 115.86 162.14 115.86 229.03 0"/><polygon class="cls-17" points="260.03 0 229.03 0 162.14 115.86 193.14 115.86 260.03 0"/><polygon class="cls-10" points="291.03 0 260.03 0 193.14 115.86 224.14 115.86 291.03 0"/><polygon class="cls-17" points="322.03 0 291.03 0 224.14 115.86 255.14 115.86 322.03 0"/><polygon class="cls-10" points="353.03 0 322.03 0 255.14 115.86 286.14 115.86 353.03 0"/><polygon class="cls-17" points="384.03 0 353.03 0 286.14 115.86 317.14 115.86 384.03 0"/><polygon class="cls-10" points="415.03 0 384.03 0 317.14 115.86 348.14 115.86 415.03 0"/><polygon class="cls-17" points="446.03 0 415.03 0 348.14 115.86 379.14 115.86 446.03 0"/><polygon class="cls-10" points="477.03 0 446.03 0 379.14 115.86 410.14 115.86 477.03 0"/><polygon class="cls-17" points="508.03 0 477.03 0 410.14 115.86 441.14 115.86 508.03 0"/><polygon class="cls-10" points="539.03 0 508.03 0 441.14 115.86 472.14 115.86 539.03 0"/><polygon class="cls-17" points="570.03 0 539.03 0 472.14 115.86 503.14 115.86 570.03 0"/><polygon class="cls-10" points="601.03 0 570.03 0 503.14 115.86 534.14 115.86 601.03 0"/><polygon class="cls-17" points="632.03 0 601.03 0 534.14 115.86 565.14 115.86 632.03 0"/><polygon class="cls-10" points="663.03 0 632.03 0 565.14 115.86 596.14 115.86 663.03 0"/><polygon class="cls-17" points="694.03 0 663.03 0 596.14 115.86 627.14 115.86 694.03 0"/><polygon class="cls-10" points="725.03 0 694.03 0 627.14 115.86 658.14 115.86 725.03 0"/><polygon class="cls-17" points="756.03 0 725.03 0 658.14 115.86 689.14 115.86 756.03 0"/><polygon class="cls-10" points="787.03 0 756.03 0 689.14 115.86 720.14 115.86 787.03 0"/><path class="cls-27" d="M100.14,115.86h31a0,0,0,0,1,0,0v0a14.87,14.87,0,0,1-14.87,14.87H115a14.87,14.87,0,0,1-14.87-14.87v0A0,0,0,0,1,100.14,115.86Z"/><path class="cls-9" d="M131.14,115.86h31a0,0,0,0,1,0,0v0a14.87,14.87,0,0,1-14.87,14.87H146a14.87,14.87,0,0,1-14.87-14.87v0A0,0,0,0,1,131.14,115.86Z"/><path class="cls-27" d="M162.14,115.86h31a0,0,0,0,1,0,0v0a14.87,14.87,0,0,1-14.87,14.87H177a14.87,14.87,0,0,1-14.87-14.87v0A0,0,0,0,1,162.14,115.86Z"/><path class="cls-9" d="M193.14,115.86h31a0,0,0,0,1,0,0v0a14.87,14.87,0,0,1-14.87,14.87H208a14.87,14.87,0,0,1-14.87-14.87v0A0,0,0,0,1,193.14,115.86Z"/><path class="cls-27" d="M224.14,115.86h31a0,0,0,0,1,0,0v0a14.87,14.87,0,0,1-14.87,14.87H239a14.87,14.87,0,0,1-14.87-14.87v0a0,0,0,0,1,0,0Z"/><path class="cls-9" d="M255.14,115.86h31a0,0,0,0,1,0,0v0a14.87,14.87,0,0,1-14.87,14.87H270a14.87,14.87,0,0,1-14.87-14.87v0a0,0,0,0,1,0,0Z"/><path class="cls-27" d="M286.14,115.86h31a0,0,0,0,1,0,0v0a14.87,14.87,0,0,1-14.87,14.87H301a14.87,14.87,0,0,1-14.87-14.87v0a0,0,0,0,1,0,0Z"/><path class="cls-9" d="M317.14,115.86h31a0,0,0,0,1,0,0v0a14.87,14.87,0,0,1-14.87,14.87H332a14.87,14.87,0,0,1-14.87-14.87v0A0,0,0,0,1,317.14,115.86Z"/><path class="cls-27" d="M348.14,115.86h31a0,0,0,0,1,0,0v0a14.87,14.87,0,0,1-14.87,14.87H363a14.87,14.87,0,0,1-14.87-14.87v0A0,0,0,0,1,348.14,115.86Z"/><path class="cls-9" d="M379.14,115.86h31a0,0,0,0,1,0,0v0a14.87,14.87,0,0,1-14.87,14.87H394a14.87,14.87,0,0,1-14.87-14.87v0A0,0,0,0,1,379.14,115.86Z"/><path class="cls-27" d="M410.14,115.86h31a0,0,0,0,1,0,0v0a14.87,14.87,0,0,1-14.87,14.87H425a14.87,14.87,0,0,1-14.87-14.87v0A0,0,0,0,1,410.14,115.86Z"/><path class="cls-9" d="M441.14,115.86h31a0,0,0,0,1,0,0v0a14.87,14.87,0,0,1-14.87,14.87H456a14.87,14.87,0,0,1-14.87-14.87v0A0,0,0,0,1,441.14,115.86Z"/><path class="cls-27" d="M472.14,115.86h31a0,0,0,0,1,0,0v0a14.87,14.87,0,0,1-14.87,14.87H487a14.87,14.87,0,0,1-14.87-14.87v0A0,0,0,0,1,472.14,115.86Z"/><path class="cls-9" d="M503.14,115.86h31a0,0,0,0,1,0,0v0a14.87,14.87,0,0,1-14.87,14.87H518a14.87,14.87,0,0,1-14.87-14.87v0A0,0,0,0,1,503.14,115.86Z"/><path class="cls-27" d="M534.14,115.86h31a0,0,0,0,1,0,0v0a14.87,14.87,0,0,1-14.87,14.87H549a14.87,14.87,0,0,1-14.87-14.87v0a0,0,0,0,1,0,0Z"/><path class="cls-9" d="M565.14,115.86h31a0,0,0,0,1,0,0v0a14.87,14.87,0,0,1-14.87,14.87H580a14.87,14.87,0,0,1-14.87-14.87v0A0,0,0,0,1,565.14,115.86Z"/><path class="cls-27" d="M596.14,115.86h31a0,0,0,0,1,0,0v0a14.87,14.87,0,0,1-14.87,14.87H611a14.87,14.87,0,0,1-14.87-14.87v0A0,0,0,0,1,596.14,115.86Z"/><path class="cls-9" d="M627.14,115.86h31a0,0,0,0,1,0,0v0a14.87,14.87,0,0,1-14.87,14.87H642a14.87,14.87,0,0,1-14.87-14.87v0a0,0,0,0,1,0,0Z"/><path class="cls-27" d="M658.14,115.86h31a0,0,0,0,1,0,0v0a14.87,14.87,0,0,1-14.87,14.87H673a14.87,14.87,0,0,1-14.87-14.87v0A0,0,0,0,1,658.14,115.86Z"/><path class="cls-9" d="M689.14,115.86h31a0,0,0,0,1,0,0v0a14.87,14.87,0,0,1-14.87,14.87H704a14.87,14.87,0,0,1-14.87-14.87v0A0,0,0,0,1,689.14,115.86Z"/><rect class="cls-9" x="360.81" y="259.34" width="5.25" height="68" rx="2.62" ry="2.62"/><circle class="cls-13" cx="363.43" cy="264.54" r="1.08"/><circle class="cls-13" cx="363.43" cy="322.13" r="1.08"/><polyline class="cls-30" points="425.81 369 425.81 347.19 712.8 347.19"/><polyline class="cls-30" points="242.08 369 242.08 347.19 372.31 347.19 372.31 369"/></g></g></svg>