<svg id="Layer_1" data-name="Layer 1" xmlns="http://www.w3.org/2000/svg" viewBox="0 0 100 100"><defs><style>.cls-1{fill:#007cb9;}</style></defs><title>18B40000.I_BQX_Icons_Outlined</title><path class="cls-1" d="M50,43h0c-3.83,0-8,1.87-8,6a5.24,5.24,0,0,0,2.67,4.57c.61.37,1.16.94.66,2.37a.8.8,0,0,0,.11.74.82.82,0,0,0,.66.33,1,1,0,0,0,.35-.08A12.77,12.77,0,0,0,48.91,55L49,55c.32-.28.43-.32,1-.32h.86c4.18,0,7.1-2.31,7.1-5.62C58,45.07,54,43,50,43Zm2.71,8.09H47.25a.67.67,0,1,1,0-1.34h5.42a.67.67,0,1,1,0,1.34Zm0-3.34H47.25a.67.67,0,1,1,0-1.34h5.42a.67.67,0,1,1,0,1.34Z"/></svg>