<svg id="Layer_1" data-name="Layer 1" xmlns="http://www.w3.org/2000/svg" viewBox="0 0 100 100"><defs><style>.cls-1{fill:#007cb9;}</style></defs><title>18B40000.I_BQX_Icons_Outlined</title><path class="cls-1" d="M51.72,52.92l-.15.09-.42-.39a16.26,16.26,0,0,1-1.76-2.13,14.47,14.47,0,0,1-1.53-2.41l-.25-.59L49,46.6c.44-.3.18-1.6-.32-2.58-.3-.58-.8-1.28-1.45-1.28l-.19,0c-1.28.28-3.17,2-3.27,2.93a10.06,10.06,0,0,0,2.24,7,11.25,11.25,0,0,0,6.23,4.53,2.11,2.11,0,0,0,.52.07,6.15,6.15,0,0,0,2.5-1.4l.55-.4a1,1,0,0,0,.31-1.29,3.82,3.82,0,0,0-2.72-2.09H53.3a4.26,4.26,0,0,0-1.24.63l-.2.13Z"/></svg>