<svg xmlns="http://www.w3.org/2000/svg" xmlns:xlink="http://www.w3.org/1999/xlink" width="889.32" height="345.53" viewBox="0 0 889.32 345.53"><defs><style>.cls-1,.cls-13,.cls-17,.cls-20,.cls-24,.cls-27,.cls-29,.cls-34{fill:none;}.cls-2{isolation:isolate;}.cls-3{font-size:90px;fill:#2d2d2d;font-family:HighOctaneSansB2-Bold, HighOctaneSansB2 Bold;font-weight:700;}.cls-3,.cls-7{letter-spacing:-0.03em;}.cls-4{letter-spacing:-0.03em;}.cls-5{letter-spacing:-0.03em;}.cls-6{letter-spacing:-0.03em;}.cls-8{letter-spacing:-0.01em;}.cls-9{letter-spacing:-0.04em;}.cls-10,.cls-11{fill:#d1e2e5;}.cls-10,.cls-31{opacity:0.2;}.cls-10,.cls-22,.cls-31{mix-blend-mode:multiply;}.cls-12{clip-path:url(#clip-path);}.cls-13,.cls-29{stroke:#fff;}.cls-13,.cls-17,.cls-20,.cls-24,.cls-27,.cls-29,.cls-34{stroke-miterlimit:10;}.cls-14{fill:#91b0bf;}.cls-15,.cls-22{fill:#007cb9;}.cls-16{clip-path:url(#clip-path-2);}.cls-17{stroke:#d1e2e5;}.cls-18,.cls-31{fill:#0a3360;}.cls-19{clip-path:url(#clip-path-3);}.cls-20,.cls-24{stroke:#0a3360;}.cls-21{fill:#efab00;}.cls-22{opacity:0.3;}.cls-23{fill:#fff;}.cls-24,.cls-29,.cls-34{stroke-linecap:round;}.cls-25{fill:#ff527b;}.cls-26{clip-path:url(#clip-path-4);}.cls-27{stroke:#067462;}.cls-28{clip-path:url(#clip-path-5);}.cls-30{fill:#08caa9;}.cls-32{fill:#067462;}.cls-33{clip-path:url(#clip-path-6);}.cls-34{stroke:#08caa9;}</style><clipPath id="clip-path"><polygon class="cls-1" points="184.14 188.17 74.47 188.17 0 317.16 109.67 317.16 184.14 188.17"/></clipPath><clipPath id="clip-path-2"><polygon class="cls-1" points="784.65 307.17 444.65 307.17 482.47 241.67 822.47 241.67 784.65 307.17"/></clipPath><clipPath id="clip-path-3"><polygon class="cls-1" points="186.26 269.17 186.26 288.59 153.6 345.16 263.93 345.16 296.59 288.59 296.59 269.17 186.26 269.17"/></clipPath><clipPath id="clip-path-4"><circle class="cls-1" cx="273.32" cy="108.83" r="17.33"/></clipPath><clipPath id="clip-path-5"><polygon class="cls-1" points="252.72 345.16 142.38 345.16 186.26 269.17 296.59 269.17 252.72 345.16"/></clipPath><clipPath id="clip-path-6"><path class="cls-1" d="M309.56,75.36c-4.48,2.09-22.18.47-22.18.47S297.52,61.23,302,59.14a8.95,8.95,0,1,1,7.56,16.21Z"/></clipPath></defs><title>BQX-Hero-All-Cropped</title><g class="cls-2"><g id="_08" data-name="08"><text class="cls-3" transform="translate(-637.11 133.82)">Last s<tspan class="cls-4" x="191.97" y="0">t</tspan><tspan class="cls-5" x="218.88" y="0">ep ...</tspan><tspan class="cls-4"><tspan x="0" y="89">c</tspan><tspan class="cls-5" x="37.44" y="89">o</tspan><tspan class="cls-6" x="84.51" y="89">n</tspan><tspan class="cls-7" x="131.76" y="89">ta</tspan><tspan class="cls-8" x="200.25" y="89">c</tspan><tspan class="cls-7" x="239.4" y="89">t in</tspan><tspan class="cls-9" x="349.91" y="89">f</tspan><tspan class="cls-7" x="372.68" y="89">o</tspan></tspan></text></g><g id="_06" data-name="06"><polygon class="cls-10" points="889.32 224.17 871.2 224.17 845.82 224.17 843.36 224.17 773.51 345.16 801.34 345.16 862.83 238.67 889.32 236.67 889.32 224.17"/><polygon class="cls-11" points="184.14 188.17 74.47 188.17 0 317.16 109.67 317.16 184.14 188.17"/><g class="cls-12"><line class="cls-13" x1="113.25" y1="320.91" x2="58.79" y2="263.83"/><line class="cls-13" x1="190.54" y1="185.13" x2="71.69" y2="241.49"/></g><polygon class="cls-14" points="74.47 188.17 111.57 252.66 0 317.16 74.47 188.17"/><path class="cls-14" d="M831,8.83V224.17L760.92,345.53h25l68-117.84a15.19,15.19,0,0,0,2-7.6V23.48A14.65,14.65,0,0,0,841.34,8.83Z"/><rect class="cls-15" x="472.82" y="32.17" width="379.5" height="192"/><path class="cls-11" d="M482.82,8.83h359.5a10,10,0,0,1,10,10V32.17a0,0,0,0,1,0,0H472.82a0,0,0,0,1,0,0V18.83a10,10,0,0,1,10-10Z"/><polygon class="cls-11" points="782.25 345.53 402.75 345.53 472.82 224.17 852.32 224.17 782.25 345.53"/><path class="cls-14" d="M779.65,307.17h-330c-2.76,0-3.71-2.24-2.11-5l32-55.5c1.59-2.76,5.13-5,7.89-5h330c2.76,0,3.71,2.24,2.11,5l-32,55.5C785.94,304.93,782.41,307.17,779.65,307.17Z"/><g class="cls-16"><line class="cls-17" x1="468.24" y1="254.77" x2="824.24" y2="254.77"/><line class="cls-17" x1="460.67" y1="267.87" x2="816.67" y2="267.87"/><line class="cls-17" x1="453.11" y1="280.97" x2="773.62" y2="280.97"/><line class="cls-17" x1="445.55" y1="294.07" x2="766.06" y2="294.07"/><line class="cls-17" x1="508.62" y1="241.67" x2="470.8" y2="307.17"/><line class="cls-17" x1="534.77" y1="241.67" x2="496.96" y2="307.17"/><line class="cls-17" x1="560.93" y1="241.67" x2="530.67" y2="294.07"/><line class="cls-17" x1="587.08" y1="241.67" x2="556.83" y2="294.07"/><line class="cls-17" x1="613.24" y1="241.67" x2="582.98" y2="294.07"/><line class="cls-17" x1="639.39" y1="241.67" x2="609.14" y2="294.07"/><line class="cls-17" x1="665.54" y1="241.67" x2="635.29" y2="294.07"/><line class="cls-17" x1="691.7" y1="241.67" x2="661.44" y2="294.07"/><line class="cls-17" x1="717.85" y1="241.67" x2="680.03" y2="307.17"/><line class="cls-17" x1="744.01" y1="241.67" x2="706.19" y2="307.17"/><line class="cls-17" x1="770.16" y1="241.67" x2="732.34" y2="307.17"/><line class="cls-17" x1="796.31" y1="241.67" x2="758.5" y2="307.17"/></g><path class="cls-15" d="M672.9,319.83H541.78c-2.76,0-6.29,2.24-7.89,5L522,345.5H663.08L675,324.83C676.61,322.07,675.66,319.83,672.9,319.83Z"/><circle class="cls-18" cx="662.57" cy="20.5" r="1.63"/><polygon class="cls-10" points="290.51 345.5 210.17 345.5 243.03 288.59 323.36 288.59 290.51 345.5"/><polygon class="cls-10" points="382.84 197.67 276.15 187.67 276.15 239.94 382.84 229.94 382.84 197.67"/><path class="cls-10" d="M445,191.67H387.28a6.22,6.22,0,0,0-4.73,3l-2.89,5-34.15,59.15-2.89,5c-1,1.66-.39,3,1.27,3h57.75a6.22,6.22,0,0,0,4.73-3l2.89-5,34.15-59.15,2.89-5C447.25,193,446.69,191.67,445,191.67Z"/><path class="cls-14" d="M435.14,189.2H432v2.39H375.66a6.22,6.22,0,0,0-4.73,3l-2.89,5-34.15,59.15-1.55,2.68h-1.8v3.81h0c0,.9.6,1.51,1.72,1.51H390a6.22,6.22,0,0,0,4.73-3l2.89-5,34.15-59.15,2.89-5a3,3,0,0,0,.45-1.48h0Z"/><polygon class="cls-14" points="186.26 269.17 186.26 288.59 153.6 345.16 263.93 345.16 296.59 288.59 296.59 269.17 186.26 269.17"/><g class="cls-19"><line class="cls-20" x1="297.36" y1="274.19" x2="254.94" y2="347.67"/><line class="cls-20" x1="297.87" y1="279.98" x2="258.48" y2="348.2"/></g><path class="cls-21" d="M273.32,239.94h0a46.77,46.77,0,0,1-43.83-63.1l27.6-74.1h32.47l27.6,74.1A46.77,46.77,0,0,1,273.32,239.94Z"/><rect class="cls-22" x="512.57" y="65.67" width="276" height="133"/><rect class="cls-23" x="507.57" y="61.67" width="276" height="133"/><rect class="cls-18" x="507.57" y="61.67" width="276" height="9.33"/><line class="cls-24" x1="525.49" y1="114.92" x2="765.32" y2="114.92"/><line class="cls-24" x1="525.49" y1="130.67" x2="599.49" y2="130.67"/><rect class="cls-21" x="525.49" y="89.17" width="48.67" height="10.58" rx="5.29" ry="5.29"/><rect class="cls-25" x="731.58" y="165.42" width="34.07" height="11.11" transform="translate(1497.23 341.95) rotate(-180)"/><circle class="cls-24" cx="609.57" cy="130.67" r="2.63"/><circle class="cls-18" cx="273.32" cy="108.83" r="17.33"/><g class="cls-26"><line class="cls-27" x1="304.11" y1="29.86" x2="265.42" y2="136.16"/></g><polygon class="cls-11" points="252.72 345.16 142.38 345.16 186.26 269.17 296.59 269.17 252.72 345.16"/><g class="cls-28"><line class="cls-29" x1="240.83" y1="312.33" x2="218.99" y2="350.17"/><line class="cls-29" x1="242.58" y1="326.05" x2="228.12" y2="351.09"/></g><path class="cls-1" d="M205.68,293.21l-.16.25c-.95,1.64-1.15,3.17-.56,4.19a3,3,0,0,0,2.75,1.26c3.26,0,7.46-2.67,9.35-6,.95-1.64,1.15-3.17.56-4.19a3,3,0,0,0-2.75-1.26h-.21l-3.27,5.69Z"/><path class="cls-25" d="M205.68,293.21h5.72l3.27-5.69C211.52,287.62,207.6,290.11,205.68,293.21Z"/><path class="cls-25" d="M214.87,286.5l.36,0L219,280H192.53l-7.59,13.21h19.59l.13-.25C206.71,289.4,211.29,286.5,214.87,286.5Z"/><path class="cls-30" d="M215.24,286.52l-.57,1h.21a3,3,0,0,1,2.75,1.26c.59,1,.38,2.55-.56,4.19-1.9,3.28-6.09,6-9.35,6a3,3,0,0,1-2.75-1.26c-.59-1-.38-2.55.56-4.19l.16-.25h-1.15c-1,1.87-1.17,3.66-.43,4.94a3.93,3.93,0,0,0,3.62,1.76c3.58,0,8.16-2.9,10.22-6.45,1.13-2,1.34-3.85.56-5.19A3.8,3.8,0,0,0,215.24,286.52Z"/><path class="cls-18" d="M214.67,287.51l.57-1-.36,0c-3.58,0-8.16,2.9-10.22,6.45l-.13.25h1.15C207.6,290.11,211.52,287.62,214.67,287.51Z"/><path class="cls-23" d="M433.41,187.67H375.66a6.22,6.22,0,0,0-4.73,3l-2.89,5h63.75l2.89-5C435.63,189,435.07,187.67,433.41,187.67Z"/><path class="cls-23" d="M397.64,254.82H333.89l-2.89,5c-1,1.66-.39,3,1.27,3H390a6.22,6.22,0,0,0,4.73-3Z"/><polygon class="cls-15" points="431.79 195.67 368.04 195.67 333.89 254.82 397.64 254.82 431.79 195.67"/><path class="cls-23" d="M414.11,213.08h-49l-12.89,22.33c-.64,1.1-.26,2,.85,2h45a4.15,4.15,0,0,0,3.15-2Z"/><polygon class="cls-31" points="365.11 213.08 380.81 228.33 414.11 213.08 365.11 213.08"/><path class="cls-30" d="M417.78,212.83a7.3,7.3,0,0,1-5.56,3.52c-1.95,0-2.61-1.58-1.49-3.52a7.3,7.3,0,0,1,5.56-3.52C418.23,209.31,418.9,210.89,417.78,212.83Z"/><line class="cls-24" x1="355.08" y1="258.82" x2="371.83" y2="258.82"/><path class="cls-18" d="M403,191.67a1.64,1.64,0,0,1-1.25.79c-.44,0-.59-.35-.33-.79a1.64,1.64,0,0,1,1.25-.79C403.12,190.88,403.27,191.23,403,191.67Z"/><polygon class="cls-10" points="187.25 188.17 184.1 188.17 109.62 317.16 112.78 317.16 187.25 188.17"/><path class="cls-32" d="M309.56,75.36c-4.48,2.09-22.18.47-22.18.47S297.52,61.23,302,59.14a8.95,8.95,0,1,1,7.56,16.21Z"/><g class="cls-33"><line class="cls-34" x1="285.34" y1="76.78" x2="307.31" y2="66.53"/></g><circle class="cls-32" cx="304.11" cy="29.86" r="2.5" transform="translate(172.04 305.41) rotate(-70)"/><line class="cls-27" x1="304.11" y1="29.86" x2="279.47" y2="97.54"/><path class="cls-25" d="M305,27.51h0a10.59,10.59,0,0,1-6.69-12.35L301.8,0l23.27,8.47-7,13.88A10.59,10.59,0,0,1,305,27.51Z"/><path class="cls-30" d="M823.46,61.67H817.2V74.39h17.24v-11h-9.25A1.74,1.74,0,0,1,823.46,61.67Z"/><path class="cls-30" d="M823.46,86.57H817.2V99.29h17.24v-11h-9.25A1.74,1.74,0,0,1,823.46,86.57Z"/></g></g></svg>