<svg id="Layer_1" data-name="Layer 1" xmlns="http://www.w3.org/2000/svg" viewBox="0 0 100 100"><defs><style>.cls-1{fill:#d1e2e5;}</style></defs><title>18B40000.I_BQX_Icons_Outlined</title><g id="SVGID"><circle class="cls-1" cx="50" cy="50.13" r="25" transform="translate(-5.09 94.6) rotate(-83.99)"/></g><g id="_Group_" data-name="&lt;Group&gt;"><path d="M51.37,63.27a.81.81,0,0,1-.58.95,2.68,2.68,0,0,1-1.71,0,.81.81,0,0,1-.57-.95l.5-2.34a1.4,1.4,0,0,1-.49-1.06,1.42,1.42,0,0,1,2.84,0,1.4,1.4,0,0,1-.49,1.06Z"/><path d="M43.21,42a10.59,10.59,0,0,1,13.15-.33.81.81,0,1,1-1,1.3,9,9,0,0,0-11.13.28.8.8,0,0,1-.52.19.83.83,0,0,1-.63-.29A.81.81,0,0,1,43.21,42Z"/><path d="M42.72,67.38a20.47,20.47,0,0,0,7.22,1.37,21.36,21.36,0,0,0,7.33-1.38V54.23H42.72Zm15.61,1.18a22.14,22.14,0,0,1-8.39,1.69,21.49,21.49,0,0,1-8.29-1.69.76.76,0,0,1-.43-.68V53.48a.75.75,0,0,1,.75-.75h3.25a.7.7,0,0,1-.05-.25V50.26c0-3.06,2.16-5.55,4.83-5.55s4.82,2.49,4.82,5.55a.82.82,0,0,1-.81.82.82.82,0,0,1-.82-.82c0-2.16-1.43-3.92-3.19-3.92s-3.2,1.76-3.2,3.92v2.22a1,1,0,0,1-.05.25H58a.75.75,0,0,1,.75.75v14.4A.76.76,0,0,1,58.33,68.56Z"/><path d="M51.44,36.37a13.81,13.81,0,0,0-11.16,3.91.82.82,0,0,1-.58.24.79.79,0,0,1-.58-.25.82.82,0,0,1,0-1.15,15.48,15.48,0,0,1,21.73,0,.82.82,0,1,1-1.15,1.16A13.69,13.69,0,0,0,51.44,36.37Z"/><path d="M34.69,36.68a20.37,20.37,0,0,1,30.51-.12.81.81,0,0,1-.07,1.15A.82.82,0,0,1,64,37.65a18.74,18.74,0,0,0-28.07.1.78.78,0,0,1-.61.28.86.86,0,0,1-.54-.2A.81.81,0,0,1,34.69,36.68Z"/></g></svg>