<svg id="Layer_1" data-name="Layer 1" xmlns="http://www.w3.org/2000/svg" viewBox="0 0 100 100"><defs><style>.cls-1{fill:#d1e2e5;}.cls-2{fill:none;}.cls-3{fill:#91b0bf;}.cls-4{fill:#fff;}</style></defs><title>18B40000.I_BQX_Icons_Outlined</title><g id="SVGID"><circle class="cls-1" cx="50" cy="50.13" r="25"/></g><path class="cls-2" d="M53.26,38.77V35.1H50.75v6.83A3.26,3.26,0,0,0,53.26,38.77Z"/><path class="cls-2" d="M49.25,41.93V35.1H46.74v3.67A3.25,3.25,0,0,0,49.25,41.93Z"/><path class="cls-3" d="M57.27,33.6V26.2a25.07,25.07,0,0,0-14.54,0v7.4Z"/><path class="cls-4" d="M67.53,58.78a1.19,1.19,0,0,0-1.19,2.06,1.19,1.19,0,1,0,1.19-2.06Z"/><path class="cls-4" d="M64.69,64.72a1.19,1.19,0,0,0,0-1.68A1.18,1.18,0,0,0,63,63a1.19,1.19,0,1,0,1.68,1.68Z"/><path class="cls-4" d="M63.73,58a1.19,1.19,0,1,0-1.62.44A1.19,1.19,0,0,0,63.73,58Z"/><path class="cls-4" d="M60.19,62.27a1.19,1.19,0,1,0-1.67-.14A1.19,1.19,0,0,0,60.19,62.27Z"/><path class="cls-4" d="M60.41,68a1.19,1.19,0,1,0-1.62-.44A1.19,1.19,0,0,0,60.41,68Z"/><path class="cls-4" d="M59.5,55.61a1.19,1.19,0,1,0-1.63.43A1.19,1.19,0,0,0,59.5,55.61Z"/><path class="cls-4" d="M55.42,70.14A1.19,1.19,0,1,0,54,69.3,1.19,1.19,0,0,0,55.42,70.14Z"/><path class="cls-4" d="M55.48,59.62a1.19,1.19,0,1,0-1.62-.43A1.19,1.19,0,0,0,55.48,59.62Z"/><path class="cls-4" d="M55.42,65a1.19,1.19,0,1,0-1.52-.71A1.2,1.2,0,0,0,55.42,65Z"/><path class="cls-4" d="M55.26,53.16a1.19,1.19,0,1,0-1.62.44A1.19,1.19,0,0,0,55.26,53.16Z"/><path class="cls-4" d="M51.24,69.69a1.18,1.18,0,1,0-1.19,1.18A1.19,1.19,0,0,0,51.24,69.69Z"/><path class="cls-4" d="M50,63.61a1.19,1.19,0,1,0,1.18,1.19A1.19,1.19,0,0,0,50,63.61Z"/><path class="cls-4" d="M50,58.72a1.19,1.19,0,1,0,1.18,1.19A1.19,1.19,0,0,0,50,58.72Z"/><path class="cls-4" d="M50,53.83A1.19,1.19,0,1,0,51.18,55,1.19,1.19,0,0,0,50,53.83Z"/><path class="cls-4" d="M50,48.94a1.19,1.19,0,1,0,1.18,1.18A1.18,1.18,0,0,0,50,48.94Z"/><path class="cls-4" d="M45.7,57.57a1.19,1.19,0,1,0,.43,1.62A1.18,1.18,0,0,0,45.7,57.57Z"/><path class="cls-4" d="M46.79,52a1.19,1.19,0,1,0-.43,1.62A1.18,1.18,0,0,0,46.79,52Z"/><path class="cls-4" d="M45.29,67.9a1.19,1.19,0,1,0,.84,1.46A1.19,1.19,0,0,0,45.29,67.9Z"/><path class="cls-4" d="M45.39,62.79A1.19,1.19,0,0,0,44.57,65a1.19,1.19,0,0,0,.82-2.24Z"/><path d="M41.23,34.35a.74.74,0,0,0,.75.75h3.26v3.67a4.74,4.74,0,0,0,4,4.68v1.49H46a.75.75,0,0,0,0,1.5h8a.75.75,0,0,0,0-1.5H50.75V43.45a4.75,4.75,0,0,0,4-4.68V35.1H58a.75.75,0,0,0,.75-.75V26.71q-.74-.28-1.5-.51v7.4H42.73V26.2q-.76.23-1.5.51Zm9.52.75h2.51v3.67a3.26,3.26,0,0,1-2.51,3.16Zm-4,0h2.51v6.83a3.25,3.25,0,0,1-2.51-3.16Z"/><path class="cls-4" d="M42.56,54.42A1.19,1.19,0,0,0,40.93,54a1.19,1.19,0,1,0,1.63.43Z"/><path class="cls-4" d="M41.33,60.45a1.19,1.19,0,1,0,.15,1.68A1.2,1.2,0,0,0,41.33,60.45Z"/><path class="cls-4" d="M39.23,66.53a1.19,1.19,0,1,0,1.62-.44A1.19,1.19,0,0,0,39.23,66.53Z"/><path class="cls-4" d="M37.89,58.49A1.19,1.19,0,1,0,36.26,58,1.19,1.19,0,0,0,37.89,58.49Z"/><path class="cls-4" d="M35.35,63.2a1.19,1.19,0,1,0,1.68,0A1.18,1.18,0,0,0,35.35,63.2Z"/><path class="cls-4" d="M33.65,61A1.19,1.19,0,1,0,32,60.6,1.19,1.19,0,0,0,33.65,61Z"/></svg>