<svg id="Layer_1" data-name="Layer 1" xmlns="http://www.w3.org/2000/svg" viewBox="0 0 100 100"><defs><style>.cls-1{fill:#d1e2e5;}</style></defs><title>18B40000.I_BQX_Icons_Outlined</title><circle class="cls-1" cx="50" cy="50.13" r="25"/><path d="M41.86,26.49,63.44,38.32,47.5,47.06,28.83,36.83c-.27.42-.52.85-.77,1.29L46.75,48.36V67.65l-21-11.52c.17.69.37,1.37.6,2L47.14,69.57l.36.2,18.25-10V37.87l-21.87-12C43.2,26.05,42.52,26.26,41.86,26.49ZM64.25,58.87l-16,8.78V48.36l16-8.78Z"/><path d="M61.94,43.71,50.56,50V63.51l11.38-6.2ZM52.06,61V52.59l7.68,4.21Zm8.38-5.51-8.37-4.59,8.37-4.63Z"/></svg>