<svg id="Layer_1" data-name="Layer 1" xmlns="http://www.w3.org/2000/svg" viewBox="0 0 100 100"><defs><style>.cls-1{fill:#d1e2e5;}</style></defs><title>18B40000.I_BQX_Icons_Outlined</title><circle class="cls-1" cx="50" cy="50.13" r="25"/><path d="M41.85,26.49,63.34,38.37l-1.89,1L39.68,27.35c-.56.25-1.1.52-1.64.81l21.85,12.1-2,1.1-21.75-12c-.46.31-.91.63-1.35,1L56.33,42.22l-1.9,1L33.28,31.54q-.58.53-1.13,1.09L52.88,44.11l-2,1.06L30.86,34.05c-.33.39-.64.79-.95,1.19L49.38,46l-2,1.08L28.83,36.83c-.27.42-.52.85-.76,1.29L46.72,48.46,46.65,67.7,25.73,56.14c.17.7.37,1.38.6,2L47.39,69.83l18.29-9.95L65.75,38,43.85,25.89C43.17,26.06,42.51,26.26,41.85,26.49Zm8.26,40.15-2,1.07.07-19.34,2-1.07Zm3.54-1.92-2,1.1.06-19.35,2-1.11Zm3.54-1.93-2,1.11.07-19.37,2-1.11Zm3.49-1.9-2,1.08.07-19.38,2-1.09Zm3.5-1.9-2,1.09.07-19.4,2-1.1Z"/></svg>