<svg id="Layer_1" data-name="Layer 1" xmlns="http://www.w3.org/2000/svg" viewBox="0 0 100 100"><defs><style>.cls-1{fill:#d41659;}</style></defs><title>18B40000.I_BQX_Icons_Outlined</title><path class="cls-1" d="M57.57,52.51l-4.86-8a3.22,3.22,0,0,0-5.44,0l-4.86,8a2.84,2.84,0,0,0,0,3A3.14,3.14,0,0,0,45.14,57h9.71a3.14,3.14,0,0,0,2.72-1.5A2.84,2.84,0,0,0,57.57,52.51Zm-1.22,2.32a1.73,1.73,0,0,1-1.5.82H45.14a1.73,1.73,0,0,1-1.5-.82,1.56,1.56,0,0,1,0-1.65l4.86-8a1.77,1.77,0,0,1,3,0l4.86,8A1.56,1.56,0,0,1,56.35,54.83Zm-5.44-1.26v0a.89.89,0,0,1-1.79,0v0a.89.89,0,0,1,1.79,0ZM49.18,51V47.17a.82.82,0,0,1,1.65,0V51a.82.82,0,0,1-1.65,0Z"/></svg>