<svg id="Layer_1" data-name="Layer 1" xmlns="http://www.w3.org/2000/svg" viewBox="0 0 100 100"><defs><style>.cls-1{fill:#d1e2e5;}.cls-2{fill:#fff;}.cls-3{fill:#a6a6a6;}</style></defs><title>18B40000.I_BQX_Icons_Outlined</title><g id="SVGID"><circle class="cls-1" cx="50" cy="50.13" r="25" transform="translate(-5.09 94.6) rotate(-83.99)"/></g><g id="_Group_" data-name="&lt;Group&gt;"><path class="cls-2" d="M59.5,38.91l1.71,1.7-.51,1-.91.15a1.67,1.67,0,0,0-.91.47l-4.55,4.63-1-.89L58,41.27a1.61,1.61,0,0,0,.45-.9l.14-.94Z"/><path class="cls-2" d="M46.87,54.83s0,.34-.74,1.5L41,61.38l-2.21-2.19L44,54.1a4.85,4.85,0,0,1,1.42-.77,1.11,1.11,0,0,1,.17.15l1.2,1.21Z"/><path class="cls-3" d="M58.85,58.57a.39.39,0,1,1,0,.77.39.39,0,0,1,0-.77Z"/><path class="cls-3" d="M60,59a1.12,1.12,0,1,0-1.12,1.11A1.12,1.12,0,0,0,60,59Zm-3.47.42c-.22-1.07-1.36-2.24-5.26-6.11l-.16-.16c-1.28-1.27-2.86-2.83-4.7-4.71a6.78,6.78,0,0,0-2.14-1.54,2.53,2.53,0,0,0-1-.19,5.74,5.74,0,0,0-.71.06,4.6,4.6,0,0,1-.56,0,2.68,2.68,0,0,1-1.53-.53,3.9,3.9,0,0,1-1.69-2.36l1.14.76a1.65,1.65,0,0,0,1.4.19l1.46-.46a1.64,1.64,0,0,0,1.15-1.64l-.06-1.6a1.77,1.77,0,0,0-.75-1.36l-1.23-.83a3.61,3.61,0,0,1,2.82.5,4,4,0,0,1,1.68,3.71,4.58,4.58,0,0,0,1.54,3.45l5.61,5.33.33.32c4,3.83,4.41,4.23,5.47,4.31l.06,0a2.29,2.29,0,0,1,1.22.66,2.51,2.51,0,0,1,0,3.5,2.41,2.41,0,0,1-4.1-1.36Z"/><path d="M58.47,59a.38.38,0,0,0,.38.38.39.39,0,1,0,0-.77A.38.38,0,0,0,58.47,59Zm.38,1.11A1.12,1.12,0,1,1,60,59,1.11,1.11,0,0,1,58.85,60.07Z"/><path d="M61.21,40.61l-1.71-1.7-.95.52-.14.94a1.61,1.61,0,0,1-.45.9l-4.58,4.66,1,.89,4.55-4.63a1.67,1.67,0,0,1,.91-.47l.91-.15ZM55,48.24a.94.94,0,0,1-.68.29,1,1,0,0,1-.68-.27L52,46.67a1,1,0,0,1-.32-.65,1,1,0,0,1,.26-.75l5-5.05.22-1.28a1,1,0,0,1,.48-.69l1.53-.84a1,1,0,0,1,1.18.18l2.23,2.21A1,1,0,0,1,62.72,41l-.83,1.55a.93.93,0,0,1-.69.49L60,43.2Z"/><path d="M40.45,46.24a2.68,2.68,0,0,0,1.53.53,4.6,4.6,0,0,0,.56,0,5.74,5.74,0,0,1,.71-.06,2.53,2.53,0,0,1,1,.19,6.78,6.78,0,0,1,2.14,1.54c1.84,1.88,3.42,3.44,4.7,4.71l.16.16c3.9,3.87,5,5,5.26,6.11a2.41,2.41,0,0,0,4.1,1.36,2.51,2.51,0,0,0,0-3.5,2.29,2.29,0,0,0-1.22-.66l-.06,0c-1.06-.08-1.47-.48-5.47-4.31l-.33-.32L47.91,46.6a4.58,4.58,0,0,1-1.54-3.45,4,4,0,0,0-1.68-3.71,3.61,3.61,0,0,0-2.82-.5l1.23.83a1.77,1.77,0,0,1,.75,1.36l.06,1.6a1.64,1.64,0,0,1-1.15,1.64l-1.46.46a1.65,1.65,0,0,1-1.4-.19l-1.14-.76A3.9,3.9,0,0,0,40.45,46.24Zm-.82,1.26a5.34,5.34,0,0,1-2.46-4.74.63.63,0,0,1,.12-.37,1,1,0,0,1,.65-.5l.11,0a1,1,0,0,1,.64.16l.15.1,1.88,1.25.36.74-.23-.72,1.46-.46a.15.15,0,0,0,.11-.15l-.07-1.6a.28.28,0,0,0-.09-.17l-1.9-1.29-.15-.1a1,1,0,0,1-.27-1.31l.06-.11a.72.72,0,0,1,.3-.27,5.16,5.16,0,0,1,5.22.25,5.47,5.47,0,0,1,2.34,5.07c-.05.71.25,1.33,1.12,2.29,2.39,2.25,4.19,4,5.58,5.3l.33.32C58.47,54.59,59,55,59.5,55.07a.58.58,0,0,1,.18,0,3.83,3.83,0,0,1,2,1.08,4,4,0,0,1,0,5.61,3.91,3.91,0,0,1-5.56,0A4.07,4.07,0,0,1,55,59.66c-.13-.65-1.91-2.41-4.84-5.33L50,54.17c-1.28-1.27-2.86-2.84-4.7-4.71a5.71,5.71,0,0,0-1.64-1.21,1.67,1.67,0,0,0-.92,0,6.33,6.33,0,0,1-.78.06A4.18,4.18,0,0,1,39.63,47.5Z"/><path d="M43.05,52.9c1.87-1.28,2.66-1.41,3.56-.47l1.19,1.2c.89.88.78,1.72-.46,3.6l-.1.12L42,62.47a1.5,1.5,0,0,1-1,.43,1.48,1.48,0,0,1-1-.44l-2.21-2.25a1.49,1.49,0,0,1,0-2.08L42.94,53Zm3.08,3.43c.76-1.16.75-1.47.74-1.5l-.13-.14-1.2-1.21a1.11,1.11,0,0,0-.17-.15A4.85,4.85,0,0,0,44,54.1l-5.18,5.09L41,61.38Z"/></g></svg>