<svg xmlns="http://www.w3.org/2000/svg" viewBox="0 0 100 100" preserveAspectRatio="xMinYMin meet">
  <g fill="none">
    <rect  id="rect" width="100%" height="100%" />
    <path fill="#FFF" d="M30.5 12.74l1.43 2.41-4.16 7.76-4.55-1.79zM18.61 22l-2.34.92-4.17-7.76 1.43-2.41 7.28 8.37zm10.41-9.76L22 20.32l-7.02-8.08z"/>
    <path d="M42.06 2.08v13.81l-8.85-1.42-2-3.34v-.05l-.21-.14c-.0250435-.0265879-.0558252-.0471091-.09-.06-.0606197-.0379407-.1289512-.0618568-.2-.07H13.24c-.067914.0082451-.1329698.032213-.19.07-.0373061.0124765-.0714355.0329541-.1.06l-.14.14v.05l-2 3.34-8.84 1.42V2.08c0-.16443422.06532124-.32213365.1815938-.4384062C2.26786635 1.52532124 2.42556578 1.46 2.59 1.46h38.85c.3424165 0 .62.27758346.62.62z" fill="#FFF"/>
    <path fill="#91B0BF" d="M22 22.2l2.17.86-1.13 3.04h-2.11l-1.13-3.03zm-1 5.35h2.1l4.85 18c-1.7935022 1.1963954-3.7072524 2.2018683-5.71 3-.147458.0600295-.312542.0600295-.46 0-1.9849314-.7697444-3.8822871-1.7485923-5.66-2.92L21 27.55z"/>
    <path fill="#D1E2E5" d="M42.06 17.36v2c-.027179 9.9943247-4.7956036 19.3827403-12.85 25.3l-4.85-18 1.16-3.1 2.32.91c.0855499.0196756.1744501.0196756.26 0 .2643693.0005027.5071244-.145921.63-.38l4.42-8.24 8.91 1.51zM15.9 24.55c.0857239.0180781.1742761.0180781.26 0l2.29-.9 1.22 3.26-4.81 17.8C6.76532582 38.8014196 1.96762723 29.3916919 1.94 19.37v-2l8.9-1.43 4.42 8.24c.1304986.2302205.3753717.3717877.64.37z"/>
    <path d="M16.23 22.91l2.34-.91 2.16-.85-7.28-8.37-1.43 2.41 4.21 7.72zm-.07 1.59c-.0857239.0180781-.1742761.0180781-.26 0-.2667365-.0002283-.5121127-.1459204-.64-.38l-4.42-8.24-8.9 1.43v2c.00851885 10.0428496 4.80828956 19.4789313 12.92 25.4l4.81-17.85-1.22-3.26-2.29.9zm8-1.44L22 22.2l-2.2.87 1.13 3H23l1.16-3.01zM22 20.32l7-8.08H15l7 8.08zm.24 28.19c2.0027476-.7981317 3.9164978-1.8036046 5.71-3l-4.85-18H21l-4.86 18c1.7777129 1.1714077 3.6750686 2.1502556 5.66 2.92.1312503.0814071.2884944.109997.44.08zm8.26-35.77l-7.28 8.38 4.55 1.79 4.16-7.76-1.43-2.41zm11.56 3.15V2.08c0-.34241654-.2775835-.62-.62-.62H2.57c-.34241654 0-.62.27758346-.62.62v13.81l8.84-1.42 2-3.34v-.05l.14-.14c.0285645-.0270459.0626939-.0475235.1-.06.0570302-.037787.122086-.0617549.19-.07h17.53c.0710488.0081432.1393803.0320593.2.07.0341748.0128909.0649565.0334121.09.06l.14.14v.05l2 3.34 8.88 1.42zm0 3.48v-2l-8.91-1.43-4.42 8.24c-.1228756.234079-.3656307.3805027-.63.38-.0855499.0196756-.1744501.0196756-.26 0l-2.32-.91-1.16 3.1 4.85 18c8.0770635-5.9339692 12.8482255-15.3574782 12.85-25.38zM43.5 2.08v17.29c-.0170005 13.4629441-8.2493417 25.5518419-20.77 30.5-.2339683.085283-.4809742.1292703-.73.13-.2421738-.0043111-.4820098-.0482247-.71-.13C8.76148221 44.928223.5202469 32.8379066.5 19.37V2.08c-.00266056-.55072872.214253-1.07981398.60274205-1.47017978C1.4912311.21945442 2.01926485-.00000643 2.57 0h38.87c.5490001.00264577 1.0744629.22327593 1.4607892.61335299.3863263.39007706.6018694.91764694.5992108 1.46664701z" fill="#000"/>
  </g>
</svg>