<svg xmlns="http://www.w3.org/2000/svg" xmlns:xlink="http://www.w3.org/1999/xlink" width="785" height="361.5" viewBox="0 0 785 361.5"><defs><style>.cls-1,.cls-10,.cls-13,.cls-15,.cls-24,.cls-25,.cls-5,.cls-6{fill:none;}.cls-2{isolation:isolate;}.cls-3{fill:#91b0bf;}.cls-4{fill:#d1e2e5;}.cls-13,.cls-25,.cls-5{stroke:#0a3360;}.cls-10,.cls-15,.cls-24,.cls-25,.cls-5,.cls-6,.cls-8{stroke-miterlimit:10;}.cls-5,.cls-6{stroke-width:0.7px;}.cls-6{stroke:#91b0bf;}.cls-7,.cls-8{fill:#fff;}.cls-10,.cls-8{stroke:#fff;}.cls-9{fill:#ffcc8f;}.cls-11{fill:#efab00;}.cls-12{fill:#08caa9;}.cls-13,.cls-24,.cls-25{stroke-linecap:round;}.cls-13{stroke-linejoin:round;}.cls-13,.cls-15,.cls-24,.cls-25{stroke-width:0.5px;}.cls-14{fill:#0a3360;}.cls-15{stroke:#efab00;}.cls-16{fill:#ff527b;}.cls-17{fill:#d3466f;}.cls-18{fill:#c05711;}.cls-19{clip-path:url(#clip-path);}.cls-20,.cls-22{fill:#007cb9;}.cls-21{clip-path:url(#clip-path-2);}.cls-22,.cls-27{opacity:0.3;mix-blend-mode:multiply;}.cls-23{fill:#f49d62;}.cls-24{stroke:#d87d4a;}.cls-26{fill:#d87d4a;}.cls-27,.cls-28{fill:#067462;}.cls-29{clip-path:url(#clip-path-3);}.cls-30{clip-path:url(#clip-path-4);}</style><clipPath id="clip-path"><path class="cls-1" d="M705.56,55.59l3.23-9a6.6,6.6,0,0,0-6.37-8.83h-.18a8.48,8.48,0,0,0-8.26,7.8l-.48,6.08a3.29,3.29,0,0,0,1.65,3.11l1.48.84Z"/></clipPath><clipPath id="clip-path-2"><path class="cls-1" d="M710.81,54.38h2.42a6.11,6.11,0,0,1,5.87,4.42l3.69,12.8a8.11,8.11,0,0,1-3.24,9l-4,2.7Z"/></clipPath><clipPath id="clip-path-3"><rect class="cls-1" x="838.45" y="-108.38" width="799.94" height="623"/></clipPath><clipPath id="clip-path-4"><rect class="cls-1" x="73.24" y="169.75" width="1779.49" height="344.87"/></clipPath></defs><title>BQX-Hero-Start</title><g class="cls-2"><g id="_01" data-name="01"><path class="cls-3" d="M54.19,137H290a0,0,0,0,1,0,0V361.5a0,0,0,0,1,0,0H48.5a0,0,0,0,1,0,0V142.69A5.69,5.69,0,0,1,54.19,137Z"/><rect class="cls-3" x="593" width="192" height="361.5"/><rect class="cls-4" x="290" width="303" height="361.5"/><rect class="cls-5" x="57.33" y="327" width="153.33" height="24.33"/><rect class="cls-6" x="299.69" y="327" width="91.59" height="24.33"/><rect class="cls-6" x="491.72" y="327" width="91.59" height="24.33"/><rect class="cls-7" x="323.15" y="55.86" width="117.92" height="64.94" transform="translate(470.45 -293.78) rotate(90)"/><rect class="cls-7" x="441.93" y="55.86" width="117.92" height="64.94" transform="translate(589.22 -412.55) rotate(90)"/><rect class="cls-8" x="356.05" y="92.49" width="52.12" height="12.82"/><rect class="cls-9" x="356.05" y="35.78" width="52.12" height="105.1"/><line class="cls-10" x1="356.05" y1="98.9" x2="408.17" y2="98.9"/><rect class="cls-9" x="474.83" y="35.78" width="52.12" height="105.1"/><line class="cls-10" x1="474.83" y1="98.9" x2="526.95" y2="98.9"/><rect class="cls-11" x="356.05" y="35.78" width="52.12" height="27.46"/><rect class="cls-11" x="474.83" y="35.78" width="52.12" height="27.46"/><rect class="cls-7" x="607.5" y="209.5" width="177.5" height="152"/><polygon class="cls-9" points="612.5 318.33 612.5 214.5 785 214.5 785 285.5 785 318.33 612.5 318.33"/><rect class="cls-7" x="299.69" y="210" width="91.59" height="108.33"/><rect class="cls-9" x="296.32" y="223.37" width="98.33" height="81.59" transform="translate(609.66 -81.32) rotate(90)"/><rect class="cls-7" x="491.72" y="210" width="91.59" height="108.33"/><rect class="cls-9" x="488.35" y="223.37" width="98.33" height="81.59" transform="translate(801.68 -273.34) rotate(90)"/><rect class="cls-7" x="406.43" y="210" width="70.15" height="151.5"/><rect class="cls-9" x="370.75" y="255.68" width="141.5" height="60.15" transform="translate(727.25 -155.75) rotate(90)"/><rect class="cls-7" x="704.17" y="257.01" width="26.55" height="10.93" rx="1.74" ry="1.74"/><path class="cls-12" d="M707.18,262.72a3.11,3.11,0,0,1,.13-.94,2,2,0,0,1,.38-.7,1.63,1.63,0,0,1,.61-.44,2.3,2.3,0,0,1,1.67,0,1.66,1.66,0,0,1,.61.46,1.93,1.93,0,0,1,.36.7,3.25,3.25,0,0,1,.12.91,3.11,3.11,0,0,1-.13.94,1.93,1.93,0,0,1-.38.7,1.66,1.66,0,0,1-.61.44,2.1,2.1,0,0,1-.82.15,2.07,2.07,0,0,1-.86-.16,1.63,1.63,0,0,1-.6-.46,2,2,0,0,1-.36-.7A3.27,3.27,0,0,1,707.18,262.72Zm.65,0a2.66,2.66,0,0,0,.08.65,1.68,1.68,0,0,0,.23.54,1.15,1.15,0,0,0,.4.37,1.3,1.3,0,0,0,1.52-.27,2,2,0,0,0,.35-1.28,2.63,2.63,0,0,0-.08-.65,1.68,1.68,0,0,0-.23-.54,1.12,1.12,0,0,0-1-.51,1.16,1.16,0,0,0-.94.42A2,2,0,0,0,707.83,262.72Z"/><path class="cls-12" d="M713.75,260.61a4.13,4.13,0,0,1,.56-.08l.6,0a3.8,3.8,0,0,1,.64.06,1.83,1.83,0,0,1,.59.2,1.15,1.15,0,0,1,.6,1.08,1.33,1.33,0,0,1-.15.66,1.29,1.29,0,0,1-.41.45,1.78,1.78,0,0,1-.58.25,2.86,2.86,0,0,1-.68.08h-.55v1.61h-.61Zm1.18.44h-.32l-.24,0v1.63l.1,0h.4a2.81,2.81,0,0,0,.44,0,1.17,1.17,0,0,0,.39-.13.76.76,0,0,0,.28-.27.86.86,0,0,0,.11-.46.71.71,0,0,0-.1-.4.75.75,0,0,0-.27-.25,1.15,1.15,0,0,0-.37-.12A2.52,2.52,0,0,0,714.93,261.05Z"/><path class="cls-12" d="M719.07,260.57h2.6v.54h-2v1.3h1.81v.54h-1.81v1.38h2v.54h-2.63Z"/><path class="cls-12" d="M725.36,262.14l-.37-.6h0l.07.6v2.74h-.58v-4.37h.34l2.2,2.79.35.57h0l-.07-.57v-2.73h.58v4.37h-.34Z"/><polyline class="cls-13" points="719.71 257.3 717.44 253.56 715.17 257.3"/><circle class="cls-14" cx="717.44" cy="252.63" r="0.41"/><rect class="cls-11" x="633.71" y="306.96" width="72.1" height="3.14"/><rect class="cls-11" x="645.61" y="310.1" width="2.89" height="8.24"/><rect class="cls-11" x="691.01" y="310.1" width="2.89" height="8.24"/><path class="cls-11" d="M715.83,297h0a2.65,2.65,0,0,0-2.59,2.07l-4.31,19.28h9.55v-18.7A2.65,2.65,0,0,0,715.83,297Z"/><path class="cls-11" d="M623.68,297h0a2.65,2.65,0,0,1,2.59,2.07l4.31,19.28H621v-18.7A2.65,2.65,0,0,1,623.68,297Z"/><rect class="cls-11" x="742.54" y="306.96" width="72.1" height="3.14"/><rect class="cls-11" x="754.44" y="310.1" width="2.89" height="8.24"/><path class="cls-11" d="M732.52,297h0a2.65,2.65,0,0,1,2.59,2.07l4.31,19.28h-9.55v-18.7A2.65,2.65,0,0,1,732.52,297Z"/><path class="cls-11" d="M670,307h-.57a4.62,4.62,0,0,1-4.4-6l2.38-7.42h4.62l2.38,7.42A4.62,4.62,0,0,1,670,307Z"/><circle class="cls-11" cx="669.76" cy="284.8" r="3.25"/><path class="cls-11" d="M669.76,290.37a2.71,2.71,0,0,1-4.6,0,2.71,2.71,0,0,1,4.6,0Z"/><line class="cls-15" x1="669.76" y1="287.2" x2="669.76" y2="295.68"/><polygon class="cls-7" points="205.67 313.33 62.33 313.33 62.33 237.33 57.33 237.33 57.33 318.33 210.67 318.33 210.67 237.33 205.67 237.33 205.67 313.33"/><rect class="cls-9" x="62.33" y="237.33" width="143.33" height="76"/><polygon class="cls-7" points="276.5 356.5 226.91 356.5 226.91 237.33 221.91 237.33 221.91 361.5 281.5 361.5 281.5 237.33 276.5 237.33 276.5 356.5"/><rect class="cls-9" x="226.91" y="237.33" width="49.59" height="119.17"/><polygon class="cls-14" points="290 166.78 53.5 166.78 48.5 171.97 48.5 237.33 57.33 237.33 57.33 209.5 210.67 209.5 210.67 237.33 221.91 237.33 221.91 209.5 281.5 209.5 281.5 237.33 290 237.33 290 166.78"/><polygon class="cls-3" points="57.33 209.5 57.33 237.33 62.33 237.33 62.33 214.5 205.67 214.5 205.67 237.33 210.67 237.33 210.67 209.5 57.33 209.5"/><rect class="cls-11" x="62.33" y="214.5" width="143.33" height="22.83"/><polygon class="cls-3" points="221.91 209.5 221.91 237.33 226.91 237.33 226.91 214.5 276.5 214.5 276.5 237.33 281.5 237.33 281.5 209.5 221.91 209.5"/><rect class="cls-11" x="226.91" y="214.5" width="49.59" height="22.83"/><rect class="cls-7" x="221.91" y="292.5" width="59.59" height="8.83"/><rect class="cls-3" x="254.25" y="296.17" width="22.12" height="2" rx="1" ry="1"/><rect class="cls-14" x="452.94" y="286.83" width="22.12" height="2" rx="1" ry="1" transform="translate(751.83 -176.17) rotate(90)"/><rect class="cls-11" x="62.33" y="304.92" width="143.33" height="8.41"/><rect class="cls-11" x="304.69" y="304.92" width="81.59" height="8.41"/><rect class="cls-11" x="496.72" y="304.92" width="81.59" height="8.41"/><polygon class="cls-16" points="69.47 166.78 52.5 166.78 1.33 219.77 18.3 219.77 69.47 166.78"/><polygon class="cls-7" points="86.45 166.78 69.47 166.78 18.3 219.77 35.28 219.77 86.45 166.78"/><polygon class="cls-16" points="103.42 166.78 86.45 166.78 35.28 219.77 52.25 219.77 103.42 166.78"/><polygon class="cls-7" points="120.39 166.78 103.42 166.78 52.25 219.77 69.22 219.77 120.39 166.78"/><polygon class="cls-16" points="137.36 166.78 120.39 166.78 69.22 219.77 86.19 219.77 137.36 166.78"/><polygon class="cls-7" points="154.33 166.78 137.36 166.78 86.19 219.77 103.16 219.77 154.33 166.78"/><polygon class="cls-16" points="171.3 166.78 154.33 166.78 103.16 219.77 120.13 219.77 171.3 166.78"/><polygon class="cls-7" points="188.27 166.78 171.3 166.78 120.13 219.77 137.1 219.77 188.27 166.78"/><polygon class="cls-16" points="205.24 166.78 188.27 166.78 137.1 219.77 154.07 219.77 205.24 166.78"/><polygon class="cls-7" points="222.22 166.78 205.24 166.78 154.07 219.77 171.04 219.77 222.22 166.78"/><polygon class="cls-16" points="239.19 166.78 222.22 166.78 171.04 219.77 188.02 219.77 239.19 166.78"/><polygon class="cls-7" points="256.16 166.78 239.19 166.78 188.02 219.77 204.99 219.77 256.16 166.78"/><polygon class="cls-16" points="273.13 166.78 256.16 166.78 204.99 219.77 221.96 219.77 273.13 166.78"/><polygon class="cls-7" points="290.1 166.78 273.13 166.78 221.96 219.77 238.93 219.77 290.1 166.78"/><path class="cls-17" d="M1.33,219.77h17a0,0,0,0,1,0,0v1a8.49,8.49,0,0,1-8.49,8.49h0a8.49,8.49,0,0,1-8.49-8.49v-1A0,0,0,0,1,1.33,219.77Z"/><path class="cls-4" d="M18.3,219.77h17a0,0,0,0,1,0,0v1a8.49,8.49,0,0,1-8.49,8.49h0a8.49,8.49,0,0,1-8.49-8.49v-1A0,0,0,0,1,18.3,219.77Z"/><path class="cls-17" d="M35.28,219.77h17a0,0,0,0,1,0,0v1a8.49,8.49,0,0,1-8.49,8.49h0a8.49,8.49,0,0,1-8.49-8.49v-1A0,0,0,0,1,35.28,219.77Z"/><path class="cls-4" d="M52.25,219.77h17a0,0,0,0,1,0,0v1a8.49,8.49,0,0,1-8.49,8.49h0a8.49,8.49,0,0,1-8.49-8.49v-1A0,0,0,0,1,52.25,219.77Z"/><path class="cls-17" d="M69.22,219.77h17a0,0,0,0,1,0,0v1a8.49,8.49,0,0,1-8.49,8.49h0a8.49,8.49,0,0,1-8.49-8.49v-1a0,0,0,0,1,0,0Z"/><path class="cls-4" d="M86.19,219.77h17a0,0,0,0,1,0,0v1a8.49,8.49,0,0,1-8.49,8.49h0a8.49,8.49,0,0,1-8.49-8.49v-1A0,0,0,0,1,86.19,219.77Z"/><path class="cls-17" d="M103.16,219.77h17a0,0,0,0,1,0,0v1a8.49,8.49,0,0,1-8.49,8.49h0a8.49,8.49,0,0,1-8.49-8.49v-1A0,0,0,0,1,103.16,219.77Z"/><path class="cls-4" d="M120.13,219.77h17a0,0,0,0,1,0,0v1a8.49,8.49,0,0,1-8.49,8.49h0a8.49,8.49,0,0,1-8.49-8.49v-1a0,0,0,0,1,0,0Z"/><path class="cls-17" d="M137.1,219.77h17a0,0,0,0,1,0,0v1a8.49,8.49,0,0,1-8.49,8.49h0a8.49,8.49,0,0,1-8.49-8.49v-1A0,0,0,0,1,137.1,219.77Z"/><path class="cls-4" d="M154.07,219.77h17a0,0,0,0,1,0,0v1a8.49,8.49,0,0,1-8.49,8.49h0a8.49,8.49,0,0,1-8.49-8.49v-1A0,0,0,0,1,154.07,219.77Z"/><path class="cls-17" d="M171,219.77h17a0,0,0,0,1,0,0v1a8.49,8.49,0,0,1-8.49,8.49h0a8.49,8.49,0,0,1-8.49-8.49v-1a0,0,0,0,1,0,0Z"/><path class="cls-4" d="M188,219.77h17a0,0,0,0,1,0,0v1a8.49,8.49,0,0,1-8.49,8.49h0a8.49,8.49,0,0,1-8.49-8.49v-1A0,0,0,0,1,188,219.77Z"/><path class="cls-17" d="M205,219.77h17a0,0,0,0,1,0,0v1a8.49,8.49,0,0,1-8.49,8.49h0a8.49,8.49,0,0,1-8.49-8.49v-1A0,0,0,0,1,205,219.77Z"/><path class="cls-4" d="M222,219.77h17a0,0,0,0,1,0,0v1a8.49,8.49,0,0,1-8.49,8.49h0a8.49,8.49,0,0,1-8.49-8.49v-1A0,0,0,0,1,222,219.77Z"/><path class="cls-11" d="M73.89,290.59h30a1.7,1.7,0,0,1,1.7,1.7v12.64a0,0,0,0,1,0,0H72.19a0,0,0,0,1,0,0V292.29A1.7,1.7,0,0,1,73.89,290.59Z"/><path class="cls-11" d="M81.41,282.82h15a1.7,1.7,0,0,1,1.7,1.7v6.07a0,0,0,0,1,0,0H79.71a0,0,0,0,1,0,0v-6.07A1.7,1.7,0,0,1,81.41,282.82Z"/><path class="cls-11" d="M85.26,276.49h7.28a1.7,1.7,0,0,1,1.7,1.7v4.64a0,0,0,0,1,0,0H83.56a0,0,0,0,1,0,0v-4.64A1.7,1.7,0,0,1,85.26,276.49Z"/><path class="cls-11" d="M164.09,292.89h30a1.7,1.7,0,0,1,1.7,1.7v10.34a0,0,0,0,1,0,0H162.39a0,0,0,0,1,0,0V294.59A1.7,1.7,0,0,1,164.09,292.89Z"/><path class="cls-11" d="M170.39,285.12H187.8a1.7,1.7,0,0,1,1.7,1.7v6.07a0,0,0,0,1,0,0H168.7a0,0,0,0,1,0,0v-6.07A1.7,1.7,0,0,1,170.39,285.12Z"/><path class="cls-11" d="M121.57,285.78h24.87a3.88,3.88,0,0,1,3.88,3.88V300a0,0,0,0,1,0,0H117.68a0,0,0,0,1,0,0V289.67A3.88,3.88,0,0,1,121.57,285.78Z"/><rect class="cls-11" x="115.15" y="300" width="37.7" height="1.34" rx="0.67" ry="0.67"/><rect class="cls-11" x="131.48" y="301.34" width="5.04" height="3.58"/><circle class="cls-11" cx="127.25" cy="284.3" r="1.48"/><circle class="cls-11" cx="134" cy="284.3" r="1.48"/><circle class="cls-11" cx="140.75" cy="284.3" r="1.48"/><rect class="cls-7" x="608.99" y="-32.47" width="117.92" height="64.94" transform="translate(667.95 -667.95) rotate(90)"/><rect class="cls-7" x="727.76" y="-32.47" width="117.92" height="64.94" transform="translate(786.72 -786.72) rotate(90)"/><rect class="cls-8" x="641.88" y="4.15" width="52.12" height="12.82"/><rect class="cls-9" x="641.88" y="-52.55" width="52.12" height="105.1"/><line class="cls-10" x1="641.88" y1="10.56" x2="694.01" y2="10.56"/><rect class="cls-9" x="760.66" y="-56.71" width="52.12" height="105.1"/><line class="cls-10" x1="760.66" y1="6.41" x2="812.78" y2="6.41"/><polygon class="cls-14" points="680.89 46.19 673.29 38.59 674.13 37.75 677.52 39.19 682.71 44.38 680.89 46.19"/><rect class="cls-3" x="670.69" y="40.36" width="2" height="16.29" transform="translate(231.03 -460.75) rotate(45)"/><rect class="cls-14" x="687.89" y="44.69" width="10.87" height="1.1"/><path class="cls-18" d="M705.56,55.59l3.23-9a6.6,6.6,0,0,0-6.37-8.83h-.18a8.48,8.48,0,0,0-8.26,7.8l-.48,6.08a3.29,3.29,0,0,0,1.65,3.11l1.48.84Z"/><g class="cls-19"><path class="cls-14" d="M696.68,44.35v4.44a.71.71,0,0,0,.71.71h.84l.72,2.2v.87a3,3,0,0,0,2,2.81l.62.23H708l3.64-11.25Z"/></g><ellipse class="cls-1" cx="699" cy="50.23" rx="1.59" ry="1.81"/><path class="cls-20" d="M702.42,37.75h-.18a8.48,8.48,0,0,0-8.26,7.8l0,.23h15A6.6,6.6,0,0,0,702.42,37.75Z"/><path class="cls-20" d="M710.81,54.38h2.42a6.11,6.11,0,0,1,5.87,4.42l3.69,12.8a8.11,8.11,0,0,1-3.24,9l-4,2.7Z"/><g class="cls-21"><polygon class="cls-22" points="718.8 81.47 713.25 62.25 722.83 78.61 718.8 81.47"/></g><path class="cls-14" d="M695.29,169.05a1.09,1.09,0,0,1-.69,1.07L689.95,172a1.5,1.5,0,0,0-.95,1.39v.31l15.63.09.76-15.38H694.74Z"/><path class="cls-20" d="M692.5,54.38h0a7.4,7.4,0,0,0-6.77,4.43l-5.5,12.56L673.08,56l-5.24,2.3,5.35,22a6.49,6.49,0,0,0,11.4,2.48L693,72.08Z"/><path class="cls-20" d="M722.07,96.27a44.31,44.31,0,0,0-1.71-9.55l-9.55-32.35H692.5l-1.26,19.94V91.58l3.49,66.79h10.66l2.41-48.88,7.31,48.88h11.17Z"/><polygon class="cls-20" points="727.33 173.83 727.32 173.67 712.83 173.67 727.33 173.83"/><path class="cls-14" d="M715.11,158.38l1.69,11.29a1.09,1.09,0,0,1-.63,1.39l-2.34.9a1.56,1.56,0,0,0-1,1.46v.26h14.49l-1-15.29Z"/><path class="cls-18" d="M667.83,58.25l-.75-2.75-2.22-1.57a1.38,1.38,0,0,1-.34-1.91l1.28-1.85a2,2,0,0,1,2.29-.72l3.55,1.34a2.22,2.22,0,0,1,1.44,2.09V56Z"/><polygon class="cls-22" points="691.25 74.31 695.1 69.56 691.25 86.17 691.25 74.31"/><path class="cls-7" d="M349.42,273.91l-8.81-22.53a5.83,5.83,0,0,0-4.51-3.63L331.3,247l-.66,2.82-6.78-2.09-4.53,13.91V285h21.76l-1.25-11.42Z"/><polygon class="cls-4" points="338.02 263.23 336.9 255.31 340.12 263.23 338.02 263.23"/><path class="cls-7" d="M323.86,247.71l-3.28,1.09a10.47,10.47,0,0,0-7.16,9.93V269.3l11.8-3.89Z"/><path class="cls-23" d="M323.94,244.15l-5.05-8.05a7.06,7.06,0,0,1,1.86-9.48h0a8.31,8.31,0,0,1,12.37,3.22l3.39,7.24a4.1,4.1,0,0,1-1.44,5.16l-2.88,1.92.35,3.93a1.6,1.6,0,0,1-2.07,1.67l-6.62-2Z"/><path class="cls-12" d="M320.75,226.62a7.06,7.06,0,0,0-1.86,9.48l2.05,3.27,12.19-9.5v0A8.31,8.31,0,0,0,320.75,226.62Z"/><circle class="cls-16" cx="351.81" cy="262.24" r="2.97"/><circle class="cls-16" cx="341.04" cy="261.85" r="2.97"/><circle class="cls-16" cx="346.3" cy="263.71" r="2.97"/><circle class="cls-16" cx="335.85" cy="263.23" r="2.97"/><circle class="cls-16" cx="357.17" cy="262.82" r="2.97"/><circle class="cls-16" cx="362.4" cy="261.85" r="2.97"/><rect class="cls-3" x="330.88" y="263.23" width="32.81" height="14.99"/><rect class="cls-4" x="355" y="263.23" width="11.05" height="14.99"/><rect class="cls-14" x="357.75" y="265.95" width="6.03" height="1.09" rx="0.55" ry="0.55"/><rect class="cls-14" x="312.18" y="233.9" width="29.82" height="0.96" transform="translate(-75.01 249.75) rotate(-37.81)"/><circle class="cls-14" cx="329.16" cy="234.71" r="0.71"/><circle class="cls-14" cx="333.02" cy="233.9" r="0.71"/><path class="cls-24" d="M331.43,234.61l1.93,1.51a.42.42,0,0,1,0,.66l-1.07.77"/><path class="cls-25" d="M329.48,238.91c.36.66,1,1,2.22.91"/><path class="cls-14" d="M323.94,244.15l.42-.13a2.38,2.38,0,0,0,1.64-2.66l-.31-1.86,1.25-.13-.38-4-5.46,4.24Z"/><ellipse class="cls-23" cx="325.35" cy="239.37" rx="1.89" ry="1.83"/><polygon class="cls-26" points="332.19 244.15 330.25 245.28 332.42 246.69 332.19 244.15"/><path class="cls-23" d="M366.1,278.95h-2.38a.7.7,0,0,1-.7-.7v-4.19a1.32,1.32,0,0,1,.88-1.24l1.73-.61a1,1,0,0,1,1.34.95v4.93A.87.87,0,0,1,366.1,278.95Z"/><polygon class="cls-12" points="331.79 322.83 319.33 288.23 317.88 321.53 314.26 328.04 323.48 333.83 331.79 322.83"/><path class="cls-14" d="M308.25,361.5h5.05v-.36a1.91,1.91,0,0,0-1.11-1.73l-1.24-.57-2.34-4.11,14.87-20.9L314.27,328l-14.09,25.39Z"/><polygon class="cls-27" points="319.33 288.23 331.79 322.83 318.31 306.17 319.33 288.23"/><path class="cls-12" d="M341.09,285H319.33v4.15a20.66,20.66,0,0,0,1.63,8L336.08,333l12.61-3.15Z"/><path class="cls-14" d="M359.85,356.36l-.27-.85a1.23,1.23,0,0,0-1.32-.85l-5.26.62-4.31-25.42L336.08,333l12,28.48Z"/><path class="cls-23" d="M319.51,279.82h35.24a2.18,2.18,0,0,0,2-1.43l.33-.89a.81.81,0,0,0-.56-1.06L350.78,275a.58.58,0,0,1-.15-1.06l1.74-1a.92.92,0,0,0-.76-1.66l-5.1,1.72-21.87-1.88.6-5.65h-11.8v8.32A6.08,6.08,0,0,0,319.51,279.82Z"/><path class="cls-28" d="M360.43,257.37a2.43,2.43,0,0,1-2.57,2.57,2.43,2.43,0,0,1,2.57-2.57Z"/><path class="cls-28" d="M350.13,260.74a2.43,2.43,0,0,1-2.57-2.57,2.43,2.43,0,0,1,2.57,2.57Z"/><path class="cls-28" d="M354.78,259.27a2.43,2.43,0,0,1,0-3.64,2.43,2.43,0,0,1,0,3.64Z"/><path class="cls-28" d="M333.71,261.19a2.43,2.43,0,0,1-2.57-2.57,2.43,2.43,0,0,1,2.57,2.57Z"/><path class="cls-4" d="M653.28,88.33h.61a.95.95,0,0,1,.95.95V361.5a0,0,0,0,1,0,0h-2.5a0,0,0,0,1,0,0V89.28A.95.95,0,0,1,653.28,88.33Z"/><path class="cls-4" d="M677.94,88.33h.61a.95.95,0,0,1,.95.95V361.5a0,0,0,0,1,0,0H677a0,0,0,0,1,0,0V89.28A.95.95,0,0,1,677.94,88.33Z"/><path class="cls-4" d="M766.53,88.33h.61a.95.95,0,0,1,.95.95V361.5a0,0,0,0,1,0,0h-2.5a0,0,0,0,1,0,0V89.28A.95.95,0,0,1,766.53,88.33Z"/><rect class="cls-4" x="652.33" y="173.67" width="132.67" height="3.33"/><rect class="cls-4" x="652.33" y="108.75" width="132.67" height="3.33"/><path class="cls-3" d="M648.46,359H658.7a1.26,1.26,0,0,1,1.26,1.26v1.24a0,0,0,0,1,0,0H647.21a0,0,0,0,1,0,0v-1.24A1.26,1.26,0,0,1,648.46,359Z"/><path class="cls-3" d="M673.46,359H683.7a1.26,1.26,0,0,1,1.26,1.26v1.24a0,0,0,0,1,0,0H672.21a0,0,0,0,1,0,0v-1.24A1.26,1.26,0,0,1,673.46,359Z"/><path class="cls-3" d="M761.71,359H772a1.26,1.26,0,0,1,1.26,1.26v1.24a0,0,0,0,1,0,0H760.46a0,0,0,0,1,0,0v-1.24A1.26,1.26,0,0,1,761.71,359Z"/><rect class="cls-14" x="676.99" y="177" width="2.5" height="3.46"/><rect class="cls-14" x="765.58" y="177" width="2.5" height="3.46"/><rect class="cls-14" x="652.33" y="177" width="2.5" height="3.46"/><rect class="cls-14" x="676.99" y="112.09" width="2.5" height="3.46"/><rect class="cls-14" x="765.58" y="112.09" width="2.5" height="3.46"/><rect class="cls-14" x="652.33" y="112.09" width="2.5" height="3.46"/></g></g></svg>