<svg id="Layer_1" data-name="Layer 1" xmlns="http://www.w3.org/2000/svg" viewBox="0 0 100 100"><defs><style>.cls-1{fill:#d1e2e5;}</style></defs><title>18B40000.I_BQX_Icons_Outlined</title><circle class="cls-1" cx="50" cy="50.13" r="25"/><path d="M41.86,26.49l4.08,2.24L35.69,34.35l-3.4-1.87c-.36.36-.71.74-1.05,1.13l2.89,1.59L30,37.46l-1.16-.64c-.27.42-.53.85-.77,1.29l1.19.65v5.29l-3-1.66c-.16.48-.3,1-.43,1.47l3.47,1.91v5.29L25,48.74c0,.46,0,.92,0,1.39,0,.1,0,.21,0,.31l4.16,2.28V58l-3.44-1.89c.17.69.37,1.37.6,2L47.14,69.57l.36.2,18.25-10V37.87l-21.87-12C43.19,26.06,42.52,26.26,41.86,26.49Zm-.06,6.22L45.94,35,35.71,40.59l-4.15-2.27Zm5.7,3.13L52,38.29l-4.54,2.5L43,38.33ZM30.76,39.59,35.09,42v5.29l-4.33-2.37Zm0,7,10.16,5.57v5.29L30.76,51.88Zm4.33,14.66-4.42-2.42V53.54L35.09,56Zm11.66,6.4L36.59,62.07V56.78l10.16,5.58Zm0-7-4.33-2.38V53l4.33,2.38Zm0-7L36.59,48.07V42.78l10.16,5.58Zm-9.48-12.2,4.15-2.28v0l10.22,5.6L47.5,47.06Zm15.31,9.82-4.33,2.38V48.36L52.58,46Zm5.84-1.49v5.29L48.25,60.65V55.36ZM52.58,65.27l-4.33,2.38V62.36L52.58,60Zm11.67-6.4L54.08,64.45V59.16l10.17-5.58Zm0-7-4.33,2.38V49l4.33-2.38Zm0-7L54.08,50.45V45.16l10.17-5.58Zm-.81-6.55L53.19,43.94,49,41.64,59.25,36Zm-5.75-3.15-4.15,2.27L43.36,31.85l4.14-2.27Z"/></svg>