<svg id="Layer_1" data-name="Layer 1" xmlns="http://www.w3.org/2000/svg" viewBox="0 0 100 100"><defs><style>.cls-1{fill:#d1e2e5;}.cls-2{fill:#a6a6a6;}.cls-3{fill:#fff;}.cls-4{fill:#ffcc85;}</style></defs><title>18B40000.I_BQX_Icons_Outlined</title><circle class="cls-1" cx="50" cy="50.13" r="25"/><path class="cls-2" d="M63.31,38.36,41.74,26.53a25.06,25.06,0,0,0-12.9,10.3L47.5,47.06Z"/><polygon class="cls-3" points="57.12 62.75 59.86 61.25 59.86 52.97 57.12 54.46 57.12 62.75"/><polygon class="cls-3" points="52.89 65.07 55.62 63.57 55.62 55.29 52.89 56.78 52.89 65.07"/><polygon class="cls-4" points="48.25 67.62 51.39 65.89 51.39 55.89 61.36 50.43 61.36 60.43 64.12 58.91 64.12 39.63 48.25 48.36 48.25 67.62"/><path class="cls-4" d="M46.75,48.36,28.07,38.12a25,25,0,0,0-2.31,18.13l21,11.51Z"/><path d="M41.74,26.53,63.31,38.36,47.5,47.06,28.83,36.83c-.27.42-.52.85-.76,1.29L46.75,48.36V67.75l-21-11.51c.18.7.38,1.38.62,2.05L47,69.61l.36.2,4-2.21h0l10-5.47,4.26-2.34V37.91l-21.88-12C43.06,26.09,42.39,26.3,41.74,26.53Zm13.89,37-2.73,1.5V56.78l2.73-1.49Zm4.24-2.32-2.74,1.5V54.46L59.86,53Zm4.26-2.34-2.76,1.52v-10l-10,5.46v10l-3.14,1.73V48.36l15.87-8.73Z"/></svg>