<svg id="Layer_1" data-name="Layer 1" xmlns="http://www.w3.org/2000/svg" viewBox="0 0 100 100"><defs><style>.cls-1{fill:#d1e2e5;}.cls-2{fill:#ffcc85;}</style></defs><title>18B40000.I_BQX_Icons_Outlined</title><circle class="cls-1" cx="50" cy="50.13" r="25"/><path class="cls-2" d="M64.25,44.66V39.58L59.92,42A33.34,33.34,0,0,1,64.25,44.66Z"/><path class="cls-2" d="M52,46.28a26.27,26.27,0,0,1,12.21,7.81V46.55a32.19,32.19,0,0,0-5.92-3.72Z"/><path class="cls-2" d="M50.14,47.32l-1.89,1v4.46A19.09,19.09,0,0,1,60.39,61l3.86-2.12V56.45A24.8,24.8,0,0,0,50.14,47.32Z"/><path class="cls-2" d="M48.25,54.36v6a11.77,11.77,0,0,1,5.69,4.15l5.13-2.8A17.52,17.52,0,0,0,48.25,54.36Z"/><path class="cls-2" d="M48.25,62v5.69l4.37-2.4A10.28,10.28,0,0,0,48.25,62Z"/><path class="cls-2" d="M46.75,58.36l-12-6.58.72-1.31,11.27,6.18V48.36L28.07,38.12a24.86,24.86,0,0,0-1.56,3.43l2.85,1.56-.72,1.32L26,43a25,25,0,0,0-1,6.72l4.35,2.38-.72,1.32-3.6-2a25,25,0,0,0,.69,4.67l21,11.52Z"/><path class="cls-2" d="M51.57,44.83,32.76,34.52l.72-1.32L53.13,44l10.31-5.65L41.86,26.49A24.86,24.86,0,0,0,38,28.19l5.48,3-.72,1.32L36.5,29.09a25.12,25.12,0,0,0-7.67,7.74L47.5,47.06Z"/><path d="M43.48,31.2l-5.48-3c-.51.28-1,.58-1.49.9l6.26,3.43Z"/><path d="M29.36,52.11,25,49.73c0,.13,0,.27,0,.4q0,.67,0,1.33l3.6,2Z"/><path d="M29.36,43.11l-2.85-1.56c-.17.48-.33,1-.47,1.45l2.6,1.43Z"/><path d="M41.86,26.49,63.44,38.32,53.13,44,33.48,33.2l-.72,1.32L51.57,44.83,47.5,47.06,28.83,36.83c-.27.42-.52.85-.77,1.29L46.75,48.36v8.29L35.48,50.47l-.72,1.31,12,6.58v9.29l-21-11.52c.17.69.37,1.37.6,2L47.14,69.57l.36.2,18.25-10V37.87l-21.87-12C43.2,26.05,42.52,26.26,41.86,26.49Zm6.39,41.16V62a10.28,10.28,0,0,1,4.37,3.29Zm5.69-3.13a11.77,11.77,0,0,0-5.69-4.15v-6a17.52,17.52,0,0,1,10.82,7.36Zm10.31-5.65L60.39,61a19.09,19.09,0,0,0-12.14-8.17V48.36l1.89-1a24.8,24.8,0,0,1,14.11,9.13Zm0-4.78A26.27,26.27,0,0,0,52,46.28l6.29-3.45a32.19,32.19,0,0,1,5.92,3.72Zm0-9.43A33.34,33.34,0,0,0,59.92,42l4.33-2.38Z"/></svg>