<svg id="Layer_1" data-name="Layer 1" xmlns="http://www.w3.org/2000/svg" viewBox="0 0 100 100"><defs><style>.cls-1{fill:#007cb9;}</style></defs><title>18B40000.I_BQX_Icons_Outlined</title><path class="cls-1" d="M50,43h0c-3.83,0-8,1.87-8,6a5.24,5.24,0,0,0,2.67,4.57c.61.37,1.16.94.66,2.37a.8.8,0,0,0,.11.74.82.82,0,0,0,.66.33,1,1,0,0,0,.35-.08A12.77,12.77,0,0,0,48.91,55L49,55c.32-.28.43-.32,1-.32h.86c4.18,0,7.1-2.31,7.1-5.62C58,45.07,54,43,50,43Zm.94,10.3H50a2.48,2.48,0,0,0-1.95.66l-.11.1q-.61.55-1.08.93a2.83,2.83,0,0,0-1.5-2.58,3.88,3.88,0,0,1-2-3.43c0-3.19,3.42-4.65,6.59-4.65s6.67,1.47,6.67,4.68C56.63,51.58,54.33,53.3,50.9,53.3Zm2.57-6a.79.79,0,0,1-.8.78H47.25a.78.78,0,1,1,0-1.57h5.42A.79.79,0,0,1,53.47,47.34Zm0,3.08a.79.79,0,0,1-.8.78H47.25a.78.78,0,1,1,0-1.57h5.42A.79.79,0,0,1,53.47,50.42Z"/></svg>