<?xml version="1.0" encoding="UTF-8"?>
<svg width="39px" height="33px" viewBox="0 0 39 33" version="1.1" xmlns="http://www.w3.org/2000/svg" xmlns:xlink="http://www.w3.org/1999/xlink">
    <!-- Generator: Sketch 49.2 (51160) - http://www.bohemiancoding.com/sketch -->
    <title>checkmark</title>
    <desc>Created with Sketch.</desc>
    <defs></defs>
    <g id="Symbols" stroke="none" stroke-width="1" fill="none" fill-rule="evenodd">
        <g id="Icon/General-Liability-Solid" transform="translate(-26.000000, -37.000000)" fill="#FFFFFF">
            <path d="M41.1985063,70 C40.0992845,70 39.0288947,69.6082427 38.1828544,68.8990896 L27.0428722,59.5449784 C25.8742733,58.5628647 25.6562309,56.8208145 26.5491234,55.5784362 L29.4872892,51.4885631 C29.9531069,50.8392617 30.6739081,50.4066964 31.4622844,50.2996886 C32.2515617,50.1935877 33.062463,50.4257401 33.678748,50.9272257 L40.0866705,56.148842 C40.2101077,56.2495019 40.3389509,56.2694525 40.425447,56.2694525 C40.5191512,56.2694525 40.6966485,56.2458745 40.8372047,56.0808286 L56.1902697,38.0246281 C56.6984346,37.4279238 57.4363548,37.0561171 58.215721,37.0062406 C58.9986913,36.9545504 59.7717506,37.2256972 60.3537975,37.755295 L64.0370915,41.1033685 C65.2038884,42.1643778 65.3264246,43.9463291 64.316402,45.1596884 C60.9691815,49.1797344 49.6670191,62.7361676 44.7430461,68.3849082 C43.8483516,69.4123641 42.5563155,70 41.1985063,70" id="checkmark"></path>
        </g>
    </g>
</svg>