<svg width="90" height="109" xmlns="http://www.w3.org/2000/svg">
    <path d="M3.50947621 56.6587896c.04205578 25.0403117 29.85602649 41.942769 38.99286899 46.5275514.5869914.294518 1.2446722.450756 1.9032479.450756.6693133 0 1.3359422-.161625 1.9291972-.46602 8.7717625-4.4896035 37.5083894-21.1208888 39.0116599-46.5805293.0894804-1.5174859 1.0156024-27.6164459 1.2974656-35.5801037.0384766-1.0873818-.8115871-2.0131379-1.8951946-2.0652173-20.7666086-.9904065-34.1117138-11.54725891-38.8854926-16.04135149-.3704488-.34749527-.8545377-.5405482-1.3627863-.5405482-.5270395 0-1.0236556.2047259-1.3985785.5755671C38.6054743 7.40155947 25.8205164 17.8802928 4.25932187 18.828497c-1.08808153.0466919-1.94172444.9742438-1.90324787 2.0652174.16464391 4.6206993.47782527 13.5334592.7382132 21.3175328.14495823 4.309121.25412431 7.7068525.32391901 10.0971171.03937137 1.3172495.0680051 2.3929584.08411157 3.1427221.01252725.56569.02058049.9401229.00715843 1.2077032M44.4055931 105.998628c-1.021866 0-2.0437321-.240642-2.956432-.69948-9.4410759-4.736531-40.25006853-22.2432887-40.29480873-48.6367667 0-.0475898.00268442-.0942817.00894804-.1409735.0214753-1.1457467-.42055782-14.6953685-1.16056064-35.542391-.08411157-2.3839792 1.77887013-4.4069943 4.15278484-4.512051C24.8988683 15.5555764 37.1451544 5.52759919 41.4464766 1.25888468 42.2652222.44716446 43.3497245 0 44.5004423 0c1.108662 0 2.1654254.42022684 2.9734333 1.18076558C52.057956 5.49437613 64.8760217 15.6318997 84.8605717 16.5854913c2.3649667.113138 4.2207899 2.1352552 4.1366784 4.5093573-.3615008 10.2138467-1.2115645 34.1353494-1.3001501 35.6357747C86.1195608 83.4428631 56.4586015 100.641634 47.4049757 105.2767c-.9225428.473204-1.9605153.721928-2.9993826.721928"/>
    <path d="M31.846111 52.6611143c-.023426 0-.047753.0018137-.0711791.005441-.1459622.0190438-.2802114.099753-.3667076.2194567l-2.9381658 4.0898731c-.1648832.2312456-.1252392.5540826.0919022.7363585l11.1399821 9.3550181c.4198667.3509492.9514576.545921 1.4965635.545921.6748501 0 1.3172641-.2929111 1.7623589-.8025583 4.907755-5.6287899 16.1955014-19.1679931 19.5382168-23.1835049.1874083-.2258045.1648833-.5558963-.0513571-.7526817l-3.683294-3.3471667c-.1081201-.0988462-.2504784-.1487227-.3964406-.1396542-.1450612.0099753-.2820135.0788955-.3766186.1886238L42.6392076 57.6306275c-.5541159.6529288-1.3605122 1.0247354-2.2137606 1.0247354-.6631371 0-1.3136601-.2312456-1.830835-.651115l-6.4079224-5.2216163c-.0964072-.0779887-.2171414-.1215173-.3405786-.1215173M41.1985063 70c-1.0992218 0-2.1696116-.3917573-3.0156519-1.1009104l-11.1399822-9.3541112c-1.1685989-.9821137-1.3866413-2.7241639-.4937488-3.9665422l2.9381658-4.0898731c.4658177-.6493014 1.1866189-1.0818667 1.9749952-1.1888745.7892773-.1061009 1.6001786.1260515 2.2164636.6275371l6.4079225 5.2216163c.1234372.1006599.2522804.1206105.3387765.1206105.0937042 0 .2712015-.023578.4117577-.1886239l15.353065-18.0562005c.5081649-.5967043 1.2460851-.968511 2.0254513-1.0183875.7829703-.0516902 1.5560296.2194566 2.1380765.7490544l3.683294 3.3480735c1.1667969 1.0610093 1.2893331 2.8429606.2793105 4.0563199-3.3472205 4.020046-14.6493829 17.5764792-19.5733559 23.2252198C43.8483516 69.4123641 42.5563155 70 41.1985063 70"/>
</svg>
