<svg width="90" height="109" xmlns="http://www.w3.org/2000/svg">
    <path d="M44.4055931 105.998628c-1.021866 0-2.0437321-.240642-2.956432-.69948-9.4410759-4.736531-40.25006853-22.2432887-40.29480873-48.6367667 0-.0475898.00268442-.0942817.00894804-.1409735.0214753-1.1457467-.42055782-14.6953685-1.16056064-35.542391-.08411157-2.3839792 1.77887013-4.4069943 4.15278484-4.512051C24.8988683 15.5555764 37.1451544 5.52759919 41.4464766 1.25888468 42.2652222.44716446 43.3497245 0 44.5004423 0c1.108662 0 2.1654254.42022684 2.9734333 1.18076558C52.057956 5.49437613 64.8760217 15.6318997 84.8605717 16.5854913c2.3649667.113138 4.2207899 2.1352552 4.1366784 4.5093573-.3615008 10.2138467-1.2115645 34.1353494-1.3001501 35.6357747C86.1195608 83.4428631 56.4586015 100.641634 47.4049757 105.2767c-.9225428.473204-1.9605153.721928-2.9993826.721928" fill="#007CB9"/>
    <path d="M41.1985063 70c-1.0992218 0-2.1696116-.3917573-3.0156519-1.1009104l-11.1399822-9.3541112c-1.1685989-.9821137-1.3866413-2.7241639-.4937488-3.9665422l2.9381658-4.0898731c.4658177-.6493014 1.1866189-1.0818667 1.9749952-1.1888745.7892773-.1061009 1.6001786.1260515 2.2164636.6275371l6.4079225 5.2216163c.1234372.1006599.2522804.1206105.3387765.1206105.0937042 0 .2712015-.023578.4117577-.1886239l15.353065-18.0562005c.5081649-.5967043 1.2460851-.968511 2.0254513-1.0183875.7829703-.0516902 1.5560296.2194566 2.1380765.7490544l3.683294 3.3480735c1.1667969 1.0610093 1.2893331 2.8429606.2793105 4.0563199-3.3472205 4.020046-14.6493829 17.5764792-19.5733559 23.2252198C43.8483516 69.4123641 42.5563155 70 41.1985063 70" fill="#FFF"/>
</svg>
