<?xml version="1.0" encoding="UTF-8"?>
<svg width="14px" height="14px" viewBox="0 0 14 14" version="1.1" xmlns="http://www.w3.org/2000/svg" xmlns:xlink="http://www.w3.org/1999/xlink">
    <!-- Generator: Sketch 49.3 (51167) - http://www.bohemiancoding.com/sketch -->
    <title>Shape</title>
    <desc>Created with Sketch.</desc>
    <defs></defs>
    <g id="Page-1" stroke="none" stroke-width="1" fill="none" fill-rule="evenodd">
        <g id="Icon-Utility-Help-Selected" fill="#007CB9" fill-rule="nonzero">
            <path d="M7,0 C3.13400675,0 0,3.13400675 0,7 C0,10.8659932 3.13400675,14 7,14 C10.8659932,14 14,10.8659932 14,7 C14,3.13400675 10.8659932,0 7,0 Z M7.72,10.22 C7.72,10.728102 7.30810197,11.14 6.8,11.14 C6.29189803,11.14 5.88,10.728102 5.88,10.22 C5.88,9.71189803 6.29189803,9.3 6.8,9.3 C7.30810197,9.3 7.72,9.71189803 7.72,10.22 Z M9.57,5.33 C9.57,6.68 8.64,7.23 7.48,7.46 L7.48,7.84 C7.44536447,8.13076412 7.20271394,8.35212952 6.91,8.36 L6.83,8.36 C6.53554292,8.35650056 6.29044243,8.13290011 6.26,7.84 L6.14,6.93 C6.10386308,6.77795908 6.13802169,6.61772753 6.23302376,6.49364319 C6.32802584,6.36955885 6.47379672,6.29478045 6.63,6.29 C7.55,6.17 7.98,5.89 7.98,5.37 C7.98,4.89 7.62,4.62 6.98,4.62 C6.53467489,4.61915795 6.10180667,4.76696661 5.75,5.04 C5.61243554,5.14679378 5.44411486,5.20640736 5.27,5.21 C4.8635603,5.20461599 4.53538401,4.8764397 4.53,4.47 C4.53291752,4.24757305 4.63573887,4.03825816 4.81,3.9 C5.42759278,3.38948315 6.20898187,3.11954873 7.01,3.14 C8.54,3.14 9.57,3.92 9.57,5.33 Z" id="Shape"></path>
        </g>
    </g>
</svg>