<svg xmlns="http://www.w3.org/2000/svg" viewBox="0 0 300 59.44"><defs><style>.cls-1{fill:#767676;}.cls-2{fill:#259ed9;}</style></defs><title>PGR_Small_Business</title><g id="Layer_2" data-name="Layer 2"><g id="_08" data-name="08"><path class="cls-1" d="M96.06,59.42a4.11,4.11,0,0,1-3.18-1.11,3.73,3.73,0,0,1-.74-3.16l0-.11,2.88-1,0,.29a2.77,2.77,0,0,0,.37,2,2,2,0,0,0,1.69.69,4.23,4.23,0,0,0,3.72-2.37,1.49,1.49,0,0,0,.11-1.36c-.14-.25-.62-.73-2.15-1.51a5.2,5.2,0,0,1-2.49-2.13A3.22,3.22,0,0,1,96.54,47a7.41,7.41,0,0,1,2.84-3.11,7.62,7.62,0,0,1,4.1-1.22,3.67,3.67,0,0,1,2.88,1,3.29,3.29,0,0,1,.57,2.9l0,.11-2.72.78,0-.27a2.18,2.18,0,0,0-.33-1.69,1.85,1.85,0,0,0-1.51-.56,3.31,3.31,0,0,0-1.79.53,3.1,3.1,0,0,0-1.23,1.34,1.62,1.62,0,0,0-.14,1.41,3.76,3.76,0,0,0,1.6,1.29l.46.24a6.2,6.2,0,0,1,2.13,1.53,2.66,2.66,0,0,1,.49,1.58,4.52,4.52,0,0,1-.5,1.89,8.27,8.27,0,0,1-7.34,4.62Z"/><path class="cls-1" d="M118.61,59.17h-2.46L122,46.76c-1,1.27-1.53,2-1.67,2.15l-8.13,10.26h-1.91L112,48.76s.06-.41.19-1.13l0-.16c0-.3.1-.58.15-.86l-6,12.56h-2.47l7.73-16.26h3.68l-1.5,9.25c-.09.54-.19,1.11-.31,1.71-.06.34-.14.69-.22,1.06l.78-1c.47-.6,1-1.22,1.47-1.87l7.22-9.12h3.56l-7.73,16.26Z"/><polygon class="cls-1" points="145.92 59.17 136.37 59.17 144.1 42.91 146.75 42.91 140.17 56.77 147.06 56.77 145.92 59.17 145.92 59.17"/><polygon class="cls-1" points="157.97 59.17 148.43 59.17 156.15 42.91 158.8 42.91 152.22 56.77 159.12 56.77 157.97 59.17 157.97 59.17"/><path class="cls-1" d="M175.52,49.53h2.65a5.14,5.14,0,0,0,2.55-.6,3.76,3.76,0,0,0,1.59-1.73c.34-.72.35-1.22,0-1.53a3.44,3.44,0,0,0-2.27-.51H177.6l-2.08,4.37ZM172,56.87h2.58a6.09,6.09,0,0,0,3-.63,4.32,4.32,0,0,0,1.77-2c.39-.82.41-1.44.08-1.84a2.81,2.81,0,0,0-2.17-.63h-2.81L172,56.87Zm1.67,2.3h-5.4L176,42.91h5c2,0,3.25.35,3.93,1.07s.7,1.8,0,3.21a6.73,6.73,0,0,1-1.67,2.21,7.66,7.66,0,0,1-2.17,1.27,2.26,2.26,0,0,1,1.13,1.46,3.92,3.92,0,0,1-.45,2.57,7.29,7.29,0,0,1-3.11,3.35,10.38,10.38,0,0,1-5,1.12Z"/><path class="cls-1" d="M188.06,59.44c-1.93,0-3.17-.54-3.69-1.59s-.31-2.53.64-4.53l5-10.41h2.65l-4.9,10.32c-.67,1.41-.89,2.42-.66,3s.92.84,2.09.84a5,5,0,0,0,3-.9,8.29,8.29,0,0,0,2.26-3.1l4.82-10.16h2.64l-5.13,10.8A10.18,10.18,0,0,1,193.21,58a9.17,9.17,0,0,1-5.15,1.46Z"/><path class="cls-1" d="M202.38,59.42a4.11,4.11,0,0,1-3.18-1.11,3.7,3.7,0,0,1-.74-3.16l0-.11,2.88-1,0,.29a2.77,2.77,0,0,0,.38,2,2,2,0,0,0,1.68.69,4.23,4.23,0,0,0,3.73-2.37,1.53,1.53,0,0,0,.11-1.36c-.14-.25-.63-.73-2.15-1.51a5.2,5.2,0,0,1-2.49-2.13,3.18,3.18,0,0,1,.28-2.67,7.41,7.41,0,0,1,2.84-3.11,7.62,7.62,0,0,1,4.1-1.22,3.67,3.67,0,0,1,2.88,1,3.33,3.33,0,0,1,.57,2.9l0,.11-2.72.78,0-.27a2.18,2.18,0,0,0-.33-1.69,1.86,1.86,0,0,0-1.52-.56,3.28,3.28,0,0,0-1.78.53,3.1,3.1,0,0,0-1.23,1.34,1.62,1.62,0,0,0-.14,1.41,3.72,3.72,0,0,0,1.59,1.29l.47.24a6.2,6.2,0,0,1,2.13,1.53,2.66,2.66,0,0,1,.49,1.58,4.52,4.52,0,0,1-.5,1.89,8.27,8.27,0,0,1-7.34,4.62Z"/><polygon class="cls-1" points="213.56 59.17 210.9 59.17 218.63 42.91 221.28 42.91 213.56 59.17 213.56 59.17"/><path class="cls-1" d="M230.08,59.17h-2.25l-1.14-9.68c-.05-.47-.1-1-.14-1.65,0-.36,0-.74-.05-1.14l-.33.74c-.24.54-.53,1.16-.86,1.86l-4.69,9.87h-2.53l7.72-16.26h3.05l.87,8.89c.05.59.09,1.17.12,1.73l0,.82.26-.59c.23-.52.51-1.11.82-1.78l4.31-9.07h2.53l-7.72,16.26Z"/><polygon class="cls-1" points="244.37 59.17 233.98 59.17 241.7 42.91 251.75 42.91 250.63 45.26 243.24 45.26 241.22 49.51 246.51 49.51 245.41 51.83 240.12 51.83 237.77 56.77 245.51 56.77 244.37 59.17 244.37 59.17"/><path class="cls-1" d="M251.28,59.42a4.15,4.15,0,0,1-3.19-1.11,3.73,3.73,0,0,1-.73-3.16V55l2.88-1,0,.29a2.77,2.77,0,0,0,.38,2,2,2,0,0,0,1.68.69,4.07,4.07,0,0,0,2.19-.66A4.14,4.14,0,0,0,256,54.7a1.49,1.49,0,0,0,.1-1.36c-.13-.25-.62-.73-2.15-1.51a5.17,5.17,0,0,1-2.48-2.13,3.21,3.21,0,0,1,.27-2.67,7.51,7.51,0,0,1,2.85-3.11,7.62,7.62,0,0,1,4.1-1.22,3.67,3.67,0,0,1,2.88,1,3.33,3.33,0,0,1,.57,2.9l0,.11-2.73.78,0-.27a2.22,2.22,0,0,0-.33-1.69,1.86,1.86,0,0,0-1.52-.56,3.33,3.33,0,0,0-1.79.53,3.08,3.08,0,0,0-1.22,1.34,1.62,1.62,0,0,0-.14,1.41A3.72,3.72,0,0,0,256,49.56l.47.24a6.3,6.3,0,0,1,2.13,1.53,2.66,2.66,0,0,1,.49,1.58,4.52,4.52,0,0,1-.5,1.89,8.27,8.27,0,0,1-7.34,4.62Z"/><path class="cls-1" d="M264,59.42a4.11,4.11,0,0,1-3.18-1.11,3.73,3.73,0,0,1-.74-3.16l0-.11,2.88-1,0,.29a2.77,2.77,0,0,0,.38,2,2,2,0,0,0,1.68.69,4.23,4.23,0,0,0,3.73-2.37,1.49,1.49,0,0,0,.11-1.36c-.14-.25-.62-.73-2.15-1.51a5.2,5.2,0,0,1-2.49-2.13,3.22,3.22,0,0,1,.28-2.67,7.41,7.41,0,0,1,2.84-3.11,7.62,7.62,0,0,1,4.1-1.22,3.67,3.67,0,0,1,2.88,1,3.29,3.29,0,0,1,.57,2.9l0,.11-2.72.78,0-.27a2.18,2.18,0,0,0-.33-1.69,1.86,1.86,0,0,0-1.52-.56,3.28,3.28,0,0,0-1.78.53,3.1,3.1,0,0,0-1.23,1.34,1.62,1.62,0,0,0-.14,1.41,3.72,3.72,0,0,0,1.59,1.29l.47.24a6.2,6.2,0,0,1,2.13,1.53,2.66,2.66,0,0,1,.49,1.58,4.52,4.52,0,0,1-.5,1.89A8.27,8.27,0,0,1,264,59.42Z"/><path class="cls-2" d="M155.7,2.51c.71,1.13,1.21,3.18-.42,6.55,0,0-1.66,3.6-2.73,5.8a8,8,0,0,1-6.84,4.55c1.28.79,3.3,2.39,1.66,6.42,0,.05-2,5-2.62,6.51a19.36,19.36,0,0,0-1,3.44h-8.51s1.61-4.51,3.64-8.86c.84-1.8,1-3.17.45-4.06a2.55,2.55,0,0,0-1.91-1.05h-4.5l-6.4,13.94H118.1L134.81.2H151a5.6,5.6,0,0,1,4.74,2.31Zm-8.53,6.13c.43-.91.52-1.61.27-2a1.16,1.16,0,0,0-.87-.46h-6.41l-4.43,9.66h5.85a3.47,3.47,0,0,0,3.25-2.26l.87-1.83,1.47-3.08Zm-81-6.13c.7,1.13,1.2,3.18-.43,6.55,0,0-1.66,3.6-2.72,5.8a8,8,0,0,1-6.84,4.55c1.28.79,3.29,2.39,1.66,6.42,0,.05-2,5-2.62,6.51a18.42,18.42,0,0,0-1,3.44H45.63s1.6-4.51,3.63-8.86c.84-1.8,1-3.17.45-4.06a2.53,2.53,0,0,0-1.9-1.05H43.3L36.9,35.73H28.51L45.23.2H61.38a5.6,5.6,0,0,1,4.74,2.31ZM57.59,8.64c.43-.91.52-1.61.26-2A1.15,1.15,0,0,0,57,6.15H50.71l-4.57,9.66H52a3.46,3.46,0,0,0,3.25-2.26l.88-1.83,1.47-3.08Zm28.64,20.2c-2.49,5.19-5.66,7-12.12,7H67.67c-3.15,0-9.56-1.48-5.27-10.49l4.29-9c2-4.23,3.76-7.89,4.81-10.12C73.44,2,76.47,0,80.75,0H90.92c4.24,0,7.58,2.74,4.62,9l-2.86,6.12c-2.46,5.25-4.78,10.21-6.45,13.69Zm-11.41.35c1.83,0,2.63-.42,3.82-2.94L87.17,8c.71-1.52-.07-2-1-2H81.65c-1.13,0-2,.36-2.84,2.14-1.23,2.6-7.24,15.56-8.67,18.65-1,2.15.31,2.36,1,2.33ZM120.18,0c5.52.08,7.88,2.75,5.22,8.49l-1.81,3.91-8-.06s1.83-4,2-4.28c.74-1.45.15-2-.95-2h-4.54c-1.38,0-1.92.28-2.81,2.16,0,0-7.89,16.48-8.89,18.6-.79,1.68-.32,2.34,1,2.33h4.39c1.71,0,2.2-.31,2.93-1.87L111.16,22h-4.42L109.53,16l12.68,0L116,29.66c-2.44,5.35-5.07,6.18-10.41,6.13H98.89c-7.48,0-9.07-4.74-6.33-10.49,0,0,7.48-15.74,9.06-19.11A10.49,10.49,0,0,1,111.49,0Zm101.9,35.66h-8.63L230.19.09h8.73L222.08,35.66ZM260.29.1h9.07L245,35.66H233.31L241.6.1h9l-9.88,31.33L260.29.1Zm-66.8,23.22c.47,7.77-3.67,12.35-10.69,12.35H172.21l3-6.45h6.64c2.54,0,3.58-1.27,3.46-4,0,0-.49-11.24-.67-14.69C184.31,4.91,187,.11,194.86.1h9.92l-3,6.34H196c-2.9,0-3.29,2.16-3.2,3.74l.72,13.14Zm19.86,0c.41,6.83-3,12.35-10.69,12.35H192.24l3-6.45h6.48c2.53,0,3.57-1.27,3.45-4,0,0-.48-11.24-.67-14.69C204.1,3.67,208.19.11,214.71.1h9.94l-3,6.34h-5.82c-2.9,0-3.29,2.16-3.2,3.74l.72,13.14ZM164.69.15H184.2s-2.91,6.31-2.93,6.31l-11.21,0-3.45,7.38h10.84l-2.77,6h-10.8l-4.5,9.47h12.78l-3.06,6.43h-21L164.69.15Zm107.54,0h19.5s-2.91,6.31-2.93,6.31l-11.2,0-3.45,7.38H285l-2.77,6H271.42l-4.5,9.47h12.77l-3.06,6.43h-21L272.23.15ZM8.62,35.78H0L16.58.21h16c3.67,0,7.09,2.86,4.31,9-1.58,3.49-3,6.51-3.68,8-2.19,4.5-5,6.17-10.37,6.13-3.52,0-8.39,0-8.39,0L8.62,35.78Zm14-18.67A3.23,3.23,0,0,0,25.86,15c.13-.27,1.31-2.73,2.86-6C29.81,6.64,29,6,27.78,6H22.36L17.25,17.1Z"/><path class="cls-2" d="M296.72,3.06c.5,0,1.28.08,1.28-.64,0-.56-.48-.63-.93-.63h-1V3.06Zm1.68,2h-.52l-1-1.66h-.8V5.06h-.44V1.47h1.56a1.68,1.68,0,0,1,.88.18.87.87,0,0,1,.4.77c0,.71-.49,1-1.13,1l1.08,1.66Zm1.22-1.8a2.82,2.82,0,1,0-2.81,2.83,2.81,2.81,0,0,0,2.81-2.83Zm-6,0a3.21,3.21,0,1,1,3.22,3.22,3.21,3.21,0,0,1-3.22-3.22Z"/><path class="cls-1" d="M128.58,52.57h4L134,45.44l-5.42,7.13Zm5.47,6.6h-2.69l.81-4.29h-5.33l-3.24,4.29h-2.74l12.62-16.26h3.4l-2.83,16.26Z"/></g></g></svg>